SplineFontDB: 3.0
FontName: Fishmonger-Bold
FullName: Fishmonger Bold
FamilyName: Fishmonger
Weight: Bold
Copyright: (cc)
Version: 001.001
ItalicAngle: 0
UnderlinePosition: 0
UnderlineWidth: 0
Ascent: 799
Descent: 225
sfntRevision: 0x00010042
LayerCount: 2
Layer: 0 0 "Back"  1
Layer: 1 0 "Fore"  0
XUID: [1021 588 1133928653 8993429]
FSType: 0
OS2Version: 2
OS2_WeightWidthSlopeOnly: 0
OS2_UseTypoMetrics: 1
CreationTime: 1185377369
ModificationTime: 1360604463
PfmFamily: 33
TTFWeight: 700
TTFWidth: 2
LineGap: 205
VLineGap: 0
Panose: 2 0 7 8 0 0 0 2 0 3
OS2TypoAscent: 0
OS2TypoAOffset: 1
OS2TypoDescent: 0
OS2TypoDOffset: 1
OS2TypoLinegap: 205
OS2WinAscent: -65
OS2WinAOffset: 1
OS2WinDescent: 6
OS2WinDOffset: 1
HheadAscent: -187
HheadAOffset: 1
HheadDescent: 76
HheadDOffset: 1
OS2SubXSize: 717
OS2SubYSize: 666
OS2SubXOff: 0
OS2SubYOff: 143
OS2SupXSize: 717
OS2SupYSize: 666
OS2SupXOff: 0
OS2SupYOff: 488
OS2StrikeYSize: 51
OS2StrikeYPos: 256
OS2Vendor: 'MaPm'
OS2CodePages: 20000193.4d000000
OS2UnicodeRanges: 800000af.5000204a.00000000.00000000
Lookup: 6 0 0 "'frac' Diagonal Fractions in Latin lookup 0"  {"'frac' Diagonal Fractions in Latin lookup 0 contextual 0"  "'frac' Diagonal Fractions in Latin lookup 0 contextual 1"  "'frac' Diagonal Fractions in Latin lookup 0 contextual 2"  "'frac' Diagonal Fractions in Latin lookup 0 contextual 3"  "'frac' Diagonal Fractions in Latin lookup 0 contextual 4"  } ['frac' ('latn' <'dflt' > ) ]
Lookup: 4 0 1 "'liga' Standard Ligatures in Latin lookup 1"  {"'liga' Standard Ligatures in Latin lookup 1 subtable"  } ['liga' ('latn' <'dflt' > ) ]
Lookup: 4 0 1 "'liga' Standard Ligatures in Latin lookup 2"  {"'liga' Standard Ligatures in Latin lookup 2 subtable"  } ['liga' ('latn' <'TRK ' 'dflt' > ) ]

StartChar: at
Encoding: 64 64 4
Width: 872
Flags: HMW
HStem: -201 139<162 622 251 622 622 642 251 665> -20 20G<480 577 480 480> 378 139<231 251 251 419>
VStem: 51 139<-22 -2 -2 319> 252 146<139 150 150 181 139 232 139 263> 462 158<25 43 118 213 213 213 305 335 335 351> 682 139<-2 476>
LayerCount: 2
Fore
SplineSet
419 378 m 2
 251 378 l 2
 211 378 190 358 190 319 c 2
 190 -2 l 2
 190 -42 211 -61 251 -61 c 2
 622 -61 l 2
 662 -61 682 -42 682 -2 c 2
 682 476 l 2
 682 504 695 517 723 517 c 2
 780 517 l 2
 808 517 821 504 821 476 c 2
 821 -43 l 2
 821 -137 758 -201 665 -201 c 2
 208 -201 l 2
 116 -201 51 -137 51 -44 c 2
 51 359 l 2
 51 452 116 517 208 517 c 2
 503 517 l 2
 576 517 620 477 620 395 c 2
 620 43 l 2
 620 14 606 0 577 0 c 2
 480 0 l 1
 462 25 l 1
 372 1 l 2
 363 -2 352 -3 345 -3 c 0
 293 -3 252 36 252 97 c 2
 252 232 l 2
 252 293 293 333 345 333 c 0
 352 333 363 332 372 329 c 2
 462 305 l 1
 462 335 l 2
 462 367 449 378 419 378 c 2
462 213 m 1
 430 213 l 2
 408 213 398 203 398 181 c 2
 398 150 l 2
 398 128 408 118 430 118 c 2
 462 118 l 1
 462 213 l 1
EndSplineSet
EndChar

StartChar: A
Encoding: 65 65 5
Width: 543
Flags: HMW
HStem: 0 22G<48 58 58 130 398 407 407 487> 143 139<196 327 210 327 210 335> 719 20G<175 370 370 379>
LayerCount: 2
Fore
SplineSet
175 739 m 2
 370 739 l 2
 389 739 403 726 406 709 c 2
 523 44 l 2
 527 19 507 0 487 0 c 2
 407 0 l 2
 390 0 374 12 371 31 c 2
 353 128 l 2
 352 136 344 143 335 143 c 2
 201 143 l 2
 192 143 186 138 183 127 c 2
 166 31 l 2
 163 14 149 0 130 0 c 2
 58 0 l 2
 38 0 18 18 22 43 c 2
 139 709 l 2
 142 726 158 739 175 739 c 2
327 283 m 1
 268 610 l 1
 210 283 l 1
 327 283 l 1
EndSplineSet
Position2: "'cpsp' Capital Spacing in Latin lookup 0 subtable" dx=7 dy=0 dh=14 dv=0
EndChar

StartChar: B
Encoding: 66 66 6
Width: 508
Flags: HMW
HStem: 0 139<78 263 226 263 263 278 226 311> 304 139<209 242 209 242> 600 139<222 227 227 260>
VStem: 51 158<154 158 158 304 443 582> 310 158<186 198 111 238 111 258 511 551 551 567>
LayerCount: 2
Fore
SplineSet
92 739 m 2
 311 739 l 2
 404 739 468 675 468 584 c 2
 468 551 l 2
 468 465 424 404 358 375 c 1
 424 346 468 284 468 198 c 2
 468 157 l 2
 468 65 404 0 311 0 c 2
 92 0 l 2
 64 0 51 13 51 41 c 2
 51 698 l 2
 51 726 64 739 92 739 c 2
242 304 m 2
 209 304 l 1
 209 158 l 2
 209 150 217 139 226 139 c 2
 263 139 l 2
 292 139 310 157 310 186 c 2
 310 238 l 2
 310 278 286 304 242 304 c 2
260 600 m 2
 227 600 l 2
 216 600 209 593 209 582 c 2
 209 443 l 1
 242 443 l 2
 286 443 310 469 310 511 c 2
 310 551 l 2
 310 583 293 600 260 600 c 2
EndSplineSet
Position2: "'cpsp' Capital Spacing in Latin lookup 0 subtable" dx=7 dy=0 dh=14 dv=0
EndChar

StartChar: C
Encoding: 67 67 7
Width: 427
Flags: HMW
HStem: 0 139<151 366 266 366 266 366> 600 139<241 262 262 366>
VStem: 41 158<184 206 206 534>
LayerCount: 2
Fore
SplineSet
41 157 m 2
 41 583 l 2
 41 676 106 739 198 739 c 2
 366 739 l 2
 394 739 407 726 407 698 c 2
 407 641 l 2
 407 613 394 600 366 600 c 2
 262 600 l 2
 220 600 199 578 199 534 c 2
 199 206 l 2
 199 162 221 139 266 139 c 2
 366 139 l 2
 394 139 407 126 407 98 c 2
 407 41 l 2
 407 13 394 0 366 0 c 2
 198 0 l 2
 105 0 41 65 41 157 c 2
EndSplineSet
Position2: "'cpsp' Capital Spacing in Latin lookup 0 subtable" dx=7 dy=0 dh=14 dv=0
EndChar

StartChar: D
Encoding: 68 68 8
Width: 532
Flags: HMW
HStem: 0 139<78 266 227 266 266 289 227 335> 600 139<221 227 227 270>
VStem: 51 158<152 159 159 581> 334 158<206 534 534 556>
LayerCount: 2
Fore
SplineSet
92 739 m 2
 335 739 l 2
 428 739 492 675 492 584 c 2
 492 157 l 2
 492 65 428 0 335 0 c 2
 92 0 l 2
 64 0 51 13 51 41 c 2
 51 698 l 2
 51 726 64 739 92 739 c 2
270 600 m 2
 227 600 l 2
 215 600 209 594 209 581 c 2
 209 159 l 2
 209 146 215 139 227 139 c 2
 266 139 l 2
 311 139 334 162 334 206 c 2
 334 534 l 2
 334 578 312 600 270 600 c 2
EndSplineSet
Position2: "'cpsp' Capital Spacing in Latin lookup 0 subtable" dx=7 dy=0 dh=14 dv=0
EndChar

StartChar: E
Encoding: 69 69 9
Width: 428
Flags: HMW
HStem: 0 139<78 367 227 367 227 367> 304 139<209 322 209 322> 600 139<222 228 228 367>
VStem: 51 158<152 158 158 304 443 581>
LayerCount: 2
Fore
SplineSet
209 581 m 2
 209 443 l 1
 322 443 l 2
 349 443 361 430 361 402 c 2
 361 345 l 2
 361 317 349 304 322 304 c 2
 209 304 l 1
 209 158 l 2
 209 147 216 139 227 139 c 2
 367 139 l 2
 395 139 408 126 408 98 c 2
 408 41 l 2
 408 13 395 0 367 0 c 2
 92 0 l 2
 64 0 51 13 51 41 c 2
 51 698 l 2
 51 726 64 739 92 739 c 2
 367 739 l 2
 395 739 408 726 408 698 c 2
 408 641 l 2
 408 613 395 600 367 600 c 2
 228 600 l 2
 215 600 209 594 209 581 c 2
EndSplineSet
Position2: "'cpsp' Capital Spacing in Latin lookup 0 subtable" dx=7 dy=0 dh=14 dv=0
EndChar

StartChar: F
Encoding: 70 70 10
Width: 418
Flags: HMW
HStem: 0 22G<78 92 92 168> 304 139<209 322 209 322> 600 139<222 228 228 367>
VStem: 51 158<41 304 443 581>
LayerCount: 2
Fore
SplineSet
209 581 m 2
 209 443 l 1
 322 443 l 2
 349 443 361 430 361 402 c 2
 361 345 l 2
 361 317 349 304 322 304 c 2
 209 304 l 1
 209 41 l 2
 209 13 196 0 168 0 c 2
 92 0 l 2
 64 0 51 13 51 41 c 2
 51 698 l 2
 51 726 64 739 92 739 c 2
 367 739 l 2
 395 739 408 726 408 699 c 2
 408 641 l 2
 408 613 395 600 367 600 c 2
 228 600 l 2
 215 600 209 594 209 581 c 2
EndSplineSet
Position2: "'cpsp' Capital Spacing in Latin lookup 0 subtable" dx=7 dy=0 dh=14 dv=0
EndChar

StartChar: G
Encoding: 71 71 11
Width: 496
Flags: HMW
HStem: 0 139<152 269 263 269 269 275 263 404> 600 139<241 262 262 395>
VStem: 41 158<183 206 206 534> 288 158<159 366>
LayerCount: 2
Fore
SplineSet
41 157 m 2
 41 583 l 2
 41 676 106 739 198 739 c 2
 396 739 l 2
 423 739 436 726 436 698 c 2
 436 641 l 2
 436 613 423 600 395 600 c 2
 262 600 l 2
 220 600 199 578 199 534 c 2
 199 206 l 2
 199 161 222 139 263 139 c 2
 269 139 l 2
 280 139 288 148 288 159 c 2
 288 366 l 2
 288 394 301 407 329 407 c 2
 404 407 l 2
 432 407 445 394 445 366 c 2
 445 41 l 2
 445 13 432 0 404 0 c 2
 199 0 l 2
 105 0 41 65 41 157 c 2
EndSplineSet
Position2: "'cpsp' Capital Spacing in Latin lookup 0 subtable" dx=7 dy=0 dh=14 dv=0
EndChar

StartChar: H
Encoding: 72 72 12
Width: 562
Flags: HMW
HStem: 0 22G<78 92 92 168 380 394 394 470> 304 139<209 353 209 353> 719 20G<92 168 168 182 394 470 470 484>
VStem: 51 158<41 304 443 698> 353 158<41 304 304 304 443 698>
LayerCount: 2
Fore
SplineSet
353 304 m 1
 209 304 l 1
 209 41 l 2
 209 13 196 0 168 0 c 2
 92 0 l 2
 64 0 51 13 51 41 c 2
 51 698 l 2
 51 726 64 739 92 739 c 2
 168 739 l 2
 196 739 209 726 209 698 c 2
 209 443 l 1
 353 443 l 1
 353 698 l 2
 353 726 366 739 394 739 c 2
 470 739 l 2
 498 739 511 726 511 698 c 2
 511 41 l 2
 511 13 498 0 470 0 c 2
 394 0 l 2
 366 0 353 13 353 41 c 2
 353 304 l 1
EndSplineSet
Position2: "'cpsp' Capital Spacing in Latin lookup 0 subtable" dx=7 dy=0 dh=14 dv=0
EndChar

StartChar: I
Encoding: 73 73 13
Width: 260
Flags: HMW
HStem: 0 22G<78 92 92 168> 719 20G<92 168 168 182>
VStem: 51 158<41 698>
LayerCount: 2
Fore
SplineSet
51 41 m 2
 51 698 l 2
 51 726 64 739 92 739 c 2
 168 739 l 2
 196 739 209 726 209 698 c 2
 209 41 l 2
 209 13 196 0 168 0 c 2
 92 0 l 2
 64 0 51 13 51 41 c 2
EndSplineSet
Position2: "'cpsp' Capital Spacing in Latin lookup 0 subtable" dx=7 dy=0 dh=14 dv=0
EndChar

StartChar: J
Encoding: 74 74 14
Width: 363
Flags: HMW
HStem: 0 139<38 101 52 101 101 119 52 194> 719 20G<196 271 271 285>
VStem: 155 158<193 698>
LayerCount: 2
Fore
SplineSet
155 193 m 2
 155 698 l 2
 155 726 168 739 196 739 c 2
 271 739 l 2
 299 739 312 726 312 698 c 2
 312 119 l 2
 312 48 265 0 194 0 c 2
 52 0 l 2
 24 0 11 13 11 41 c 2
 11 98 l 2
 11 126 24 139 52 139 c 2
 101 139 l 2
 137 139 155 157 155 193 c 2
EndSplineSet
Position2: "'cpsp' Capital Spacing in Latin lookup 0 subtable" dx=7 dy=0 dh=14 dv=0
EndChar

StartChar: K
Encoding: 75 75 15
Width: 519
Flags: HMW
HStem: 0 22G<78 92 92 168 356 370 370 445> 719 20G<92 168 168 182 368 443 443 458>
VStem: 51 158<41 304 443 697>
LayerCount: 2
Fore
SplineSet
92 739 m 2
 168 739 l 2
 196 739 209 725 209 697 c 2
 209 443 l 1
 232 443 l 2
 251 443 268 456 272 475 c 2
 326 712 l 2
 330 728 342 739 368 739 c 2
 443 739 l 2
 472 739 492 721 485 693 c 2
 426 454 l 2
 418 421 400 394 375 374 c 1
 401 354 418 327 426 295 c 2
 487 46 l 2
 494 18 475 0 445 0 c 2
 370 0 l 2
 342 0 331 13 328 28 c 2
 272 273 l 2
 268 290 251 304 232 304 c 2
 209 304 l 1
 209 41 l 2
 209 13 196 0 168 0 c 2
 92 0 l 2
 64 0 51 13 51 41 c 2
 51 698 l 2
 51 726 64 739 92 739 c 2
EndSplineSet
Position2: "'cpsp' Capital Spacing in Latin lookup 0 subtable" dx=7 dy=0 dh=14 dv=0
EndChar

StartChar: L
Encoding: 76 76 16
Width: 418
Flags: HMW
HStem: 0 139<78 367 228 367 228 367> 719 20G<92 168 168 182>
VStem: 51 158<153 159 159 698>
LayerCount: 2
Fore
SplineSet
209 698 m 2
 209 159 l 2
 209 148 217 139 228 139 c 2
 367 139 l 2
 395 139 408 126 408 98 c 2
 408 41 l 2
 408 13 395 0 367 0 c 2
 92 0 l 2
 64 0 51 13 51 41 c 2
 51 698 l 2
 51 726 64 739 92 739 c 2
 168 739 l 2
 196 739 209 726 209 698 c 2
EndSplineSet
Position2: "'cpsp' Capital Spacing in Latin lookup 0 subtable" dx=7 dy=0 dh=14 dv=0
EndChar

StartChar: M
Encoding: 77 77 17
Width: 702
Flags: HMW
HStem: 0 22G<78 92 92 158 312 322 322 381 531 545 545 610> 719 20G<92 244 244 253 459 610 610 624>
VStem: 51 147<41 517> 504 147<41 517 517 517>
LayerCount: 2
Fore
SplineSet
281 706 m 2
 351 266 l 1
 422 706 l 2
 425 725 440 739 459 739 c 2
 610 739 l 2
 638 739 651 726 651 698 c 2
 651 41 l 2
 651 13 638 0 610 0 c 2
 545 0 l 2
 517 0 504 13 504 41 c 2
 504 517 l 1
 418 34 l 2
 415 15 400 0 381 0 c 2
 322 0 l 2
 303 0 288 15 285 34 c 2
 199 517 l 1
 199 41 l 2
 199 13 186 0 158 0 c 2
 92 0 l 2
 64 0 51 13 51 41 c 2
 51 698 l 2
 51 726 64 739 92 739 c 2
 244 739 l 2
 263 739 278 725 281 706 c 2
EndSplineSet
Position2: "'cpsp' Capital Spacing in Latin lookup 0 subtable" dx=7 dy=0 dh=14 dv=0
EndChar

StartChar: N
Encoding: 78 78 18
Width: 561
Flags: HMW
HStem: 0 22G<78 92 92 152 330 344 344 469> 719 20G<92 218 218 231 410 469 469 483>
VStem: 51 141<41 517> 369 141<222 698>
LayerCount: 2
Fore
SplineSet
260 709 m 2
 369 222 l 1
 369 698 l 2
 369 726 382 739 410 739 c 2
 469 739 l 2
 497 739 510 726 510 698 c 2
 510 41 l 2
 510 13 497 0 469 0 c 2
 344 0 l 2
 316 0 305 15 301 31 c 2
 193 517 l 1
 193 41 l 2
 193 13 180 0 152 0 c 2
 92 0 l 2
 64 0 51 13 51 41 c 2
 51 698 l 2
 51 726 64 739 92 739 c 2
 218 739 l 2
 244 739 256 725 260 709 c 2
EndSplineSet
Position2: "'cpsp' Capital Spacing in Latin lookup 0 subtable" dx=7 dy=0 dh=14 dv=0
EndChar

StartChar: O
Encoding: 79 79 19
Width: 523
Flags: HMW
HStem: 0 139<151 265 258 265 265 285 258 325> 600 139<238 257 257 265>
VStem: 41 158<180 200 200 540> 325 158<0 157 200 540 540 560>
LayerCount: 2
Fore
SplineSet
482 583 m 2
 482 157 l 2
 482 65 419 0 325 0 c 2
 198 0 l 2
 104 0 41 64 41 158 c 2
 41 583 l 2
 41 676 106 739 199 739 c 2
 326 739 l 2
 419 739 482 676 482 583 c 2
325 200 m 2
 325 540 l 2
 325 580 305 600 265 600 c 2
 257 600 l 2
 218 600 199 580 199 540 c 2
 199 200 l 2
 199 160 218 139 258 139 c 2
 265 139 l 2
 305 139 325 160 325 200 c 2
EndSplineSet
Position2: "'cpsp' Capital Spacing in Latin lookup 0 subtable" dx=7 dy=0 dh=14 dv=0
EndChar

StartChar: P
Encoding: 80 80 20
Width: 488
Flags: HMW
HStem: 0 22G<79 93 93 168> 295 139<209 243 243 265 209 311 209 243> 600 139<222 227 227 247>
VStem: 51 158<41 42 42 295 434 582> 310 158<501 534 534 556>
LayerCount: 2
Fore
SplineSet
51 41 m 2
 51 698 l 2
 51 726 64 739 91 739 c 2
 311 739 l 2
 404 739 468 675 468 584 c 2
 468 452 l 2
 468 360 404 295 311 295 c 2
 209 295 l 1
 209 42 l 2
 209 14 196 0 168 0 c 2
 93 0 l 2
 65 0 51 13 51 41 c 2
209 582 m 2
 209 434 l 1
 243 434 l 2
 288 434 310 457 310 501 c 2
 310 534 l 2
 310 578 289 600 247 600 c 2
 227 600 l 2
 216 600 209 591 209 582 c 2
EndSplineSet
Position2: "'cpsp' Capital Spacing in Latin lookup 0 subtable" dx=7 dy=0 dh=14 dv=0
EndChar

StartChar: Q
Encoding: 81 81 21
Width: 523
Flags: HMW
HStem: -147 22G<215 229 229 293> -20 20G<148 184 184 186 337 339 337 337> 600 139<238 257 257 265>
VStem: 41 158<180 200 200 540> 186 151<-104 0 -119 0> 325 158<200 540 540 560>
LayerCount: 2
Fore
SplineSet
339 0 m 2xf4
 337 0 l 1
 337 -104 l 2
 337 -133 323 -147 293 -147 c 2
 229 -147 l 2
 200 -147 186 -133 186 -104 c 2
 186 0 l 1xe8
 184 0 l 2
 111 0 41 65 41 158 c 2
 41 583 l 2
 41 676 106 739 199 739 c 2
 326 739 l 2
 419 739 482 676 482 583 c 2
 482 157 l 2
 482 65 416 0 339 0 c 2xf4
199 540 m 2xf4
 199 200 l 2
 199 160 218 139 258 139 c 2
 265 139 l 2
 305 139 325 160 325 200 c 2
 325 540 l 2
 325 580 305 600 265 600 c 2
 257 600 l 2
 218 600 199 580 199 540 c 2xf4
EndSplineSet
Position2: "'cpsp' Capital Spacing in Latin lookup 0 subtable" dx=7 dy=0 dh=14 dv=0
EndChar

StartChar: R
Encoding: 82 82 22
Width: 519
Flags: HMW
HStem: 0 22G<79 93 93 168 355 368 368 447> 600 139<224 229 229 247>
VStem: 51 158<41 42 42 304 443 582> 310 158<511 534 534 556>
LayerCount: 2
Fore
SplineSet
91 739 m 2
 311 739 l 2
 404 739 468 675 468 584 c 2
 468 478 l 2
 468 429 442 375 384 347 c 1
 409 323 428 280 439 240 c 1
 487 46 l 1
 494 22 479 0 447 0 c 2
 368 0 l 2
 343 0 332 11 328 28 c 2
 272 273 l 2
 268 290 251 304 232 304 c 2
 209 304 l 1
 209 42 l 2
 209 14 196 0 168 0 c 2
 93 0 l 2
 65 0 51 13 51 41 c 2
 51 698 l 2
 51 726 64 739 91 739 c 2
247 600 m 2
 229 600 l 2
 218 600 209 591 209 582 c 2
 209 443 l 1
 243 443 l 2
 288 443 310 466 310 511 c 2
 310 534 l 2
 310 578 289 600 247 600 c 2
EndSplineSet
Position2: "'cpsp' Capital Spacing in Latin lookup 0 subtable" dx=7 dy=0 dh=14 dv=0
EndChar

StartChar: S
Encoding: 83 83 23
Width: 421
Flags: HMW
HStem: 0 139<66 176 80 176 176 199 80 245> 600 139<221 242 242 324>
VStem: 20 158<513 526 526 534 513 583 513 629> 244 158<206 213 213 227>
LayerCount: 2
Fore
SplineSet
216 270 m 2
 76 375 l 2
 42 400 20 434 20 486 c 2
 20 583 l 2
 20 676 85 739 177 739 c 2
 324 739 l 2
 352 739 365 726 365 698 c 2
 365 641 l 2
 365 613 352 600 324 600 c 2
 242 600 l 2
 200 600 178 578 178 534 c 2
 178 526 l 2
 178 498 189 481 206 469 c 2
 346 365 l 2
 380 340 401 305 401 253 c 2
 401 157 l 2
 401 65 338 0 245 0 c 2
 80 0 l 2
 52 0 39 13 39 41 c 2
 39 98 l 2
 39 126 52 139 80 139 c 2
 176 139 l 2
 221 139 244 162 244 206 c 2
 244 213 l 2
 244 241 233 258 216 270 c 2
EndSplineSet
Position2: "'cpsp' Capital Spacing in Latin lookup 0 subtable" dx=7 dy=0 dh=14 dv=0
EndChar

StartChar: T
Encoding: 84 84 24
Width: 490
Flags: HMW
HStem: 0 22G<193 207 207 283> 600 139<38 438 52 166 324 324 324 438>
VStem: 166 158<41 600>
LayerCount: 2
Fore
SplineSet
166 41 m 2
 166 600 l 1
 52 600 l 2
 24 600 11 613 11 641 c 2
 11 698 l 2
 11 726 24 739 52 739 c 2
 438 739 l 2
 466 739 479 726 479 698 c 2
 479 641 l 2
 479 613 466 600 438 600 c 2
 324 600 l 1
 324 41 l 2
 324 13 311 0 283 0 c 2
 207 0 l 2
 179 0 166 13 166 41 c 2
EndSplineSet
Position2: "'cpsp' Capital Spacing in Latin lookup 0 subtable" dx=7 dy=0 dh=14 dv=0
EndChar

StartChar: U
Encoding: 85 85 25
Width: 543
Flags: HMW
HStem: 0 139<161 275 268 275 275 295 268 335> 719 20G<92 168 168 182 376 452 452 465>
VStem: 51 158<180 200 200 698> 335 158<0 157 200 698>
LayerCount: 2
Fore
SplineSet
51 158 m 2
 51 698 l 2
 51 726 64 739 92 739 c 2
 168 739 l 2
 196 739 209 726 209 698 c 2
 209 200 l 2
 209 160 228 139 268 139 c 2
 275 139 l 2
 315 139 335 160 335 200 c 2
 335 698 l 2
 335 726 348 739 376 739 c 2
 452 739 l 2
 480 739 493 726 493 698 c 2
 493 157 l 2
 493 65 429 0 335 0 c 2
 208 0 l 2
 114 0 51 64 51 158 c 2
EndSplineSet
Position2: "'cpsp' Capital Spacing in Latin lookup 0 subtable" dx=7 dy=0 dh=14 dv=0
EndChar

StartChar: V
Encoding: 86 86 26
Width: 513
Flags: HMW
HStem: 0 22G<150 160 160 355> 719 20G<58 138 138 148 385 457 457 466>
LayerCount: 2
Fore
SplineSet
58 739 m 2
 138 739 l 2
 157 739 171 726 174 709 c 2
 261 129 l 1
 348 709 l 2
 351 726 366 739 385 739 c 2
 457 739 l 2
 476 739 497 722 493 697 c 2
 390 31 l 2
 387 11 374 0 355 0 c 2
 160 0 l 2
 141 0 127 14 124 31 c 2
 22 696 l 2
 18 724 38 739 58 739 c 2
EndSplineSet
Position2: "'cpsp' Capital Spacing in Latin lookup 0 subtable" dx=7 dy=0 dh=14 dv=0
EndChar

StartChar: W
Encoding: 87 87 27
Width: 731
Flags: HMW
HStem: 0 22G<106 117 117 271 449 459 459 614> 719 20G<57 131 131 141 322 410 410 419 600 674 674 684>
LayerCount: 2
Fore
SplineSet
422 34 m 2
 366 469 l 1
 309 34 l 2
 306 15 290 0 271 0 c 2
 117 0 l 2
 97 0 83 17 80 37 c 1
 20 702 l 1
 17 722 37 739 57 739 c 2
 131 739 l 2
 151 739 165 722 168 702 c 1
 213 155 l 1
 285 706 l 2
 288 725 303 739 322 739 c 2
 410 739 l 2
 429 739 443 725 446 706 c 2
 518 156 l 1
 563 702 l 1
 566 722 580 739 600 739 c 2
 674 739 l 2
 694 739 714 722 711 702 c 1
 651 37 l 1
 648 17 634 0 614 0 c 2
 459 0 l 2
 440 0 425 15 422 34 c 2
EndSplineSet
Position2: "'cpsp' Capital Spacing in Latin lookup 0 subtable" dx=7 dy=0 dh=14 dv=0
EndChar

StartChar: X
Encoding: 88 88 28
Width: 527
Flags: HMW
HStem: 0 22G 719 20G<57 150 150 157 388 460 460 471>
LayerCount: 2
Fore
SplineSet
57 739 m 2
 150 739 l 2
 165 739 176 730 183 718 c 1
 269 534 l 1
 355 718 l 1
 362 730 373 739 388 739 c 2
 460 739 l 2
 482 739 507 717 494 687 c 1
 340 381 l 1
 504 52 l 2
 515 30 500 0 470 0 c 2
 378 0 l 2
 363 0 351 10 344 22 c 1
 258 206 l 1
 173 22 l 2
 166 8 154 0 139 0 c 2
 68 0 l 2
 46 0 20 23 34 52 c 2
 187 358 l 1
 24 687 l 1
 16 706 26 739 57 739 c 2
EndSplineSet
Position2: "'cpsp' Capital Spacing in Latin lookup 0 subtable" dx=7 dy=0 dh=14 dv=0
EndChar

StartChar: Y
Encoding: 89 89 29
Width: 517
Flags: HMW
HStem: 0 22G<207 221 221 297> 719 20G<48 135 135 143 403 470 470 482>
VStem: 180 158<41 292>
LayerCount: 2
Fore
SplineSet
169 718 m 2
 269 462 l 1
 370 718 l 2
 374 729 388 739 403 739 c 2
 470 739 l 2
 494 739 515 716 503 687 c 2
 338 292 l 1
 338 41 l 2
 338 13 325 0 297 0 c 2
 221 0 l 2
 193 0 180 13 180 41 c 2
 180 292 l 1
 14 687 l 2
 5 711 19 739 48 739 c 2
 135 739 l 2
 151 739 165 729 169 718 c 2
EndSplineSet
Position2: "'cpsp' Capital Spacing in Latin lookup 0 subtable" dx=7 dy=0 dh=14 dv=0
EndChar

StartChar: Z
Encoding: 90 90 30
Width: 429
Flags: HMW
HStem: 0 139<48 368 161 368 161 368> 600 139<48 368 61 267>
LayerCount: 2
Fore
SplineSet
61 739 m 2
 368 739 l 2
 396 739 409 726 409 698 c 2
 409 557 l 2
 409 550 406 542 401 535 c 2
 161 139 l 1
 368 139 l 2
 396 139 409 126 409 98 c 2
 409 41 l 2
 409 13 396 0 368 0 c 2
 61 0 l 2
 33 0 20 13 20 41 c 2
 20 181 l 2
 20 186 23 196 26 201 c 2
 267 600 l 1
 61 600 l 2
 33 600 20 613 20 641 c 2
 20 698 l 2
 20 726 33 739 61 739 c 2
EndSplineSet
Position2: "'cpsp' Capital Spacing in Latin lookup 0 subtable" dx=7 dy=0 dh=14 dv=0
EndChar

StartChar: bracketleft
Encoding: 91 91 31
Width: 328
Flags: HMW
HStem: -148 139<78 267 228 267 228 267> 706 139<223 228 228 267>
VStem: 51 158<5 10 10 686>
LayerCount: 2
Fore
SplineSet
92 845 m 2
 267 845 l 2
 295 845 308 832 308 804 c 2
 308 746 l 2
 308 718 295 706 267 706 c 2
 228 706 l 2
 217 706 209 697 209 686 c 2
 209 10 l 2
 209 -1 217 -9 228 -9 c 2
 267 -9 l 2
 295 -9 308 -22 308 -50 c 2
 308 -108 l 2
 308 -136 295 -148 267 -148 c 2
 92 -148 l 2
 64 -148 51 -136 51 -108 c 2
 51 804 l 2
 51 832 64 845 92 845 c 2
EndSplineSet
EndChar

StartChar: backslash
Encoding: 92 92 32
Width: 420
Flags: HMW
HStem: -148 22G<302 315 315 378> 793 20G<33 95 95 109>
LayerCount: 2
Fore
SplineSet
147 772 m 2
 407 -108 l 2
 415 -136 406 -148 378 -148 c 2
 315 -148 l 2
 287 -148 270 -136 262 -108 c 2
 3 772 l 2
 -5 800 5 813 33 813 c 2
 95 813 l 2
 122 813 139 800 147 772 c 2
EndSplineSet
EndChar

StartChar: bracketright
Encoding: 93 93 33
Width: 328
Flags: HMW
HStem: -148 139<48 100 61 100 100 106 61 237> 706 139<48 237 61 100>
VStem: 120 158<10 686 686 692>
LayerCount: 2
Fore
SplineSet
61 845 m 2
 237 845 l 2
 265 845 278 832 278 804 c 2
 278 -108 l 2
 278 -136 265 -148 237 -148 c 2
 61 -148 l 2
 33 -148 20 -136 20 -108 c 2
 20 -50 l 2
 20 -22 33 -9 61 -9 c 2
 100 -9 l 2
 111 -9 120 -1 120 10 c 2
 120 686 l 2
 120 697 111 706 100 706 c 2
 61 706 l 2
 33 706 20 718 20 746 c 2
 20 804 l 2
 20 832 33 845 61 845 c 2
EndSplineSet
EndChar

StartChar: asciicircum
Encoding: 94 94 34
Width: 428
Flags: HMW
HStem: 296 22G<69 79 79 138 285 295 295 351> 719 20G<135 295 295 305>
LayerCount: 2
Fore
SplineSet
138 296 m 2
 79 296 l 2
 59 296 38 311 42 339 c 2
 99 709 l 2
 102 726 116 739 135 739 c 2
 295 739 l 2
 314 739 327 729 330 709 c 2
 387 338 l 2
 391 313 370 296 351 296 c 2
 295 296 l 2
 276 296 261 310 258 327 c 2
 216 610 l 1
 174 327 l 2
 171 310 157 296 138 296 c 2
EndSplineSet
EndChar

StartChar: underscore
Encoding: 95 95 35
Width: 478
Flags: HMW
HStem: -174 100<37 427 51 427>
LayerCount: 2
Fore
SplineSet
10 -133 m 2
 10 -115 l 2
 10 -87 23 -74 51 -74 c 2
 427 -74 l 2
 455 -74 468 -87 468 -115 c 2
 468 -133 l 2
 468 -161 455 -174 427 -174 c 2
 51 -174 l 2
 23 -174 10 -161 10 -133 c 2
EndSplineSet
EndChar

StartChar: a
Encoding: 97 97 36
Width: 470
Flags: HMW
HStem: -20 20G<280 376 280 280> -3 22G<118 148> 378 139<98 302 112 218>
VStem: 51 146<139 150 150 181 139 232 139 263> 261 158<25 43 118 213 213 213 305 335 335 351>
LayerCount: 2
Fore
SplineSet
112 517 m 2x78
 302 517 l 2
 375 517 419 477 419 395 c 2
 419 43 l 2
 419 14 405 0 376 0 c 2
 280 0 l 1xb8
 261 25 l 1
 171 1 l 2
 162 -2 151 -3 144 -3 c 0
 92 -3 51 36 51 97 c 2
 51 232 l 2
 51 293 92 333 144 333 c 0
 151 333 162 332 171 329 c 2
 261 305 l 1
 261 335 l 2
 261 367 248 378 218 378 c 2
 112 378 l 2
 84 378 71 391 71 419 c 2
 71 476 l 2
 71 504 84 517 112 517 c 2x78
261 213 m 1
 229 213 l 2
 207 213 198 203 198 181 c 2
 198 150 l 2
 198 128 207 118 229 118 c 2
 261 118 l 1
 261 213 l 1
EndSplineSet
Substitution2: "Single Substitution lookup 6 subtable" ordfeminine
EndChar

StartChar: b
Encoding: 98 98 37
Width: 479
Flags: HMW
HStem: -20 20G<80 94 94 190> -3 22G<332 362> 497 20G<332 363> 793 20G<92 168 168 182>
VStem: 51 158<25 136 136 378 489 772> 270 158<164 350 350 358>
LayerCount: 2
Fore
SplineSet
92 813 m 2xbc
 168 813 l 2
 196 813 209 800 209 772 c 2
 209 489 l 1
 308 514 l 1
 315 517 329 517 336 517 c 0
 390 517 428 478 428 417 c 2
 428 97 l 2
 428 36 388 -3 336 -3 c 0x7c
 328 -3 317 -2 308 1 c 2
 209 25 l 1
 190 0 l 1
 94 0 l 2
 65 0 51 14 51 43 c 2
 51 772 l 2
 51 800 64 813 92 813 c 2xbc
242 378 m 2
 209 378 l 1
 209 136 l 1
 242 136 l 2
 258 136 270 147 270 164 c 2
 270 350 l 2
 270 365 258 378 242 378 c 2
EndSplineSet
EndChar

StartChar: c
Encoding: 99 99 38
Width: 354
Flags: HMW
HStem: 0 139<121 293 253 293 253 293> 378 139<238 253 253 293>
VStem: 51 158<168 182 182 335 168 417>
LayerCount: 2
Fore
SplineSet
51 100 m 2
 51 417 l 2
 51 478 91 517 152 517 c 2
 293 517 l 2
 321 517 334 504 334 476 c 2
 334 419 l 2
 334 391 321 378 293 378 c 2
 253 378 l 2
 223 378 209 364 209 335 c 2
 209 182 l 2
 209 153 223 139 253 139 c 2
 293 139 l 2
 321 139 334 126 334 98 c 2
 334 41 l 2
 334 13 321 0 293 0 c 2
 152 0 l 2
 91 0 51 39 51 100 c 2
EndSplineSet
EndChar

StartChar: d
Encoding: 100 100 39
Width: 479
Flags: HMW
HStem: -20 20G<289 385 289 289> -3 22G<117 147> 497 20G<116 147> 793 20G<311 387 387 401>
VStem: 51 158<158 167 167 353> 270 158<25 43 139 381 381 381 489 772>
LayerCount: 2
Fore
SplineSet
311 813 m 2x7c
 387 813 l 2
 415 813 428 800 428 772 c 2
 428 43 l 2
 428 14 414 0 385 0 c 2
 289 0 l 1xbc
 270 25 l 1
 171 1 l 1
 163 -2 151 -3 143 -3 c 0
 91 -3 51 36 51 96 c 2
 51 417 l 2
 51 478 89 517 143 517 c 0
 151 517 163 517 171 514 c 2
 270 489 l 1
 270 772 l 2
 270 800 283 813 311 813 c 2x7c
270 381 m 1
 238 381 l 2
 222 381 209 368 209 353 c 2
 209 167 l 2
 209 150 222 139 238 139 c 2
 270 139 l 1
 270 381 l 1
EndSplineSet
EndChar

StartChar: e
Encoding: 101 101 40
Width: 459
Flags: HMW
HStem: 0 139<121 341 253 341 253 341> 497 20G<152 318 318 349>
VStem: 51 158<163 177 177 185 163 278 278 357> 272 146<317 357 357 364>
LayerCount: 2
Fore
SplineSet
51 100 m 2
 51 417 l 2
 51 478 91 517 152 517 c 2
 318 517 l 2
 379 517 419 478 419 417 c 2
 419 286 l 2
 419 224 379 185 318 185 c 2
 209 185 l 1
 209 177 l 2
 209 149 224 139 253 139 c 2
 341 139 l 2
 369 139 382 126 382 98 c 2
 382 41 l 2
 382 13 369 0 341 0 c 2
 152 0 l 2
 91 0 51 39 51 100 c 2
209 357 m 2
 209 278 l 1
 255 292 l 2
 267 296 272 306 272 317 c 2
 272 357 l 2
 272 370 260 383 249 383 c 2
 236 383 l 2
 223 383 209 372 209 357 c 2
EndSplineSet
EndChar

StartChar: f
Encoding: 102 102 41
Width: 362
Flags: HMW
HStem: 0 22G<132 145 145 221> 378 139<58 104 72 104 262 291> 674 139<291 305 305 310>
VStem: 104 158<41 378 517 631> 104 247<517 715 701 715 715 729>
LayerCount: 2
Fore
SplineSet
72 517 m 2xf0
 104 517 l 1
 104 690 l 2
 104 768 152 813 222 813 c 2
 310 813 l 2
 338 813 351 800 351 772 c 2
 351 715 l 2xe8
 351 687 338 674 310 674 c 2
 305 674 l 2
 276 674 262 660 262 631 c 2
 262 517 l 1
 291 517 l 2
 319 517 332 504 332 476 c 2
 332 419 l 2
 332 391 319 378 291 378 c 2
 262 378 l 1
 262 41 l 2
 262 13 249 0 221 0 c 2
 145 0 l 2
 117 0 104 13 104 41 c 2
 104 378 l 1
 72 378 l 2
 44 378 31 391 31 419 c 2
 31 476 l 2
 31 504 44 517 72 517 c 2xf0
EndSplineSet
EndChar

StartChar: g
Encoding: 103 103 42
Width: 479
Flags: HMW
HStem: -222 139<134 226 147 226 226 241 147 311> -20 20G<117 148> 497 20G<289 385 385 399> 500 20G<117 148>
VStem: 51 158<159 167 167 350> 270 158<-40 28 28 28 139 378 378 378>
LayerCount: 2
Fore
SplineSet
428 474 m 2xec
 428 -99 l 2
 428 -177 380 -222 311 -222 c 2
 147 -222 l 2
 119 -222 106 -209 106 -181 c 2
 106 -124 l 2
 106 -96 119 -83 147 -83 c 2
 226 -83 l 2
 256 -83 270 -69 270 -40 c 2
 270 28 l 1
 171 3 l 2
 163 1 153 0 143 0 c 0
 91 0 51 39 51 100 c 2
 51 421 l 2
 51 481 91 520 143 520 c 0xdc
 152 520 163 519 171 516 c 1
 270 493 l 1
 289 517 l 1
 385 517 l 2
 414 517 428 503 428 474 c 2xec
209 350 m 2
 209 167 l 2
 209 152 222 139 237 139 c 2
 270 139 l 1
 270 378 l 1
 237 378 l 2
 222 378 209 365 209 350 c 2
EndSplineSet
EndChar

StartChar: h
Encoding: 104 104 43
Width: 479
Flags: HMW
HStem: 0 22G<78 92 92 168 297 311 311 387> 497 20G<331 363> 793 20G<92 168 168 182>
VStem: 51 158<41 378 489 772> 270 158<41 350 350 358>
LayerCount: 2
Fore
SplineSet
51 41 m 2
 51 772 l 2
 51 800 64 813 92 813 c 2
 168 813 l 2
 196 813 209 800 209 772 c 2
 209 489 l 1
 308 514 l 2
 317 516 327 517 336 517 c 0
 390 517 428 478 428 417 c 2
 428 41 l 2
 428 13 415 0 387 0 c 2
 311 0 l 2
 283 0 270 13 270 41 c 2
 270 350 l 2
 270 365 258 378 243 378 c 2
 209 378 l 1
 209 41 l 2
 209 13 196 0 168 0 c 2
 92 0 l 2
 64 0 51 13 51 41 c 2
EndSplineSet
EndChar

StartChar: i
Encoding: 105 105 44
Width: 253
Flags: HMW
HStem: 0 22G<75 89 89 165> 497 20G<89 165 165 179> 615 144<72 168 86 168>
VStem: 48 158<41 476>
LayerCount: 2
Fore
SplineSet
48 41 m 2
 48 476 l 2
 48 504 61 517 89 517 c 2
 165 517 l 2
 193 517 206 504 206 476 c 2
 206 41 l 2
 206 13 193 0 165 0 c 2
 89 0 l 2
 61 0 48 13 48 41 c 2
45 656 m 2
 45 719 l 2
 45 747 58 760 86 760 c 2
 168 760 l 2
 196 760 209 747 209 719 c 2
 209 656 l 2
 209 628 196 615 168 615 c 2
 86 615 l 2
 58 615 45 628 45 656 c 2
EndSplineSet
EndChar

StartChar: j
Encoding: 106 106 45
Width: 260
Flags: HMW
HStem: -222 22G<7 20 20 82> 497 20G<95 171 171 185> 615 144<78 174 92 174>
VStem: -20 232<-138 -124 -124 -110> 54 158<-46 476>
LayerCount: 2
Fore
SplineSet
54 -46 m 2xe8
 54 476 l 2xe8
 54 504 67 517 95 517 c 2
 171 517 l 2
 199 517 212 504 212 476 c 2
 212 -102 l 2
 212 -173 154 -222 82 -222 c 2
 20 -222 l 2
 -8 -222 -20 -209 -20 -181 c 2
 -20 -124 l 2xf0
 -20 -96 -8 -83 16 -83 c 2
 18 -83 l 2
 37 -83 54 -66 54 -46 c 2xe8
51 656 m 2
 51 719 l 2
 51 747 64 760 92 760 c 2
 174 760 l 2
 202 760 215 747 215 719 c 2
 215 656 l 2
 215 628 202 615 174 615 c 2
 92 615 l 2
 64 615 51 628 51 656 c 2
EndSplineSet
EndChar

StartChar: k
Encoding: 107 107 46
Width: 479
Flags: HMW
HStem: 0 22G<78 92 92 168 317 326 326 412> 497 20G<324 411 411 420> 793 20G<92 168 168 182>
VStem: 51 158<41 194 333 772>
LayerCount: 2
Fore
SplineSet
92 813 m 2
 168 813 l 2
 196 813 209 800 209 772 c 2
 209 333 l 1
 216 333 l 2
 235 333 252 348 256 365 c 2
 288 489 l 2
 292 505 307 517 324 517 c 2
 411 517 l 2
 430 517 452 499 445 471 c 2
 414 343 l 2
 406 310 387 283 362 263 c 1
 388 243 406 216 414 184 c 2
 447 47 l 2
 454 19 442 0 412 0 c 2
 326 0 l 2
 309 0 294 12 290 28 c 2
 256 162 l 2
 251 184 237 194 217 194 c 2
 209 194 l 1
 209 41 l 2
 209 13 196 0 168 0 c 2
 92 0 l 2
 64 0 51 13 51 41 c 2
 51 772 l 2
 51 800 64 813 92 813 c 2
EndSplineSet
EndChar

StartChar: l
Encoding: 108 108 47
Width: 260
Flags: HMW
HStem: 0 22G<78 92 92 168> 793 20G<92 168 168 182>
VStem: 51 158<41 772>
LayerCount: 2
Fore
SplineSet
92 813 m 2
 168 813 l 2
 196 813 209 800 209 772 c 2
 209 41 l 2
 209 13 196 0 168 0 c 2
 92 0 l 2
 64 0 51 13 51 41 c 2
 51 772 l 2
 51 800 64 813 92 813 c 2
EndSplineSet
EndChar

StartChar: m
Encoding: 109 109 48
Width: 661
Flags: HMW
HStem: 0 22G<78 92 92 168 283 296 296 365 480 494 494 569> 497 20G<89 190 190 190> 500 20G<312 331 514 544>
VStem: 51 158<41 381> 256 150<41 353 353 361> 453 158<41 353 353 361>
CounterMasks: 1 1c
LayerCount: 2
Fore
SplineSet
387 483 m 1xbc
 488 516 l 2
 497 519 509 520 518 520 c 0xbc
 570 520 610 481 610 420 c 2
 610 41 l 2
 610 13 597 0 569 0 c 2
 494 0 l 2
 466 0 453 13 453 41 c 2
 453 353 l 2
 453 368 441 381 425 381 c 2
 403 381 l 1
 404 380 406 377 406 372 c 2
 406 41 l 2
 406 13 393 0 365 0 c 2
 296 0 l 2
 269 0 256 13 256 41 c 2
 256 353 l 2
 256 368 243 381 228 381 c 2
 209 381 l 1
 209 41 l 2
 209 13 196 0 168 0 c 2
 92 0 l 2
 64 0 51 13 51 41 c 2
 51 480 l 2
 51 502 67 517 89 517 c 2
 190 517 l 1xdc
 209 493 l 1
 288 516 l 2
 296 519 306 520 317 520 c 0
 345 520 371 505 387 483 c 1xbc
EndSplineSet
EndChar

StartChar: n
Encoding: 110 110 49
Width: 479
Flags: HMW
HStem: 0 22G<78 92 92 168 297 311 311 387> 497 20G<88 190 190 190> 500 20G<331 362>
VStem: 51 158<41 381> 270 158<41 353 353 362>
LayerCount: 2
Fore
SplineSet
51 41 m 2xb8
 51 480 l 2
 51 500 68 517 88 517 c 2
 190 517 l 1xd8
 209 493 l 1
 308 516 l 2
 317 519 327 520 336 520 c 0
 388 520 428 481 428 420 c 2
 428 41 l 2
 428 13 415 0 387 0 c 2
 311 0 l 2
 283 0 270 13 270 41 c 2
 270 353 l 2
 270 370 258 381 242 381 c 2
 209 381 l 1
 209 41 l 2
 209 13 196 0 168 0 c 2
 92 0 l 2
 64 0 51 13 51 41 c 2xb8
EndSplineSet
EndChar

StartChar: o
Encoding: 111 111 50
Width: 496
Flags: HMW
HStem: 0 22G<121 152 152 345> 497 20G<152 345 345 376>
VStem: 51 158<168 182 182 335 168 417> 288 158<182 335 335 349>
LayerCount: 2
Fore
SplineSet
345 0 m 2
 152 0 l 2
 91 0 51 39 51 100 c 2
 51 417 l 2
 51 478 91 517 152 517 c 2
 345 517 l 2
 406 517 445 478 445 417 c 2
 445 100 l 2
 445 39 406 0 345 0 c 2
288 182 m 2
 288 335 l 2
 288 363 270 378 250 378 c 2
 246 378 l 2
 226 378 209 363 209 335 c 2
 209 182 l 2
 209 154 226 139 246 139 c 2
 250 139 l 2
 270 139 288 154 288 182 c 2
EndSplineSet
Substitution2: "Single Substitution lookup 6 subtable" ordmasculine
EndChar

StartChar: p
Encoding: 112 112 51
Width: 479
Flags: HMW
HStem: -222 22G<78 92 92 168> -20 20G<330 363> 497 20G<94 190 190 190> 500 20G<330 362>
VStem: 51 158<-182 -181 -181 28 139 381> 270 158<167 353 353 362>
LayerCount: 2
Fore
SplineSet
428 420 m 2xdc
 428 100 l 2
 428 39 390 0 336 0 c 0
 325 0 309 2 300 5 c 2
 209 28 l 1
 209 -181 l 2
 209 -209 196 -222 168 -222 c 2
 92 -222 l 2
 64 -222 51 -209 51 -182 c 2
 51 474 l 2
 51 503 65 517 94 517 c 2
 190 517 l 1xec
 209 493 l 1
 308 516 l 2
 317 519 325 520 336 520 c 0
 388 520 428 481 428 420 c 2xdc
270 167 m 2
 270 353 l 2
 270 370 258 381 242 381 c 2
 209 381 l 1
 209 139 l 1
 242 139 l 2
 258 139 270 152 270 167 c 2
EndSplineSet
EndChar

StartChar: q
Encoding: 113 113 52
Width: 479
Flags: HMW
HStem: -222 22G<297 311 311 387> -20 20G<116 149> 497 20G<289 385 385 399> 500 20G<118 149>
VStem: 51 158<159 167 167 353> 270 158<-181 28 28 28 139 381 381 381>
LayerCount: 2
Fore
SplineSet
51 100 m 2xec
 51 420 l 2
 51 481 93 520 143 520 c 0xdc
 154 520 162 519 171 516 c 2
 270 493 l 1
 289 517 l 1
 385 517 l 2
 414 517 428 503 428 474 c 2
 428 -182 l 2
 428 -209 415 -222 387 -222 c 2
 311 -222 l 2
 283 -222 270 -209 270 -181 c 2
 270 28 l 1
 179 5 l 2
 170 2 154 0 143 0 c 0
 89 0 51 39 51 100 c 2xec
209 353 m 2
 209 167 l 2
 209 152 223 139 238 139 c 2
 270 139 l 1
 270 381 l 1
 238 381 l 2
 222 381 209 370 209 353 c 2
EndSplineSet
EndChar

StartChar: r
Encoding: 114 114 53
Width: 331
Flags: HMW
HStem: 0 22G<78 92 92 168> 497 20G<92 189 189 189>
VStem: 51 158<41 362>
LayerCount: 2
Fore
SplineSet
284 362 m 2
 209 362 l 1
 209 41 l 2
 209 13 196 0 168 0 c 2
 92 0 l 2
 64 0 51 13 51 41 c 2
 51 476 l 2
 51 504 64 517 92 517 c 2
 189 517 l 1
 209 474 l 1
 261 513 l 2
 280 526 321 519 321 483 c 2
 321 399 l 2
 321 377 306 362 284 362 c 2
EndSplineSet
EndChar

StartChar: s
Encoding: 115 115 54
Width: 382
Flags: HMW
HStem: 0 139<76 176 90 176 176 182 90 253> 378 139<201 207 207 293>
LayerCount: 2
Fore
SplineSet
185 174 m 2
 75 264 l 2
 47 288 31 307 31 343 c 2
 31 417 l 2
 31 478 70 517 131 517 c 2
 293 517 l 2
 321 517 334 504 334 476 c 2
 334 419 l 2
 334 391 321 378 293 378 c 2
 207 378 l 2
 196 378 188 368 188 360 c 2
 188 359 l 2
 188 350 193 348 198 344 c 2
 308 253 l 2
 337 229 352 210 352 174 c 2
 352 100 l 2
 352 39 313 0 253 0 c 2
 90 0 l 2
 62 0 49 13 49 41 c 2
 49 98 l 2
 49 126 62 139 90 139 c 2
 176 139 l 2
 187 139 195 149 195 158 c 2
 195 159 l 2
 195 164 191 169 185 174 c 2
EndSplineSet
EndChar

StartChar: t
Encoding: 116 116 55
Width: 335
Flags: HMW
HStem: 0 139<161 284 279 284 279 284> 378 139<58 78 72 78 236 264> 645 20G<119 195 195 208>
VStem: 78 247<27 378>
LayerCount: 2
Fore
SplineSet
78 123 m 2
 78 378 l 1
 72 378 l 2
 44 378 31 391 31 419 c 2
 31 476 l 2
 31 504 44 517 72 517 c 2
 78 517 l 1
 78 625 l 2
 78 653 91 666 119 666 c 2
 195 666 l 2
 223 666 236 653 236 625 c 2
 236 517 l 1
 264 517 l 2
 292 517 305 504 305 476 c 2
 305 419 l 2
 305 391 292 378 264 378 c 2
 236 378 l 1
 236 182 l 2xf0
 236 153 250 139 279 139 c 2
 284 139 l 2
 312 139 325 126 325 98 c 2
 325 41 l 2
 325 13 312 0 284 0 c 2
 196 0 l 2
 126 0 78 45 78 123 c 2
EndSplineSet
EndChar

StartChar: u
Encoding: 117 117 56
Width: 479
Flags: HMW
HStem: -20 20G<289 391 289 289> -3 22G<117 148> 497 20G<92 168 168 182 311 387 387 401>
VStem: 51 158<155 164 164 476> 270 158<25 37 136 476>
LayerCount: 2
Fore
SplineSet
428 476 m 2x78
 428 37 l 2
 428 17 411 0 391 0 c 2
 289 0 l 1xb8
 270 25 l 1
 171 1 l 2
 162 -2 152 -3 143 -3 c 0
 91 -3 51 36 51 97 c 2
 51 476 l 2
 51 504 64 517 92 517 c 2
 168 517 l 2
 196 517 209 504 209 476 c 2
 209 164 l 2
 209 147 222 136 237 136 c 2
 270 136 l 1
 270 476 l 2
 270 504 283 517 311 517 c 2
 387 517 l 2
 415 517 428 504 428 476 c 2x78
EndSplineSet
EndChar

StartChar: v
Encoding: 118 118 57
Width: 434
Flags: HMW
HStem: 0 22G<111 120 120 314> 497 20G<57 134 134 144 302 377 377 387>
LayerCount: 2
Fore
SplineSet
57 517 m 2
 134 517 l 2
 153 517 168 504 171 487 c 2
 218 129 l 1
 266 487 l 2
 269 504 285 517 302 517 c 2
 377 517 l 2
 397 517 417 499 414 474 c 2
 350 31 l 2
 347 14 333 0 314 0 c 2
 120 0 l 2
 103 0 87 12 84 31 c 2
 20 473 l 2
 17 497 33 517 57 517 c 2
EndSplineSet
EndChar

StartChar: w
Encoding: 119 119 58
Width: 627
Flags: HMW
HStem: 0 22G<94 102 102 248 372 380 380 526> 497 20G<52 137 137 146 283 347 347 355 492 577 577 585>
LayerCount: 2
Fore
SplineSet
349 24 m 1
 313 296 l 1
 280 24 l 1
 277 11 263 0 248 0 c 2
 102 0 l 2
 85 0 74 11 71 26 c 1
 20 492 l 2
 19 507 35 517 52 517 c 2
 137 517 l 2
 154 517 168 507 169 492 c 2
 204 137 l 1
 251 494 l 1
 254 507 266 517 283 517 c 2
 347 517 l 2
 363 517 375 507 378 494 c 1
 425 135 l 1
 460 492 l 2
 461 507 475 517 492 517 c 2
 577 517 l 2
 593 517 608 507 607 492 c 2
 557 26 l 1
 554 11 542 0 526 0 c 2
 380 0 l 2
 365 0 352 11 349 24 c 1
EndSplineSet
EndChar

StartChar: x
Encoding: 120 120 59
Width: 457
Flags: HMW
HStem: 0 22G<47 59 59 141 311 317 317 400> 497 20G
LayerCount: 2
Fore
SplineSet
65 517 m 2
 143 517 l 2
 157 517 169 510 176 496 c 2
 229 398 l 1
 284 497 l 2
 291 510 302 517 317 517 c 2
 406 517 l 2
 430 517 447 493 431 465 c 2
 307 260 l 1
 433 52 l 2
 446 28 428 0 400 0 c 2
 317 0 l 2
 304 0 293 9 284 24 c 2
 229 121 l 1
 176 24 l 2
 167 9 155 0 141 0 c 2
 59 0 l 2
 34 0 10 25 26 52 c 2
 153 260 l 1
 28 464 l 2
 13 488 29 517 65 517 c 2
EndSplineSet
EndChar

StartChar: y
Encoding: 121 121 60
Width: 434
Flags: HMW
HStem: -222 22G<203 214 214 285> -20 20G<110 120 120 203> 497 20G<57 135 135 145 302 376 376 387>
LayerCount: 2
Fore
SplineSet
57 517 m 2
 135 517 l 2
 154 517 168 504 171 487 c 2
 218 129 l 1
 266 487 l 2
 269 504 285 517 302 517 c 2
 376 517 l 2
 398 517 418 500 414 474 c 2
 318 -191 l 2
 315 -211 304 -222 285 -222 c 2
 214 -222 l 2
 192 -222 171 -202 175 -177 c 2
 203 0 l 1
 120 0 l 2
 101 0 87 12 84 31 c 2
 20 473 l 2
 17 497 33 517 57 517 c 2
EndSplineSet
EndChar

StartChar: z
Encoding: 122 122 61
Width: 401
Flags: HMW
HStem: 0 139<48 340 191 340 191 340> 378 139<48 340 61 210>
LayerCount: 2
Fore
SplineSet
61 517 m 2
 340 517 l 2
 368 517 381 504 381 476 c 2
 381 359 l 2
 381 350 376 339 373 336 c 2
 191 139 l 1
 340 139 l 2
 368 139 381 126 381 98 c 2
 381 41 l 2
 381 13 368 0 340 0 c 2
 61 0 l 2
 33 0 20 13 20 41 c 2
 20 159 l 2
 20 168 24 175 29 182 c 1
 210 378 l 1
 61 378 l 2
 33 378 20 391 20 419 c 2
 20 476 l 2
 20 504 33 517 61 517 c 2
EndSplineSet
EndChar

StartChar: braceleft
Encoding: 123 123 62
Width: 399
Flags: HMW
HStem: -148 139<215 339 323 338> 279 139<48 63 61 63 63 65> 706 139<308 323 323 338>
VStem: 132 147<19 34 34 172 19 212 485 525 525 663> 132 247<-121 212 733 746 746 761>
CounterMasks: 1 e0
LayerCount: 2
Fore
SplineSet
250 845 m 2xe8
 338 845 l 2
 366 845 379 832 379 804 c 2
 379 746 l 2xe8
 379 718 366 706 338 706 c 2
 323 706 l 2
 294 706 280 692 280 663 c 2
 280 525 l 2
 280 440 236 378 170 349 c 1
 236 319 280 257 280 172 c 2
 280 34 l 2xf0
 280 5 294 -9 323 -9 c 2
 339 -9 l 2
 366 -9 379 -22 379 -50 c 2
 379 -108 l 2
 379 -136 366 -148 338 -148 c 2
 250 -148 l 2
 180 -148 132 -104 132 -26 c 2
 132 212 l 2
 132 252 107 279 65 279 c 2
 61 279 l 2
 33 279 20 293 20 321 c 2
 20 377 l 2
 20 405 33 418 61 418 c 2
 63 418 l 2
 107 418 132 443 132 485 c 2
 132 722 l 2
 132 800 180 845 250 845 c 2xe8
EndSplineSet
EndChar

StartChar: bar
Encoding: 124 124 63
Width: 260
Flags: HMW
HStem: -222 22G<78 92 92 168> 824 20G<92 168 168 182>
VStem: 51 158<-181 804>
LayerCount: 2
Fore
SplineSet
51 -181 m 2
 51 804 l 2
 51 832 64 845 92 845 c 2
 168 845 l 2
 196 845 209 832 209 804 c 2
 209 -181 l 2
 209 -209 196 -222 168 -222 c 2
 92 -222 l 2
 64 -222 51 -209 51 -181 c 2
EndSplineSet
EndChar

StartChar: braceright
Encoding: 125 125 64
Width: 400
Flags: HMW
HStem: -148 139<60 61 61 77 77 91 60 150> 279 139<314 339 336 339 336 339> 706 139<48 150 61 77>
VStem: 20 247<-65 -50 -50 -36> 120 147<34 172 172 212 525 663 663 677>
CounterMasks: 1 e0
LayerCount: 2
Fore
SplineSet
61 845 m 2xf0
 150 845 l 2
 220 845 267 800 267 722 c 2
 267 485 l 2
 267 443 292 418 336 418 c 2
 339 418 l 2
 367 418 380 405 380 377 c 2
 380 321 l 2
 380 293 367 279 339 279 c 2
 335 279 l 2
 293 279 267 252 267 212 c 2
 267 -26 l 2
 267 -104 220 -148 150 -148 c 2
 61 -148 l 2
 33 -148 20 -136 20 -108 c 2
 20 -50 l 2xf0
 20 -22 33 -9 60 -9 c 2
 77 -9 l 2
 106 -9 120 5 120 34 c 2
 120 172 l 2
 120 257 163 319 229 349 c 1
 163 378 120 440 120 525 c 2
 120 663 l 2xe8
 120 692 106 706 77 706 c 2
 61 706 l 2
 33 706 20 718 20 746 c 2
 20 804 l 2
 20 832 33 845 61 845 c 2xf0
EndSplineSet
EndChar

StartChar: asciitilde
Encoding: 126 126 65
Width: 570
Flags: W
LayerCount: 2
Fore
SplineSet
46 227 m 2
 82 292 l 2
 115 351 226 380 317 311 c 1
 333 300 l 2
 355 285 369 285 377 300 c 2
 385 314 l 2
 397 333 406 337 421 337 c 2
 506 337 l 2
 525 337 535 319 524 299 c 2
 488 233 l 2
 455 174 344 145 253 214 c 1
 233 228 l 2
 216 241 203 240 194 225 c 2
 185 211 l 2
 174 192 165 188 150 188 c 2
 63 188 l 2
 44 188 35 208 46 227 c 2
EndSplineSet
EndChar

StartChar: ff
Encoding: 64256 64256 66
Width: 602
Flags: HMW
HStem: 0 22G<132 145 145 221 371 385 385 461> 378 139<58 104 72 104 262 344 502 530> 674 142
VStem: 104 158<40 41 41 378 517 649> 344 158<41 378 517 631>
LayerCount: 2
Fore
SplineSet
292 810 m 2
 385 788 l 1
 410 807 437 813 462 813 c 2
 550 813 l 2
 578 813 591 800 591 772 c 2
 591 715 l 2
 591 687 578 674 550 674 c 2
 545 674 l 2
 516 674 502 660 502 631 c 2
 502 517 l 1
 530 517 l 2
 558 517 571 504 571 476 c 2
 571 419 l 2
 571 394 556 378 530 378 c 2
 502 378 l 1
 502 41 l 2
 502 13 489 0 461 0 c 2
 385 0 l 2
 357 0 344 13 344 41 c 2
 344 378 l 1
 262 378 l 1
 262 41 l 2
 262 13 249 0 221 0 c 2
 145 0 l 2
 117 0 104 13 104 40 c 2
 104 378 l 1
 72 378 l 2
 44 378 31 391 31 418 c 2
 31 477 l 2
 31 504 44 517 72 517 c 2
 104 517 l 1
 104 698 l 2
 104 777 164 816 224 816 c 0
 256 816 270 815 292 810 c 2
346 677 m 1
 291 677 l 2
 275 677 262 666 262 649 c 2
 262 517 l 1
 344 517 l 1
 344 668 l 2
 344 671 345 674 346 677 c 1
EndSplineSet
Ligature2: "'liga' Standard Ligatures in Latin lookup 2 subtable" f f
EndChar

StartChar: ft
Encoding: 57348 57348 67
Width: 602
Flags: HMW
HStem: 0 139<427 551 545 550> 378 139<57 104 72 104 72 104 262 344 502 530> 674 139<291 305 305 310 310 311>
VStem: 104 158<41 378 517 631> 104 247<517 715 701 715 715 730> 344 158<168 182 182 378 517 625> 344 247<27 378>
LayerCount: 2
Fore
SplineSet
221 813 m 2xf4
 310 813 l 2
 338 813 351 800 351 772 c 2
 351 715 l 2xe8
 351 687 338 674 311 674 c 2
 305 674 l 2
 276 674 262 660 262 631 c 2
 262 517 l 1
 344 517 l 1
 344 626 l 2
 344 653 357 666 385 666 c 2
 461 666 l 2
 489 666 502 653 502 625 c 2
 502 517 l 1
 530 517 l 2
 558 517 571 504 571 476 c 2
 571 419 l 2
 571 391 558 378 530 378 c 2
 502 378 l 1
 502 182 l 2xf4
 502 153 516 139 545 139 c 2
 551 139 l 2
 576 139 591 126 591 98 c 2
 591 41 l 2xf2
 591 13 578 0 550 0 c 2
 462 0 l 2
 392 0 344 45 344 123 c 2
 344 378 l 1
 262 378 l 1
 262 40 l 2
 262 13 249 0 221 0 c 2
 145 0 l 2
 117 0 104 13 104 41 c 2
 104 378 l 1
 71 378 l 2
 44 378 31 391 31 419 c 2
 31 476 l 2
 31 504 44 517 72 517 c 2
 104 517 l 1
 104 691 l 2
 104 769 154 813 221 813 c 2xf4
EndSplineSet
Ligature2: "'liga' Standard Ligatures in Latin lookup 2 subtable" f t
EndChar

StartChar: ffi
Encoding: 64259 64259 68
Width: 786
Flags: HMW
HStem: 0 22G<132 145 145 221 371 385 385 461 611 625 625 700> 378 139<58 104 72 104 262 344 502 584> 674 139<530 545 545 693> 796 20G<194 239>
VStem: 104 158<40 41 41 378 517 649> 344 158<41 378 517 631> 584 158<41 378 378 378>
CounterMasks: 1 0e
LayerCount: 2
Fore
SplineSet
224 816 m 0xde
 254 816 273 814 292 810 c 2
 385 788 l 1
 410 807 437 813 463 813 c 2
 693 813 l 2
 721 813 734 800 734 772 c 2
 734 715 l 2
 734 687 721 674 693 674 c 2
 545 674 l 2xee
 516 674 502 660 502 631 c 2
 502 517 l 1
 700 517 l 2
 728 517 741 504 741 476 c 2
 741 41 l 2
 741 13 728 0 700 0 c 2
 625 0 l 2
 597 0 584 13 584 41 c 2
 584 378 l 1
 502 378 l 1
 502 41 l 2
 502 13 489 0 461 0 c 2
 385 0 l 2
 357 0 344 13 344 41 c 2
 344 378 l 1
 262 378 l 1
 262 41 l 2
 262 13 249 0 221 0 c 2
 145 0 l 2
 117 0 104 13 104 40 c 2
 104 378 l 1
 72 378 l 2
 44 378 31 391 31 418 c 2
 31 477 l 2
 31 504 44 517 72 517 c 2
 104 517 l 1
 104 698 l 2
 104 777 164 816 224 816 c 0xde
346 677 m 1
 291 677 l 2
 275 677 262 666 262 649 c 2
 262 517 l 1
 344 517 l 1
 344 668 l 2
 344 671 345 674 346 677 c 1
EndSplineSet
Ligature2: "'liga' Standard Ligatures in Latin lookup 1 subtable" f f i
EndChar

StartChar: ffl
Encoding: 64260 64260 69
Width: 772
Flags: HMW
HStem: 0 22G<132 145 145 221 371 385 385 461 611 625 625 700> 378 139<58 104 72 104 262 344 502 507> 674 139<533 549 549 584> 796 20G<194 240>
VStem: 104 158<40 41 41 378 517 649> 344 158<41 378 517 631> 584 158<41 674 674 674>
CounterMasks: 1 0e
LayerCount: 2
Fore
SplineSet
224 816 m 0xde
 256 816 272 815 292 810 c 2
 385 788 l 1
 410 807 436 813 472 813 c 2
 703 813 l 2
 729 813 741 800 741 772 c 2
 741 41 l 2
 741 13 728 0 700 0 c 2
 625 0 l 2
 597 0 584 13 584 41 c 2
 584 674 l 1
 549 674 l 2xee
 517 674 502 660 502 631 c 2
 502 517 l 1
 507 517 l 2
 535 517 548 504 548 476 c 2
 548 419 l 2
 548 391 532 378 507 378 c 2
 502 378 l 1
 502 40 l 2
 502 12 486 0 461 0 c 2
 385 0 l 2
 357 0 344 13 344 41 c 2
 344 378 l 1
 262 378 l 1
 262 41 l 2
 262 13 249 0 221 0 c 2
 145 0 l 2
 117 0 104 13 104 40 c 2
 104 378 l 1
 72 378 l 2
 44 378 31 391 31 418 c 2
 31 477 l 2
 31 504 44 517 72 517 c 2
 104 517 l 1
 104 699 l 2
 104 777 164 816 224 816 c 0xde
346 677 m 1
 291 677 l 2
 275 677 262 666 262 649 c 2
 262 517 l 1
 344 517 l 1
 344 668 l 2
 344 671 345 674 346 677 c 1
EndSplineSet
Ligature2: "'liga' Standard Ligatures in Latin lookup 2 subtable" f f l
EndChar

StartChar: fj
Encoding: 57347 57347 70
Width: 546
Flags: HMW
HStem: -222 22G<296 310 310 372> -20 20G<132 145 145 221> 378 139<58 104 72 104 262 344> 674 139<291 305 305 454>
VStem: 104 158<41 378 517 631> 269 232<-139 -124 -124 -111> 344 158<-46 378 378 378>
LayerCount: 2
Fore
SplineSet
344 -46 m 2xfa
 344 378 l 1xfa
 262 378 l 1
 262 41 l 2
 262 13 249 0 221 0 c 2
 145 0 l 2
 117 0 104 13 104 41 c 2
 104 378 l 1
 72 378 l 2
 44 378 31 391 31 418 c 2
 31 477 l 2
 31 504 44 517 72 517 c 2
 104 517 l 1
 104 690 l 2
 104 768 163 813 232 813 c 2
 454 813 l 2
 482 813 495 800 495 772 c 2
 495 715 l 2
 495 687 482 674 454 674 c 2
 305 674 l 2
 276 674 262 660 262 631 c 2
 262 517 l 1
 461 517 l 2
 489 517 502 504 502 476 c 2
 502 -102 l 2
 502 -175 444 -222 372 -222 c 2
 310 -222 l 2
 282 -222 269 -209 269 -181 c 2
 269 -124 l 2xfc
 269 -98 282 -83 306 -83 c 2
 308 -83 l 2
 327 -83 344 -66 344 -46 c 2xfa
EndSplineSet
Ligature2: "'liga' Standard Ligatures in Latin lookup 2 subtable" f j
EndChar

StartChar: ffj
Encoding: 57346 57346 71
Width: 786
Flags: HMW
HStem: -222 22G<536 550 550 611> -20 20G<132 145 145 221 371 385 385 461> 378 139<58 104 72 104 262 344 502 584> 674 139<530 545 545 693> 796 20G<194 239>
VStem: 104 158<40 41 41 378 517 649> 344 158<41 378 517 631> 509 232<-138 -124 -124 -110> 584 158<-46 378 378 378>
LayerCount: 2
Fore
SplineSet
584 -46 m 2xf680
 584 378 l 1
 502 378 l 1
 502 41 l 2
 502 13 489 0 461 0 c 2
 385 0 l 2
 357 0 344 13 344 41 c 2
 344 378 l 1
 262 378 l 1
 262 41 l 2
 262 13 249 0 221 0 c 2
 145 0 l 2
 117 0 104 13 104 40 c 2
 104 378 l 1
 72 378 l 2
 44 378 31 391 31 418 c 2
 31 477 l 2
 31 504 44 517 72 517 c 2
 104 517 l 1
 104 698 l 2
 104 777 164 816 224 816 c 0xee80
 254 816 273 814 292 810 c 2
 385 788 l 1
 410 807 437 813 463 813 c 2
 693 813 l 2
 721 813 734 800 734 772 c 2
 734 715 l 2
 734 687 721 674 693 674 c 2
 545 674 l 2
 516 674 502 660 502 631 c 2
 502 517 l 1
 700 517 l 2
 728 517 741 504 741 476 c 2
 741 -102 l 2
 741 -173 683 -222 611 -222 c 2
 550 -222 l 2
 522 -222 509 -209 509 -181 c 2
 509 -124 l 2xf7
 509 -96 522 -83 546 -83 c 2
 548 -83 l 2
 567 -83 584 -66 584 -46 c 2xf680
346 677 m 1
 291 677 l 2
 275 677 262 666 262 649 c 2
 262 517 l 1
 344 517 l 1
 344 668 l 2
 344 671 345 674 346 677 c 1
EndSplineSet
Ligature2: "'liga' Standard Ligatures in Latin lookup 2 subtable" f f j
EndChar

StartChar: dagger
Encoding: 8224 8224 72
Width: 490
Flags: HMW
HStem: -222 22G<203 217 217 272> 447 139<38 176 52 176 313 437 52 313> 824 20G<217 272 272 286>
VStem: 176 137<-181 447 587 803>
LayerCount: 2
Fore
SplineSet
217 845 m 2
 272 845 l 2
 300 845 313 831 313 803 c 2
 313 587 l 1
 438 587 l 2
 466 587 479 574 479 546 c 2
 479 488 l 2
 479 460 465 447 437 447 c 2
 313 447 l 1
 313 -181 l 2
 313 -209 300 -222 272 -222 c 2
 217 -222 l 2
 189 -222 176 -209 176 -181 c 2
 176 447 l 1
 52 447 l 2
 24 447 11 460 11 488 c 2
 11 546 l 2
 11 574 24 587 52 587 c 2
 176 587 l 1
 176 804 l 2
 176 832 189 845 217 845 c 2
EndSplineSet
EndChar

StartChar: degree
Encoding: 176 176 73
Width: 509
Flags: HMW
HStem: 291 126<140 265 245 265 265 288 245 324> 613 126<224 244 244 266>
VStem: 31 144<464 488 488 543 464 583 464 629> 335 144<487 540 540 564>
LayerCount: 2
Fore
SplineSet
324 291 m 2
 186 291 l 2
 93 291 31 355 31 447 c 2
 31 583 l 2
 31 676 95 739 187 739 c 2
 323 739 l 2
 416 739 479 675 479 582 c 2
 479 447 l 2
 479 356 417 291 324 291 c 2
335 487 m 2
 335 540 l 2
 335 588 304 613 266 613 c 2
 244 613 l 2
 204 613 175 587 175 543 c 2
 175 488 l 2
 175 440 204 417 245 417 c 2
 265 417 l 2
 310 417 335 442 335 487 c 2
EndSplineSet
EndChar

StartChar: cent
Encoding: 162 162 74
Width: 354
Flags: HMW
HStem: 112 250<156 293 170 293> 222 139<269 293 293 298 269 269> 600 139<238 298 269 293> 600 250<238 242 170 253 170 293>
VStem: 51 158<390 404 404 557 390 639> 129 140<153 222 139 224 139 224 739 809>
LayerCount: 2
Fore
SplineSet
170 850 m 2x94
 228 850 l 2x98
 256 850 269 837 269 809 c 2
 269 739 l 1xa4
 298 739 l 2
 326 739 334 726 334 698 c 2
 334 641 l 2
 334 613 321 600 293 600 c 2
 253 600 l 2
 223 600 209 586 209 557 c 2
 209 404 l 2xa8
 209 375 223 361 253 361 c 2
 293 361 l 2
 321 361 334 349 334 321 c 2
 334 263 l 2
 334 235 326 222 298 222 c 2
 269 222 l 1x64
 269 153 l 2
 269 125 256 112 228 112 c 2
 170 112 l 2
 142 112 129 125 129 153 c 2
 129 224 l 1xa4
 128 224 l 1
 88 231 51 262 51 323 c 2
 51 639 l 2xa8
 51 700 88 730 128 737 c 1
 129 737 l 1
 129 810 l 2
 129 837 142 850 170 850 c 2x94
EndSplineSet
EndChar

StartChar: sterling
Encoding: 163 163 75
Width: 489
Flags: HMW
HStem: 0 139<60 61 61 120 250 428> 288 139<49 120 62 120 278 374> 600 139<334 361 361 374>
VStem: 120 158<259 264 264 288 259 288 427 515>
LayerCount: 2
Fore
SplineSet
276 739 m 2
 374 739 l 2
 402 739 415 726 415 698 c 2
 415 641 l 2
 415 613 402 600 374 600 c 2
 361 600 l 2
 307 600 278 563 278 515 c 2
 278 427 l 1
 374 427 l 2
 402 427 415 414 415 386 c 2
 415 329 l 2
 415 301 402 288 374 288 c 2
 278 288 l 1
 278 264 l 2
 278 253 276 230 273 219 c 2
 250 139 l 1
 428 139 l 2
 456 139 469 126 469 98 c 2
 469 41 l 2
 469 13 456 0 428 0 c 2
 61 0 l 2
 33 0 20 13 20 41 c 2
 20 98 l 2
 20 126 33 139 60 139 c 2
 120 139 l 1
 120 288 l 1
 62 288 l 2
 34 288 22 301 22 329 c 2
 22 386 l 2
 22 414 34 427 62 427 c 2
 120 427 l 1
 120 583 l 2
 120 676 184 739 276 739 c 2
EndSplineSet
EndChar

StartChar: section
Encoding: 167 167 76
Width: 505
Flags: HMW
HStem: -222 139<97 226 111 226 226 249 111 317> 600 139<258 280 280 377>
VStem: 51 139<278 291 291 314 278 365 278 383> 51 158<258 531 365 531 519 531 531 540 519 602 519 643> 297 158<-22 -15 -15 -2> 315 139<204 225 225 239>
LayerCount: 2
Fore
SplineSet
188 739 m 2xe8
 377 739 l 2
 405 739 418 726 418 698 c 2
 418 641 l 2
 418 613 405 600 377 600 c 2
 280 600 l 2
 236 600 209 584 209 540 c 2
 209 531 l 2xd4
 209 505 219 486 237 474 c 2
 399 370 l 2
 435 346 455 310 455 258 c 2
 455 153 l 2
 455 117 444 94 435 79 c 1
 442 71 455 45 455 5 c 2
 455 -85 l 2
 455 -167 399 -222 317 -222 c 2
 111 -222 l 2
 83 -222 70 -209 70 -181 c 2
 70 -123 l 2
 70 -96 83 -83 111 -83 c 2
 226 -83 l 2
 271 -83 297 -64 297 -22 c 2
 297 -15 l 2
 297 13 285 31 269 42 c 2
 106 146 l 2
 73 168 51 206 51 258 c 2
 51 365 l 2
 51 403 63 427 70 438 c 1
 63 449 51 470 51 511 c 2
 51 602 l 2
 51 684 106 739 188 739 c 2xe8
196 345 m 1
 193 338 190 327 190 314 c 2
 190 291 l 2xe8
 190 265 200 245 218 233 c 2
 300 178 l 2
 304 175 307 173 309 172 c 1
 313 179 315 191 315 204 c 2
 315 225 l 2
 315 253 304 272 288 283 c 2
 205 339 l 2
 201 342 201 341 196 345 c 1
EndSplineSet
EndChar

StartChar: bullet
Encoding: 8226 8226 77
Width: 368
Flags: HMW
HStem: 222 22G<108 132 132 237> 468 20G<131 237 237 261>
LayerCount: 2
Fore
SplineSet
237 222 m 2
 132 222 l 2
 84 222 51 254 51 307 c 2
 51 403 l 2
 51 457 83 488 131 488 c 2
 237 488 l 2
 285 488 317 458 317 402 c 2
 317 307 l 2
 317 254 285 222 237 222 c 2
EndSplineSet
EndChar

StartChar: paragraph
Encoding: 182 182 78
Width: 744
Flags: HMW
HStem: -222 22G<272 286 286 361 494 508 508 584> 401 139<100 245 195 245 195 245> 674 139<195 201 201 245 402 467 402 402 625 683 625 625>
VStem: 31 146<561 566 566 648 561 713> 245 158<-181 401 401 401 541 674> 467 158<-181 674>
LayerCount: 2
Fore
SplineSet
131 813 m 2
 683 813 l 2
 711 813 724 800 724 772 c 2
 724 715 l 2
 724 687 711 674 683 674 c 2
 625 674 l 1
 625 -181 l 2
 625 -209 612 -222 584 -222 c 2
 508 -222 l 2
 480 -222 467 -209 467 -181 c 2
 467 674 l 1
 402 674 l 1
 402 -181 l 2
 402 -209 389 -222 361 -222 c 2
 286 -222 l 2
 258 -222 245 -209 245 -181 c 2
 245 401 l 1
 131 401 l 2
 70 401 31 440 31 502 c 2
 31 713 l 2
 31 774 70 813 131 813 c 2
245 674 m 1
 201 674 l 2
 190 674 177 661 177 648 c 2
 177 566 l 2
 177 555 180 541 195 541 c 2
 245 541 l 1
 245 674 l 1
EndSplineSet
EndChar

StartChar: germandbls
Encoding: 223 223 79
Width: 605
Flags: HMW
HStem: 0 139<145 360 322 360 336 360 360 375 336 464> 378 139<58 104 72 104 336 338> 674 139<291 305 305 359>
VStem: 31 231<419 476 476 490> 104 158<41 378 378 378 517 631> 407 158<187 271 585 625 625 626 626 641>
LayerCount: 2
Fore
SplineSet
262 631 m 2xec
 262 41 l 2
 262 13 249 0 222 0 c 2
 145 0 l 2
 117 0 104 13 104 41 c 2
 104 378 l 1xec
 72 378 l 2
 44 378 31 391 31 419 c 2
 31 476 l 2xf4
 31 504 44 517 72 517 c 2
 104 517 l 1
 104 690 l 2
 104 768 152 813 222 813 c 2
 464 813 l 2
 525 813 564 774 564 713 c 2
 564 625 l 2
 564 539 521 478 455 449 c 1
 521 419 564 357 564 271 c 2
 564 100 l 2
 564 39 526 0 464 0 c 2
 336 0 l 2
 308 0 295 13 295 40 c 2
 295 99 l 2
 295 126 308 139 336 139 c 2
 360 139 l 2
 390 139 407 158 407 187 c 2
 407 311 l 2
 407 351 382 378 338 378 c 2
 336 378 l 2
 308 378 295 392 295 420 c 2
 295 476 l 2
 295 504 308 517 336 517 c 2
 338 517 l 2
 386 517 407 537 407 585 c 2
 407 626 l 2
 407 656 389 674 359 674 c 2
 305 674 l 2
 276 674 262 660 262 631 c 2xec
EndSplineSet
EndChar

StartChar: registered
Encoding: 174 174 80
Width: 428
Flags: HMW
HStem: 360 72<102 276 148 276 276 289 148 299> 741 72<137 147 147 276>
VStem: 41 71<458 470 470 705> 137 59<472 559 607 655> 137 155<610 618 618 662 610 702 610 707> 313 74<470 705 705 717>
LayerCount: 2
Fore
SplineSet
41 449 m 2xf4
 41 725 l 2
 41 774 71 813 128 813 c 2
 299 813 l 2
 353 813 387 778 387 725 c 2
 387 449 l 2
 387 397 355 360 299 360 c 2
 128 360 l 2
 76 360 41 395 41 449 c 2xf4
112 705 m 2
 112 470 l 2
 112 446 124 432 148 432 c 2
 276 432 l 2
 301 432 313 444 313 470 c 2
 313 705 l 2
 313 731 298 741 276 741 c 2
 147 741 l 2
 125 741 112 729 112 705 c 2
151 716 m 2
 236 716 l 2
 270 716 292 692 292 662 c 2
 292 618 l 2xec
 292 602 281 582 262 573 c 1
 270 566 278 549 281 537 c 2
 298 473 l 2
 301 465 292 458 284 458 c 2
 251 458 l 2
 242 458 237 461 236 466 c 2
 219 548 l 2
 218 555 213 559 205 559 c 2
 197 559 l 1
 197 472 l 2
 197 463 192 458 183 458 c 2
 151 458 l 2
 142 458 137 463 137 472 c 2
 137 702 l 2
 137 711 142 716 151 716 c 2
210 663 m 2
 204 663 l 2
 199 663 197 660 197 655 c 2
 197 607 l 1xf4
 208 607 l 2
 222 607 229 615 229 630 c 2
 229 638 l 2
 229 654 223 663 210 663 c 2
EndSplineSet
EndChar

StartChar: copyright
Encoding: 169 169 81
Width: 668
Flags: HMW
HStem: 0 129<162 428 238 428 428 451 238 454> 174 96<276 426 351 426 351 426> 469 96<344 351 351 426> 610 129<216 238 238 428>
VStem: 41 129<179 201 201 539> 215 108<290 298 298 441> 215 239<0 0 489 497 497 503> 499 129<201 539 539 562>
LayerCount: 2
Fore
SplineSet
628 565 m 2xfb
 628 176 l 2
 628 74 559 0 454 0 c 2
 215 0 l 2
 110 0 41 74 41 176 c 2
 41 565 l 2
 41 665 113 739 216 739 c 2
 453 739 l 2
 556 739 628 665 628 565 c 2xfb
499 201 m 2
 499 539 l 2
 499 585 472 610 428 610 c 2
 238 610 l 2
 194 610 170 585 170 539 c 2
 170 201 l 2
 170 157 194 129 238 129 c 2
 428 129 l 2
 473 129 499 157 499 201 c 2
215 265 m 2
 215 474 l 2
 215 532 249 565 301 565 c 2
 426 565 l 2
 441 565 454 553 454 538 c 2
 454 497 l 2xfb
 454 482 441 469 426 469 c 2
 351 469 l 2
 336 469 323 456 323 441 c 2
 323 298 l 2xfd
 323 283 336 270 351 270 c 2
 426 270 l 2
 441 270 454 258 454 243 c 2
 454 202 l 2
 454 187 441 174 426 174 c 2
 302 174 l 2
 250 174 215 208 215 265 c 2
EndSplineSet
EndChar

StartChar: trademark
Encoding: 8482 8482 82
Width: 673
Flags: HMW
HStem: 446 22G<106 114 114 156 315 323 323 358 429 434 434 478 547 555 555 591> 667 73<26 236 34 91 177 177 177 236>
VStem: 91 86<469 667> 301 80<469 643> 532 80<469 643 643 643>
LayerCount: 2
Fore
SplineSet
424 721 m 1
 458 552 l 1
 488 721 l 2
 491 732 498 739 509 739 c 2
 591 739 l 2
 605 739 612 732 612 717 c 2
 612 469 l 2
 612 454 605 446 591 446 c 2
 555 446 l 2
 540 446 532 454 532 469 c 2
 532 643 l 1
 499 465 l 1
 496 456 489 446 478 446 c 2
 434 446 l 2
 423 446 418 456 415 465 c 1
 381 643 l 1
 381 469 l 2
 381 454 373 446 358 446 c 2
 323 446 l 2
 309 446 301 454 301 469 c 2
 301 717 l 2
 301 732 309 739 323 739 c 2
 404 739 l 2
 415 739 423 732 424 721 c 1
91 469 m 2
 91 667 l 1
 34 667 l 2
 19 667 11 674 11 687 c 2
 11 717 l 2
 11 732 19 739 34 739 c 2
 236 739 l 2
 251 739 258 732 258 717 c 2
 258 687 l 2
 258 674 251 667 236 667 c 2
 177 667 l 1
 177 469 l 2
 177 454 170 446 156 446 c 2
 114 446 l 2
 99 446 91 454 91 469 c 2
EndSplineSet
EndChar

StartChar: notequal
Encoding: 8800 8800 83
Width: 467
Flags: HMW
HStem: -73 22G<78 90 90 165> 75 139<59 397 73 101 241 241 241 397> 304 139<58 228 72 228 368 396> 570 20G<304 379 379 391>
LayerCount: 2
Fore
SplineSet
165 -73 m 2
 90 -73 l 2
 65 -73 54 -58 65 -32 c 1
 101 75 l 1
 73 75 l 2
 45 75 32 88 32 116 c 2
 32 173 l 2
 32 201 45 214 73 214 c 2
 397 214 l 2
 425 214 438 201 438 173 c 2
 438 116 l 2
 438 88 425 75 397 75 c 2
 241 75 l 1
 199 -47 l 2
 192 -66 182 -73 165 -73 c 2
304 591 m 2
 379 591 l 2
 404 591 415 576 404 550 c 1
 368 443 l 1
 396 443 l 2
 424 443 437 430 437 402 c 2
 437 345 l 2
 437 317 424 304 396 304 c 2
 72 304 l 2
 44 304 31 317 31 345 c 2
 31 402 l 2
 31 430 44 443 72 443 c 2
 228 443 l 1
 270 565 l 2
 277 584 287 591 304 591 c 2
EndSplineSet
EndChar

StartChar: AE
Encoding: 198 198 84
Width: 736
Flags: HMW
HStem: 0 139<536 675 675 676> 143 139<206 360 246 360 246 360> 304 139<517 630 517 630> 600 139<530 537 537 675 675 676>
VStem: 360 157<31 158 143 158 283 304 443 581>
LayerCount: 2
Fore
SplineSet
290 739 m 2
 675 739 l 2
 703 739 716 726 716 698 c 2
 716 641 l 2
 716 613 703 600 676 600 c 2
 537 600 l 2
 524 600 517 594 517 581 c 2
 517 443 l 1
 630 443 l 2
 657 443 670 430 670 402 c 2
 670 345 l 2
 670 317 657 304 630 304 c 2
 517 304 l 1
 517 158 l 2
 517 147 525 139 536 139 c 2
 675 139 l 2
 703 139 716 126 716 98 c 2
 716 41 l 2
 716 13 703 0 676 0 c 2
 391 0 l 2
 374 0 360 12 360 31 c 2
 360 143 l 1
 211 143 l 2
 201 143 193 138 190 127 c 2
 156 31 l 1
 149 15 134 0 115 0 c 2
 43 0 l 2
 21 0 5 19 13 43 c 2
 249 709 l 1
 256 725 273 739 290 739 c 2
360 283 m 1
 360 610 l 1
 246 283 l 1
 360 283 l 1
EndSplineSet
Position2: "'cpsp' Capital Spacing in Latin lookup 0 subtable" dx=7 dy=0 dh=14 dv=0
EndChar

StartChar: Oslash
Encoding: 216 216 85
Width: 523
Flags: HMW
HStem: -147 22G<82 95 95 167> 0 139<258 266 266 286 258 325 236 266> 600 139<238 257 257 265> 866 20G<364 434 434 448>
VStem: 41 158<180 200 200 540> 325 158<0 157 200 540 540 560>
LayerCount: 2
Fore
SplineSet
364 887 m 2
 434 887 l 2
 462 887 471 874 463 846 c 2
 425 708 l 1
 462 680 482 631 482 583 c 2
 482 157 l 2
 482 65 419 0 325 0 c 2
 236 0 l 1
 203 -117 l 2
 196 -142 186 -147 167 -147 c 2
 95 -147 l 2
 69 -147 59 -136 67 -106 c 2
 103 28 l 1
 75 47 41 88 41 158 c 2
 41 583 l 2
 41 676 106 739 199 739 c 2
 294 739 l 1
 328 860 l 2
 333 879 340 887 364 887 c 2
325 200 m 2
 325 540 l 2
 325 580 305 600 265 600 c 2
 257 600 l 2
 218 600 199 580 199 540 c 2
 199 200 l 2
 199 160 218 139 258 139 c 2
 266 139 l 2
 305 139 325 160 325 200 c 2
EndSplineSet
Position2: "'cpsp' Capital Spacing in Latin lookup 0 subtable" dx=7 dy=0 dh=14 dv=0
EndChar

StartChar: infinity
Encoding: 8734 8734 86
Width: 681
Flags: HMW
HStem: 223 120<117 246 199 218 437 465 465 486 486 496> 401 121<187 199 199 218 218 246 465 486>
VStem: 41 122<357 369 369 377 357 413 357 445> 519 122<368 378 378 388>
LayerCount: 2
Fore
SplineSet
41 333 m 2
 41 413 l 2
 41 479 85 522 150 522 c 2
 218 522 l 2
 278 522 322 490 341 445 c 1
 361 490 405 522 465 522 c 2
 531 522 l 2
 597 522 641 479 641 413 c 2
 641 333 l 2
 641 267 597 223 531 223 c 2
 465 223 l 2
 405 223 361 255 341 300 c 1
 322 255 278 223 218 223 c 2
 150 223 l 2
 85 223 41 267 41 333 c 2
163 377 m 2
 163 369 l 2
 163 345 175 343 199 343 c 2
 246 343 l 2
 278 343 293 354 293 373 c 0
 293 392 278 401 246 401 c 2
 199 401 l 2
 175 401 163 401 163 377 c 2
390 373 m 2
 390 372 l 2
 390 353 409 343 437 343 c 2
 486 343 l 2
 505 343 519 346 519 368 c 2
 519 378 l 2
 519 398 505 401 486 401 c 2
 437 401 l 2
 409 401 390 392 390 373 c 2
EndSplineSet
EndChar

StartChar: plusminus
Encoding: 177 177 87
Width: 467
Flags: HMW
HStem: 0 139<58 396 72 396> 343 139<58 165 72 165 304 396> 595 20G<206 263 263 277>
VStem: 165 139<250 343 236 343 482 574>
LayerCount: 2
Fore
SplineSet
206 615 m 2
 263 615 l 2
 291 615 304 602 304 574 c 2
 304 482 l 1
 396 482 l 2
 424 482 437 468 437 440 c 2
 437 384 l 2
 437 356 424 343 396 343 c 2
 304 343 l 1
 304 250 l 2
 304 222 291 209 263 209 c 2
 206 209 l 2
 178 209 165 222 165 250 c 2
 165 343 l 1
 72 343 l 2
 44 343 31 356 31 384 c 2
 31 441 l 2
 31 469 44 482 72 482 c 2
 165 482 l 1
 165 574 l 2
 165 602 178 615 206 615 c 2
72 139 m 2
 396 139 l 2
 424 139 437 125 437 97 c 2
 437 41 l 2
 437 13 424 0 396 0 c 2
 72 0 l 2
 44 0 31 13 31 41 c 2
 31 98 l 2
 31 126 44 139 72 139 c 2
EndSplineSet
EndChar

StartChar: lessequal
Encoding: 8804 8804 88
Width: 467
Flags: HMW
HStem: 0 139<58 396 72 396>
LayerCount: 2
Fore
SplineSet
288 178 m 2
 76 347 l 2
 64 357 57 369 57 380 c 2
 57 445 l 2
 57 457 67 469 76 476 c 2
 288 650 l 2
 310 667 328 666 345 644 c 2
 380 602 l 2
 397 580 396 562 374 545 c 2
 208 414 l 1
 374 284 l 2
 396 267 397 248 380 226 c 2
 345 184 l 2
 328 162 310 161 288 178 c 2
72 139 m 2
 396 139 l 2
 424 139 437 125 437 97 c 2
 437 41 l 2
 437 13 424 0 396 0 c 2
 72 0 l 2
 44 0 31 13 31 41 c 2
 31 98 l 2
 31 126 44 139 72 139 c 2
EndSplineSet
EndChar

StartChar: greaterequal
Encoding: 8805 8805 89
Width: 467
Flags: HMW
HStem: 0 139<59 397 73 397>
LayerCount: 2
Fore
SplineSet
393 347 m 2
 181 178 l 2
 159 161 141 162 124 184 c 2
 89 226 l 2
 72 248 73 267 95 284 c 2
 261 414 l 1
 95 545 l 2
 73 562 72 580 89 602 c 2
 124 644 l 2
 141 666 159 667 181 650 c 2
 393 476 l 2
 402 469 412 457 412 445 c 2
 412 380 l 2
 412 369 405 357 393 347 c 2
73 139 m 2
 397 139 l 2
 425 139 438 126 438 98 c 2
 438 41 l 2
 438 13 425 0 397 0 c 2
 73 0 l 2
 45 0 32 13 32 41 c 2
 32 97 l 2
 32 125 45 139 73 139 c 2
EndSplineSet
EndChar

StartChar: yen
Encoding: 165 165 90
Width: 517
Flags: HMW
HStem: 0 22G<207 220 220 297> 136 139<81 180 95 180 338 423> 719 20G<48 135 135 143 403 470 470 482>
VStem: 180 158<41 136 27 136 275 292>
LayerCount: 2
Fore
SplineSet
48 739 m 2
 135 739 l 2
 151 739 165 729 169 718 c 2
 269 462 l 1
 370 718 l 2
 374 729 388 739 403 739 c 2
 470 739 l 2
 494 739 515 716 503 687 c 2
 338 292 l 1
 338 275 l 1
 423 275 l 2
 451 275 464 262 464 234 c 2
 464 177 l 2
 464 149 451 136 423 136 c 2
 338 136 l 1
 338 41 l 2
 338 13 325 0 297 0 c 2
 220 0 l 2
 193 0 180 13 180 41 c 2
 180 136 l 1
 95 136 l 2
 67 136 54 149 54 177 c 2
 54 234 l 2
 54 262 67 275 95 275 c 2
 180 275 l 1
 180 292 l 1
 14 687 l 2
 3 712 19 739 48 739 c 2
EndSplineSet
EndChar

StartChar: mu
Encoding: 181 181 91
Width: 458
Flags: HMW
HStem: -222 22G<68 82 82 158> -20 20G<278 381 278 278> 497 20G<81 158 158 172 301 377 377 391>
VStem: 41 158<-181 -180 -180 -114 155 164 164 476> 260 158<25 37 136 475>
LayerCount: 2
Fore
SplineSet
81 517 m 2
 158 517 l 2
 186 517 199 504 199 476 c 2
 199 164 l 2
 199 147 211 136 226 136 c 2
 260 136 l 1
 260 476 l 2
 260 504 273 517 301 517 c 2
 377 517 l 2
 405 517 418 503 418 475 c 2
 418 37 l 2
 418 17 401 0 381 0 c 2
 278 0 l 1
 260 25 l 1
 190 6 l 2
 187 5 184 4 183 4 c 0
 182 4 180 4 178 3 c 0
 177 2 175 2 174 2 c 0
 173 2 172 2 171 1 c 1
 195 -63 l 2
 199 -74 199 -103 199 -114 c 2
 199 -180 l 2
 199 -208 186 -222 158 -222 c 2
 82 -222 l 2
 54 -222 41 -209 41 -181 c 2
 41 476 l 2
 41 504 56 517 81 517 c 2
EndSplineSet
EndChar

StartChar: partialdiff
Encoding: 8706 8706 92
Width: 479
Flags: HMW
HStem: -20 20G<289 385 289 289> -3 22G<117 147> 497 20G<116 147> 793 20G<174 273 273 280>
VStem: 51 158<158 167 167 353> 270 158<25 43 139 381 381 381>
LayerCount: 2
Fore
SplineSet
174 813 m 2x7c
 273 813 l 2
 285 813 306 811 313 794 c 2
 428 492 l 1
 428 43 l 2
 428 14 414 0 385 0 c 2
 289 0 l 1xbc
 270 25 l 1
 171 1 l 1
 163 -2 151 -3 143 -3 c 0
 91 -3 51 36 51 96 c 2
 51 417 l 2
 51 478 89 517 143 517 c 0
 151 517 163 517 171 514 c 1
 259 493 l 1
 153 772 l 2
 144 797 146 813 174 813 c 2x7c
270 381 m 1
 238 381 l 2
 222 381 209 368 209 353 c 2
 209 167 l 2
 209 150 222 139 238 139 c 2
 270 139 l 1
 270 381 l 1
EndSplineSet
EndChar

StartChar: summation
Encoding: 8721 8721 93
Width: 451
Flags: HMW
HStem: 0 139<103 390 250 390 250 390> 600 139<244 250 250 390>
LayerCount: 2
Fore
SplineSet
143 739 m 2
 390 739 l 2
 418 739 431 726 431 698 c 2
 431 640 l 2
 431 615 418 600 390 600 c 2
 250 600 l 2
 239 600 230 589 241 577 c 1
 348 441 l 2
 356 431 360 415 360 395 c 2
 360 352 l 2
 360 335 358 317 347 304 c 2
 232 157 l 2
 225 148 238 139 250 139 c 2
 390 139 l 2
 418 139 431 126 431 98 c 2
 431 41 l 2
 431 13 418 0 390 0 c 2
 143 0 l 2
 62 0 25 98 74 164 c 2
 228 374 l 1
 74 575 l 2
 23 641 63 739 143 739 c 2
EndSplineSet
EndChar

StartChar: product
Encoding: 8719 8719 94
Width: 664
Flags: HMW
HStem: 0 22G<140 154 154 229 421 435 435 511> 582 158<68 583 82 113 270 394 270 270 552 583 552 552>
VStem: 113 158<41 582> 394 158<41 582>
LayerCount: 2
Fore
SplineSet
82 739 m 2
 583 739 l 2
 611 739 624 726 624 698 c 2
 624 623 l 2
 624 595 611 582 583 582 c 2
 552 582 l 1
 552 41 l 2
 552 13 539 0 511 0 c 2
 435 0 l 2
 407 0 394 13 394 41 c 2
 394 582 l 1
 270 582 l 1
 270 41 l 2
 270 13 257 0 229 0 c 2
 154 0 l 2
 126 0 113 13 113 41 c 2
 113 582 l 1
 82 582 l 2
 54 582 41 595 41 623 c 2
 41 698 l 2
 41 726 54 739 82 739 c 2
EndSplineSet
EndChar

StartChar: pi
Encoding: 960 960 95
Width: 581
Flags: HMW
HStem: 0 22G<130 143 143 219 349 362 362 438> 359 158<68 500 82 102 260 322 260 260 479 500 479 479>
VStem: 102 158<41 359> 322 158<40 41 41 359>
LayerCount: 2
Fore
SplineSet
82 517 m 2
 500 517 l 2
 528 517 541 504 541 476 c 2
 541 400 l 2
 541 372 528 359 500 359 c 2
 479 359 l 1
 479 41 l 2
 479 13 466 0 438 0 c 2
 362 0 l 2
 334 0 322 13 322 40 c 2
 322 359 l 1
 260 359 l 1
 260 40 l 2
 260 13 247 0 219 0 c 2
 143 0 l 2
 115 0 102 13 102 41 c 2
 102 359 l 1
 82 359 l 2
 54 359 41 372 41 400 c 2
 41 476 l 2
 41 504 54 517 82 517 c 2
EndSplineSet
EndChar

StartChar: integral
Encoding: 8747 8747 96
Width: 376
Flags: HMW
HStem: -222 139<48 68 61 68 68 81 61 151> 674 139<296 310 310 315>
VStem: 20 247<-138 -124 -124 -110> 110 158<-40 631>
LayerCount: 2
Fore
SplineSet
110 -40 m 2xd0
 110 690 l 2
 110 768 157 813 227 813 c 2
 315 813 l 2
 343 813 356 800 356 772 c 2
 356 715 l 2xd0
 356 687 343 674 315 674 c 2
 310 674 l 2
 281 674 267 660 267 631 c 2
 267 -99 l 2
 267 -177 218 -222 151 -222 c 2
 61 -222 l 2
 33 -222 20 -209 20 -181 c 2
 20 -124 l 2xe0
 20 -96 33 -83 61 -83 c 2
 68 -83 l 2
 96 -83 110 -72 110 -40 c 2xd0
EndSplineSet
EndChar

StartChar: ordfeminine
Encoding: 170 170 97
Width: 277
Flags: HMW
HStem: 444 190<78 95 78 95> 666 74<67 171 75 134>
VStem: 41 196<502 579 579 595> 153 84<461 471 515 564 564 564 620 641 641 650>
LayerCount: 2
Fore
SplineSet
75 739 m 2xd0
 171 739 l 2
 211 739 237 717 237 671 c 2
 237 471 l 2
 237 455 228 446 213 446 c 2
 163 446 l 1
 153 461 l 1xd0
 108 447 l 2
 103 446 97 444 93 444 c 0
 63 444 41 466 41 502 c 2
 41 579 l 2xe0
 41 613 63 635 93 635 c 0
 96 635 101 634 108 633 c 1
 153 620 l 1
 153 641 l 2
 153 658 150 666 134 666 c 2
 75 666 l 2
 60 666 51 674 51 689 c 2
 51 717 l 2
 51 732 60 739 75 739 c 2xd0
153 564 m 1
 140 564 l 2
 129 564 123 558 123 546 c 2
 123 534 l 2
 123 522 129 515 140 515 c 2
 153 515 l 1
 153 564 l 1
EndSplineSet
EndChar

StartChar: ordmasculine
Encoding: 186 186 98
Width: 293
Flags: HMW
HStem: 446 22G<80 98 98 197> 719 20G<98 197 197 214>
VStem: 41 86<532 539 539 647> 168 85<539 647 647 654>
LayerCount: 2
Fore
SplineSet
197 446 m 2
 98 446 l 2
 62 446 41 468 41 504 c 2
 41 683 l 2
 41 719 62 739 98 739 c 2
 197 739 l 2
 231 739 253 719 253 683 c 2
 253 504 l 2
 253 468 231 446 197 446 c 2
168 539 m 2
 168 647 l 2
 168 660 161 666 153 666 c 2
 141 666 l 2
 134 666 127 659 127 647 c 2
 127 539 l 2
 127 527 132 520 141 520 c 2
 153 520 l 2
 163 520 168 527 168 539 c 2
EndSplineSet
EndChar

StartChar: grave
Encoding: 96 96 99
Width: 271
Flags: W
LayerCount: 2
Fore
SplineSet
50 698 m 2
 109 743 l 2
 121 752 131 750 138 737 c 2
 225 597 l 2
 232 586 231 574 223 567 c 1
 188 545 l 2
 177 538 168 539 160 548 c 2
 48 668 l 2
 38 679 39 689 50 698 c 2
EndSplineSet
EndChar

StartChar: circumflex
Encoding: 710 710 100
Width: 329
Flags: HMW
HStem: 721 20G<127 203 203 210>
LayerCount: 2
Fore
SplineSet
127 741 m 2
 203 741 l 2
 218 741 222 735 226 727 c 2
 287 606 l 2
 291 598 289 585 281 581 c 2
 246 562 l 1
 235 555 225 560 218 569 c 2
 165 645 l 1
 112 569 l 1
 105 561 95 557 84 562 c 2
 49 581 l 2
 42 585 39 598 43 606 c 2
 103 727 l 2
 106 734 112 741 127 741 c 2
EndSplineSet
EndChar

StartChar: tilde
Encoding: 732 732 101
Width: 432
Flags: W
LayerCount: 2
Fore
SplineSet
44 616 m 2
 70 663 l 1
 95 704 172 726 239 676 c 1
 251 669 l 1
 266 658 277 658 282 669 c 1
 288 679 l 1
 297 692 302 695 314 695 c 2
 375 695 l 2
 390 695 396 683 388 668 c 2
 362 621 l 2
 337 577 260 557 194 606 c 1
 179 616 l 2
 166 625 156 625 151 614 c 1
 144 604 l 2
 136 591 130 588 118 588 c 2
 56 588 l 2
 43 588 36 601 44 616 c 2
EndSplineSet
EndChar

StartChar: macron
Encoding: 175 175 102
Width: 329
Flags: HMW
HStem: 588 103<56 266 70 266>
LayerCount: 2
Fore
SplineSet
29 629 m 2
 29 650 l 2
 29 678 42 691 70 691 c 2
 266 691 l 2
 294 691 307 678 307 650 c 2
 307 629 l 2
 307 601 294 588 266 588 c 2
 70 588 l 2
 42 588 29 601 29 629 c 2
EndSplineSet
EndChar

StartChar: breve
Encoding: 728 728 103
Width: 329
Flags: HMW
HStem: 582 79<150 179 150 208> 582 116<42 208>
LayerCount: 2
Fore
SplineSet
42 697 m 2x40
 96 697 l 2x40
 107 697 112 691 113 687 c 0
 118 670 135 660 165 660 c 0x80
 194 660 214 671 218 687 c 0
 219 691 224 697 233 697 c 2
 288 697 l 2
 298 697 303 692 303 681 c 0
 303 637 252 582 165 582 c 0
 82 582 27 636 27 680 c 0
 27 691 32 697 42 697 c 2x40
EndSplineSet
EndChar

StartChar: acute
Encoding: 180 180 104
Width: 271
Flags: W
LayerCount: 2
Fore
SplineSet
83 545 m 2
 48 567 l 2
 40 572 39 586 46 597 c 2
 133 737 l 2
 140 750 151 752 163 743 c 2
 221 698 l 2
 232 690 232 679 223 668 c 2
 112 548 l 2
 103 539 93 538 83 545 c 2
EndSplineSet
EndChar

StartChar: hungarumlaut
Encoding: 733 733 105
Width: 460
Flags: W
LayerCount: 2
Fore
SplineSet
83 545 m 2
 48 567 l 2
 40 572 39 586 46 597 c 2
 133 737 l 2
 140 750 151 752 163 743 c 2
 221 698 l 2
 232 690 232 679 223 668 c 2
 112 548 l 2
 103 539 93 538 83 545 c 2
272 545 m 2
 238 567 l 2
 230 572 229 586 236 597 c 2
 323 737 l 2
 330 750 340 752 352 743 c 2
 411 698 l 2
 422 690 422 679 413 668 c 2
 301 548 l 2
 292 539 282 538 272 545 c 2
EndSplineSet
EndChar

StartChar: caron
Encoding: 711 711 106
Width: 329
Flags: HMW
HStem: 557 22G<119 127 127 203>
LayerCount: 2
Fore
SplineSet
49 718 m 2
 84 736 l 2
 95 741 107 737 112 729 c 2
 165 653 l 1
 218 729 l 2
 225 739 235 741 246 736 c 2
 281 718 l 2
 289 714 291 700 287 692 c 2
 226 571 l 2
 222 563 218 557 203 557 c 2
 127 557 l 2
 112 557 106 564 103 571 c 2
 43 692 l 2
 39 700 41 714 49 718 c 2
EndSplineSet
EndChar

StartChar: dotlessi
Encoding: 305 305 107
Width: 260
Flags: HMW
HStem: 0 22G<78 92 92 168> 497 20G<92 168 168 182>
VStem: 51 158<41 476>
LayerCount: 2
Fore
SplineSet
51 41 m 2
 51 476 l 2
 51 504 64 517 92 517 c 2
 168 517 l 2
 196 517 209 504 209 476 c 2
 209 41 l 2
 209 13 196 0 168 0 c 2
 92 0 l 2
 64 0 51 13 51 41 c 2
EndSplineSet
EndChar

StartChar: cedilla
Encoding: 184 184 108
Width: 266
Flags: HMW
HStem: -222 66<59 63 63 133 133 140 59 172> -105 61<73 171 80 171> -105 105<73 80 80 130>
LayerCount: 2
Fore
SplineSet
58 -80 m 2xc0
 71 0 l 1
 143 0 l 1xa0
 136 -44 l 1
 171 -44 l 2
 204 -44 225 -66 225 -98 c 2
 225 -167 l 2
 225 -200 202 -222 172 -222 c 2
 63 -222 l 2
 51 -222 41 -215 41 -202 c 2
 41 -178 l 2
 41 -164 47 -157 59 -157 c 2
 133 -157 l 2
 147 -157 155 -150 155 -138 c 2
 155 -123 l 2
 155 -111 143 -105 130 -105 c 2
 80 -105 l 2
 67 -105 55 -95 58 -80 c 2xc0
EndSplineSet
EndChar

StartChar: ogonek
Encoding: 731 731 109
Width: 264
Flags: HMW
HStem: -222 74<78 198 147 198 198 199> -222 222<95 104 104 181 95 199>
LayerCount: 2
Fore
SplineSet
49 -108 m 2x80
 95 0 l 1
 181 0 l 1x40
 130 -116 l 2
 122 -133 128 -148 147 -148 c 2
 198 -148 l 2
 213 -148 223 -155 223 -170 c 2
 223 -202 l 2
 223 -215 211 -222 199 -222 c 2
 104 -222 l 2
 52 -222 26 -158 49 -108 c 2x80
EndSplineSet
EndChar

StartChar: Zcaron
Encoding: 381 381 110
Width: 429
Flags: HMW
HStem: 0 139<48 368 161 368 161 368> 600 139<48 368 61 267> 739 29<206 214 214 239 206 368>
LayerCount: 2
Fore
SplineSet
61 739 m 2xc0
 368 739 l 2
 396 739 409 726 409 698 c 2
 409 557 l 2
 409 550 406 542 401 535 c 2
 161 139 l 1
 368 139 l 2
 396 139 409 126 409 98 c 2
 409 41 l 2
 409 13 396 0 368 0 c 2
 61 0 l 2
 33 0 20 13 20 41 c 2
 20 181 l 2
 20 186 23 196 26 201 c 2
 267 600 l 1
 61 600 l 2
 33 600 20 613 20 641 c 2
 20 698 l 2
 20 726 33 739 61 739 c 2xc0
84 865 m 2
 106 901 l 2
 113 912 125 907 134 903 c 2
 225 861 l 1
 316 903 l 2
 327 908 337 912 344 901 c 2
 367 865 l 2
 371 858 373 847 366 842 c 2
 269 779 l 2
 262 774 254 768 239 768 c 2
 214 768 l 2xa0
 199 768 186 776 181 779 c 2
 85 842 l 2
 82 845 80 848 80 852 c 0
 80 857 81 861 84 865 c 2
EndSplineSet
Position2: "'cpsp' Capital Spacing in Latin lookup 0 subtable" dx=7 dy=0 dh=14 dv=0
EndChar

StartChar: Zacute
Encoding: 377 377 111
Width: 429
Flags: HMW
HStem: 0 139<48 368 161 368 161 368> 600 139<48 368 61 267>
LayerCount: 2
Fore
SplineSet
61 739 m 2
 368 739 l 2
 396 739 409 726 409 698 c 2
 409 557 l 2
 409 550 406 542 401 535 c 2
 161 139 l 1
 368 139 l 2
 396 139 409 126 409 98 c 2
 409 41 l 2
 409 13 396 0 368 0 c 2
 61 0 l 2
 33 0 20 13 20 41 c 2
 20 181 l 2
 20 186 23 196 26 201 c 2
 267 600 l 1
 61 600 l 2
 33 600 20 613 20 641 c 2
 20 698 l 2
 20 726 33 739 61 739 c 2
162 835 m 2
 306 907 l 2
 320 914 330 911 335 898 c 2
 357 840 l 2
 362 827 357 817 342 812 c 2
 185 769 l 1
 172 764 163 768 159 781 c 1
 147 809 l 2
 143 818 150 828 162 835 c 2
EndSplineSet
Position2: "'cpsp' Capital Spacing in Latin lookup 0 subtable" dx=7 dy=0 dh=14 dv=0
EndChar

StartChar: zdotaccent
Encoding: 380 380 112
Width: 401
Flags: HMW
HStem: 0 139<48 340 191 340 191 340> 378 139<48 340 61 210> 588 144<145 241 159 241>
VStem: 118 164<629 691 615 705>
LayerCount: 2
Fore
SplineSet
61 517 m 2
 340 517 l 2
 368 517 381 504 381 476 c 2
 381 359 l 2
 381 350 376 339 373 336 c 2
 191 139 l 1
 340 139 l 2
 368 139 381 126 381 98 c 2
 381 41 l 2
 381 13 368 0 340 0 c 2
 61 0 l 2
 33 0 20 13 20 41 c 2
 20 159 l 2
 20 168 24 175 29 182 c 1
 210 378 l 1
 61 378 l 2
 33 378 20 391 20 419 c 2
 20 476 l 2
 20 504 33 517 61 517 c 2
118 629 m 2
 118 691 l 2
 118 719 131 732 159 732 c 2
 241 732 l 2
 269 732 282 719 282 691 c 2
 282 629 l 2
 282 601 269 588 241 588 c 2
 159 588 l 2
 131 588 118 601 118 629 c 2
EndSplineSet
EndChar

StartChar: zcaron
Encoding: 382 382 113
Width: 401
Flags: HMW
HStem: 0 139<48 340 191 340 191 340> 378 139<48 340 61 210> 517 40<159 167 167 243>
LayerCount: 2
Fore
SplineSet
61 517 m 2xc0
 340 517 l 2
 368 517 381 504 381 476 c 2
 381 359 l 2
 381 350 376 339 373 336 c 2
 191 139 l 1
 340 139 l 2
 368 139 381 126 381 98 c 2
 381 41 l 2
 381 13 368 0 340 0 c 2
 61 0 l 2
 33 0 20 13 20 41 c 2
 20 159 l 2
 20 168 24 175 29 182 c 1
 210 378 l 1
 61 378 l 2
 33 378 20 391 20 419 c 2
 20 476 l 2
 20 504 33 517 61 517 c 2xc0
89 718 m 2
 124 736 l 2
 135 741 147 737 152 729 c 2
 205 653 l 1
 258 729 l 2
 265 739 275 741 286 736 c 2
 321 718 l 2
 329 714 331 700 327 692 c 2
 266 571 l 2
 262 563 258 557 243 557 c 2
 167 557 l 2xa0
 152 557 146 564 143 571 c 2
 83 692 l 2
 79 700 81 714 89 718 c 2
EndSplineSet
EndChar

StartChar: zacute
Encoding: 378 378 114
Width: 401
Flags: HMW
HStem: 0 139<48 340 191 340 191 340> 378 139<48 340 61 210>
LayerCount: 2
Fore
SplineSet
61 517 m 2
 340 517 l 2
 368 517 381 504 381 476 c 2
 381 359 l 2
 381 350 376 339 373 336 c 2
 191 139 l 1
 340 139 l 2
 368 139 381 126 381 98 c 2
 381 41 l 2
 381 13 368 0 340 0 c 2
 61 0 l 2
 33 0 20 13 20 41 c 2
 20 159 l 2
 20 168 24 175 29 182 c 1
 210 378 l 1
 61 378 l 2
 33 378 20 391 20 419 c 2
 20 476 l 2
 20 504 33 517 61 517 c 2
183 545 m 2
 148 567 l 2
 140 572 139 586 146 597 c 2
 233 737 l 2
 240 750 251 752 263 743 c 2
 322 698 l 2
 333 690 333 679 324 668 c 2
 212 548 l 2
 203 539 193 538 183 545 c 2
EndSplineSet
EndChar

StartChar: Ydieresis
Encoding: 376 376 115
Width: 517
Flags: HMW
HStem: 0 22G<207 221 221 297> 719 20G<48 135 135 143 403 470 470 482> 777 126<95 178 108 178 338 409>
VStem: 71 144<814 868 802 880> 180 158<41 292> 301 144<814 868 802 880>
LayerCount: 2
Fore
SplineSet
169 718 m 2xe8
 269 462 l 1
 370 718 l 2
 374 729 388 739 403 739 c 2
 470 739 l 2
 494 739 515 716 503 687 c 2
 338 292 l 1
 338 41 l 2
 338 13 325 0 297 0 c 2
 221 0 l 2
 193 0 180 13 180 41 c 2
 180 292 l 1
 14 687 l 2
 5 711 19 739 48 739 c 2
 135 739 l 2
 151 739 165 729 169 718 c 2xe8
301 814 m 2xf4
 301 868 l 2xf4
 301 892 313 903 338 903 c 2xe8
 409 903 l 2
 434 903 445 892 445 868 c 2
 445 814 l 2xf4
 445 789 434 777 409 777 c 2
 338 777 l 2xe8
 313 777 301 789 301 814 c 2xf4
71 814 m 2
 71 868 l 2
 71 892 83 903 108 903 c 2
 178 903 l 2
 203 903 215 892 215 868 c 2
 215 814 l 2
 215 789 203 777 178 777 c 2
 108 777 l 2
 83 777 71 789 71 814 c 2
EndSplineSet
Position2: "'cpsp' Capital Spacing in Latin lookup 0 subtable" dx=7 dy=0 dh=14 dv=0
EndChar

StartChar: Ycircumflex
Encoding: 374 374 116
Width: 517
Flags: HMW
HStem: 0 22G<207 221 221 297> 719 20G<48 135 135 143 403 470 470 482> 893 20G<247 271 271 279>
VStem: 180 158<41 292>
LayerCount: 2
Fore
SplineSet
169 718 m 2
 269 462 l 1
 370 718 l 2
 374 729 388 739 403 739 c 2
 470 739 l 2
 494 739 515 716 503 687 c 2
 338 292 l 1
 338 41 l 2
 338 13 325 0 297 0 c 2
 221 0 l 2
 193 0 180 13 180 41 c 2
 180 292 l 1
 14 687 l 2
 5 711 19 739 48 739 c 2
 135 739 l 2
 151 739 165 729 169 718 c 2
247 913 m 2
 271 913 l 2
 286 913 294 907 302 902 c 2
 398 840 l 2
 406 835 404 823 399 816 c 2
 377 780 l 2
 370 769 360 773 349 778 c 2
 258 820 l 1
 167 778 l 2
 158 774 146 769 139 780 c 2
 116 817 l 2
 112 824 110 835 118 840 c 2
 214 902 l 2
 219 905 232 913 247 913 c 2
EndSplineSet
EndChar

StartChar: Yacute
Encoding: 221 221 117
Width: 517
Flags: HMW
HStem: 0 22G<207 221 221 297> 719 20G<48 135 135 143 403 470 470 482>
VStem: 180 158<41 292>
LayerCount: 2
Fore
SplineSet
169 718 m 2
 269 462 l 1
 370 718 l 2
 374 729 388 739 403 739 c 2
 470 739 l 2
 494 739 515 716 503 687 c 2
 338 292 l 1
 338 41 l 2
 338 13 325 0 297 0 c 2
 221 0 l 2
 193 0 180 13 180 41 c 2
 180 292 l 1
 14 687 l 2
 5 711 19 739 48 739 c 2
 135 739 l 2
 151 739 165 729 169 718 c 2
207 835 m 2
 351 907 l 2
 365 914 375 911 380 898 c 2
 402 840 l 2
 407 827 402 817 387 812 c 2
 230 769 l 1
 217 764 208 768 204 781 c 1
 193 809 l 2
 189 818 195 828 207 835 c 2
EndSplineSet
Position2: "'cpsp' Capital Spacing in Latin lookup 0 subtable" dx=7 dy=0 dh=14 dv=0
EndChar

StartChar: ydieresis
Encoding: 255 255 118
Width: 434
Flags: HMW
HStem: -222 22G<203 214 214 285> -20 20G<110 120 120 203> 497 20G<57 135 135 145 302 376 376 387> 588 126<54 137 67 137 297 368>
VStem: 30 144<625 679 612 691> 260 144<625 679 612 691>
LayerCount: 2
Fore
SplineSet
57 517 m 2
 135 517 l 2
 154 517 168 504 171 487 c 2
 218 129 l 1
 266 487 l 2
 269 504 285 517 302 517 c 2
 376 517 l 2
 398 517 418 500 414 474 c 2
 318 -191 l 2
 315 -211 304 -222 285 -222 c 2
 214 -222 l 2
 192 -222 171 -202 175 -177 c 2
 203 0 l 1
 120 0 l 2
 101 0 87 12 84 31 c 2
 20 473 l 2
 17 497 33 517 57 517 c 2
260 625 m 2
 260 679 l 2
 260 703 272 714 297 714 c 2
 368 714 l 2
 393 714 404 703 404 679 c 2
 404 625 l 2
 404 600 393 588 368 588 c 2
 297 588 l 2
 272 588 260 600 260 625 c 2
30 625 m 2
 30 679 l 2
 30 703 42 714 67 714 c 2
 137 714 l 2
 162 714 174 703 174 679 c 2
 174 625 l 2
 174 600 162 588 137 588 c 2
 67 588 l 2
 42 588 30 600 30 625 c 2
EndSplineSet
EndChar

StartChar: ycircumflex
Encoding: 375 375 119
Width: 434
Flags: HMW
HStem: -222 22G<203 214 214 285> -20 20G<110 120 120 203> 497 20G<57 135 135 145 302 376 376 387> 721 20G<179 255 255 263>
LayerCount: 2
Fore
SplineSet
57 517 m 2
 135 517 l 2
 154 517 168 504 171 487 c 2
 218 129 l 1
 266 487 l 2
 269 504 285 517 302 517 c 2
 376 517 l 2
 398 517 418 500 414 474 c 2
 318 -191 l 2
 315 -211 304 -222 285 -222 c 2
 214 -222 l 2
 192 -222 171 -202 175 -177 c 2
 203 0 l 1
 120 0 l 2
 101 0 87 12 84 31 c 2
 20 473 l 2
 17 497 33 517 57 517 c 2
179 741 m 2
 255 741 l 2
 270 741 275 735 279 727 c 2
 339 606 l 2
 343 598 341 585 333 581 c 2
 298 562 l 1
 287 555 277 560 270 569 c 2
 217 645 l 1
 164 569 l 1
 157 561 147 557 136 562 c 2
 101 581 l 2
 94 585 91 598 95 606 c 2
 156 727 l 2
 159 734 164 741 179 741 c 2
EndSplineSet
EndChar

StartChar: yacute
Encoding: 253 253 120
Width: 434
Flags: HMW
HStem: -222 22G<203 214 214 285> -20 20G<110 120 120 203> 497 20G<57 135 135 145 302 376 376 387>
LayerCount: 2
Fore
SplineSet
57 517 m 2
 135 517 l 2
 154 517 168 504 171 487 c 2
 218 129 l 1
 266 487 l 2
 269 504 285 517 302 517 c 2
 376 517 l 2
 398 517 418 500 414 474 c 2
 318 -191 l 2
 315 -211 304 -222 285 -222 c 2
 214 -222 l 2
 192 -222 171 -202 175 -177 c 2
 203 0 l 1
 120 0 l 2
 101 0 87 12 84 31 c 2
 20 473 l 2
 17 497 33 517 57 517 c 2
190 545 m 2
 156 567 l 2
 148 572 147 586 154 597 c 2
 241 737 l 2
 248 750 258 752 270 743 c 2
 329 698 l 2
 340 690 340 679 331 668 c 2
 219 548 l 2
 210 539 200 538 190 545 c 2
EndSplineSet
EndChar

StartChar: Wcircumflex
Encoding: 372 372 121
Width: 731
Flags: HMW
HStem: 0 22G<106 117 117 271 449 459 459 614> 719 20G<57 131 131 141 322 410 410 419 600 674 674 684> 893 20G<354 379 379 387>
LayerCount: 2
Fore
SplineSet
422 34 m 2
 366 469 l 1
 309 34 l 2
 306 15 290 0 271 0 c 2
 117 0 l 2
 97 0 83 17 80 37 c 1
 20 702 l 1
 17 722 37 739 57 739 c 2
 131 739 l 2
 151 739 165 722 168 702 c 1
 213 155 l 1
 285 706 l 2
 288 725 303 739 322 739 c 2
 410 739 l 2
 429 739 443 725 446 706 c 2
 518 156 l 1
 563 702 l 1
 566 722 580 739 600 739 c 2
 674 739 l 2
 694 739 714 722 711 702 c 1
 651 37 l 1
 648 17 634 0 614 0 c 2
 459 0 l 2
 440 0 425 15 422 34 c 2
354 913 m 2
 379 913 l 2
 394 913 402 907 410 902 c 2
 506 840 l 2
 514 835 512 823 507 816 c 2
 484 780 l 2
 477 769 468 773 457 778 c 2
 366 820 l 1
 274 778 l 2
 265 774 254 769 247 780 c 2
 223 817 l 2
 219 824 217 835 225 840 c 2
 322 902 l 2
 327 905 339 913 354 913 c 2
EndSplineSet
EndChar

StartChar: wcircumflex
Encoding: 373 373 122
Width: 627
Flags: HMW
HStem: 0 22G<94 102 102 248 372 380 380 526> 497 20G<52 137 137 146 283 347 347 355 492 577 577 585> 721 20G<275 351 351 359>
LayerCount: 2
Fore
SplineSet
349 24 m 1
 313 296 l 1
 280 24 l 1
 277 11 263 0 248 0 c 2
 102 0 l 2
 85 0 74 11 71 26 c 1
 20 492 l 2
 19 507 35 517 52 517 c 2
 137 517 l 2
 154 517 168 507 169 492 c 2
 204 137 l 1
 251 494 l 1
 254 507 266 517 283 517 c 2
 347 517 l 2
 363 517 375 507 378 494 c 1
 425 135 l 1
 460 492 l 2
 461 507 475 517 492 517 c 2
 577 517 l 2
 593 517 608 507 607 492 c 2
 557 26 l 1
 554 11 542 0 526 0 c 2
 380 0 l 2
 365 0 352 11 349 24 c 1
275 741 m 2
 351 741 l 2
 366 741 371 735 375 727 c 2
 435 606 l 2
 439 598 437 585 429 581 c 2
 394 562 l 1
 383 555 374 560 367 569 c 2
 313 645 l 1
 260 569 l 1
 253 561 243 557 232 562 c 2
 198 581 l 2
 191 585 187 598 191 606 c 2
 252 727 l 2
 255 734 260 741 275 741 c 2
EndSplineSet
EndChar

StartChar: Utilde
Encoding: 360 360 123
Width: 543
Flags: HMW
HStem: 0 139<161 275 268 275 275 295 268 335> 719 20G<92 168 168 182 376 452 452 465>
VStem: 51 158<180 200 200 698> 335 158<0 157 200 698>
LayerCount: 2
Fore
SplineSet
51 158 m 2
 51 698 l 2
 51 726 64 739 92 739 c 2
 168 739 l 2
 196 739 209 726 209 698 c 2
 209 200 l 2
 209 160 228 139 268 139 c 2
 275 139 l 2
 315 139 335 160 335 200 c 2
 335 698 l 2
 335 726 348 739 376 739 c 2
 452 739 l 2
 480 739 493 726 493 698 c 2
 493 157 l 2
 493 65 429 0 335 0 c 2
 208 0 l 2
 114 0 51 64 51 158 c 2
99 816 m 2
 125 858 l 2
 151 900 220 909 294 872 c 2
 306 866 l 2
 322 858 329 855 337 866 c 2
 343 874 l 2
 352 887 358 891 370 891 c 2
 430 891 l 2
 445 891 452 878 443 863 c 2
 418 820 l 2
 392 776 323 771 249 807 c 2
 234 814 l 2
 219 821 213 823 206 812 c 1
 200 804 l 2
 191 792 185 787 173 787 c 2
 112 787 l 2
 99 787 91 801 99 816 c 2
EndSplineSet
EndChar

StartChar: Uring
Encoding: 366 366 124
Width: 543
Flags: HMW
HStem: 0 139<161 275 268 275 275 295 268 335> 719 20G<92 168 168 182 376 452 452 465> 761 60<262 283 262 299> 893 59<262 283>
VStem: 51 158<180 200 200 698> 176 60<847 867 847 884> 308 59<847 867> 335 158<0 157 200 698>
LayerCount: 2
Fore
SplineSet
51 158 m 2xf9
 51 698 l 2
 51 726 64 739 92 739 c 2
 168 739 l 2
 196 739 209 726 209 698 c 2
 209 200 l 2
 209 160 228 139 268 139 c 2
 275 139 l 2
 315 139 335 160 335 200 c 2
 335 698 l 2
 335 726 348 739 376 739 c 2
 452 739 l 2
 480 739 493 726 493 698 c 2
 493 157 l 2
 493 65 429 0 335 0 c 2
 208 0 l 2
 114 0 51 64 51 158 c 2xf9
272 952 m 0
 325 952 368 910 368 857 c 0
 368 804 325 761 272 761 c 0
 219 761 176 804 176 857 c 0xf6
 176 910 219 952 272 952 c 0
272 893 m 0
 252 893 237 877 237 857 c 0
 237 837 252 821 272 821 c 0
 292 821 308 837 308 857 c 0
 308 877 292 893 272 893 c 0
EndSplineSet
Position2: "'cpsp' Capital Spacing in Latin lookup 0 subtable" dx=7 dy=0 dh=14 dv=0
EndChar

StartChar: Uogonek
Encoding: 370 370 125
Width: 543
Flags: HMW
HStem: -222 74<217 336 286 336 336 337> 0 139<161 275 208 275 268 319 268 335> 719 20G<92 168 168 182 376 452 452 465>
VStem: 51 158<180 200 200 698> 335 158<0 157 200 698>
LayerCount: 2
Fore
SplineSet
187 -108 m 2
 233 0 l 1
 208 0 l 2
 114 0 51 64 51 158 c 2
 51 698 l 2
 51 726 64 739 92 739 c 2
 168 739 l 2
 196 739 209 726 209 698 c 2
 209 200 l 2
 209 160 228 139 268 139 c 2
 275 139 l 2
 315 139 335 160 335 200 c 2
 335 698 l 2
 335 726 348 739 376 739 c 2
 452 739 l 2
 480 739 493 726 493 698 c 2
 493 157 l 2
 493 65 429 0 335 0 c 2
 319 0 l 1
 268 -116 l 2
 260 -133 267 -148 286 -148 c 2
 336 -148 l 2
 351 -148 361 -155 361 -170 c 2
 361 -202 l 2
 361 -215 349 -222 337 -222 c 2
 243 -222 l 2
 191 -222 164 -158 187 -108 c 2
EndSplineSet
Position2: "'cpsp' Capital Spacing in Latin lookup 0 subtable" dx=7 dy=0 dh=14 dv=0
EndChar

StartChar: Umacron
Encoding: 362 362 126
Width: 543
Flags: HMW
HStem: 0 139<161 275 268 275 275 295 268 335> 719 20G<92 168 168 182 376 452 452 465> 799 103<146 383 160 383>
VStem: 51 158<180 200 200 698> 335 158<0 157 200 698>
LayerCount: 2
Fore
SplineSet
51 158 m 2
 51 698 l 2
 51 726 64 739 92 739 c 2
 168 739 l 2
 196 739 209 726 209 698 c 2
 209 200 l 2
 209 160 228 139 268 139 c 2
 275 139 l 2
 315 139 335 160 335 200 c 2
 335 698 l 2
 335 726 348 739 376 739 c 2
 452 739 l 2
 480 739 493 726 493 698 c 2
 493 157 l 2
 493 65 429 0 335 0 c 2
 208 0 l 2
 114 0 51 64 51 158 c 2
119 840 m 2
 119 861 l 2
 119 889 132 902 160 902 c 2
 383 902 l 2
 411 902 424 889 424 861 c 2
 424 840 l 2
 424 812 411 799 383 799 c 2
 160 799 l 2
 132 799 119 812 119 840 c 2
EndSplineSet
Position2: "'cpsp' Capital Spacing in Latin lookup 0 subtable" dx=7 dy=0 dh=14 dv=0
EndChar

StartChar: Uhungarumlaut
Encoding: 368 368 127
Width: 543
Flags: HMW
HStem: 0 139<161 275 268 275 275 295 268 335> 719 20G<92 168 168 182 376 452 452 465>
VStem: 51 158<180 200 200 698> 335 158<0 157 200 698>
LayerCount: 2
Fore
SplineSet
51 158 m 2
 51 698 l 2
 51 726 64 739 92 739 c 2
 168 739 l 2
 196 739 209 726 209 698 c 2
 209 200 l 2
 209 160 228 139 268 139 c 2
 275 139 l 2
 315 139 335 160 335 200 c 2
 335 698 l 2
 335 726 348 739 376 739 c 2
 452 739 l 2
 480 739 493 726 493 698 c 2
 493 157 l 2
 493 65 429 0 335 0 c 2
 208 0 l 2
 114 0 51 64 51 158 c 2
319 781 m 2
 308 809 l 2
 305 818 311 830 323 835 c 2
 467 907 l 2
 481 914 491 911 496 898 c 2
 518 840 l 1
 522 826 517 816 503 812 c 2
 346 769 l 2
 333 766 324 768 319 781 c 2
73 781 m 2
 61 809 l 2
 58 818 64 830 76 835 c 2
 220 907 l 2
 234 914 244 911 249 898 c 2
 271 840 l 1
 275 826 270 816 256 812 c 2
 99 769 l 2
 86 766 78 768 73 781 c 2
EndSplineSet
Position2: "'cpsp' Capital Spacing in Latin lookup 0 subtable" dx=7 dy=0 dh=14 dv=0
EndChar

StartChar: Ugrave
Encoding: 217 217 128
Width: 543
Flags: HMW
HStem: 0 139<161 275 268 275 275 295 268 335> 719 20G<92 168 168 182 376 452 452 465>
VStem: 51 158<180 200 200 698> 335 158<0 157 200 698>
LayerCount: 2
Fore
SplineSet
51 158 m 2
 51 698 l 2
 51 726 64 739 92 739 c 2
 168 739 l 2
 196 739 209 726 209 698 c 2
 209 200 l 2
 209 160 228 139 268 139 c 2
 275 139 l 2
 315 139 335 160 335 200 c 2
 335 698 l 2
 335 726 348 739 376 739 c 2
 452 739 l 2
 480 739 493 726 493 698 c 2
 493 157 l 2
 493 65 429 0 335 0 c 2
 208 0 l 2
 114 0 51 64 51 158 c 2
147 840 m 2
 170 898 l 2
 175 911 186 914 199 907 c 2
 343 835 l 2
 351 831 360 819 356 808 c 2
 346 781 l 2
 341 769 332 765 319 769 c 2
 163 812 l 2
 148 817 142 827 147 840 c 2
EndSplineSet
Position2: "'cpsp' Capital Spacing in Latin lookup 0 subtable" dx=7 dy=0 dh=14 dv=0
EndChar

StartChar: Udieresis
Encoding: 220 220 129
Width: 543
Flags: HMW
HStem: 0 139<161 275 268 275 275 295 268 335> 719 20G<92 168 168 182 376 452 452 465> 777 126<109 191 121 191 351 422>
VStem: 51 158<180 200 200 698> 84 144<814 868 802 880> 314 144<814 868 802 880> 335 158<0 157 200 698>
LayerCount: 2
Fore
SplineSet
51 158 m 2xf2
 51 698 l 2
 51 726 64 739 92 739 c 2
 168 739 l 2
 196 739 209 726 209 698 c 2
 209 200 l 2
 209 160 228 139 268 139 c 2
 275 139 l 2
 315 139 335 160 335 200 c 2
 335 698 l 2
 335 726 348 739 376 739 c 2
 452 739 l 2
 480 739 493 726 493 698 c 2
 493 157 l 2
 493 65 429 0 335 0 c 2
 208 0 l 2
 114 0 51 64 51 158 c 2xf2
314 814 m 2xec
 314 868 l 2
 314 892 326 903 351 903 c 2
 422 903 l 2
 447 903 459 892 459 868 c 2
 459 814 l 2
 459 789 447 777 422 777 c 2
 351 777 l 2
 326 777 314 789 314 814 c 2xec
84 814 m 2
 84 868 l 2
 84 892 96 903 121 903 c 2
 191 903 l 2
 216 903 228 892 228 868 c 2
 228 814 l 2
 228 789 216 777 191 777 c 2
 121 777 l 2
 96 777 84 789 84 814 c 2
EndSplineSet
Position2: "'cpsp' Capital Spacing in Latin lookup 0 subtable" dx=7 dy=0 dh=14 dv=0
EndChar

StartChar: Ucircumflex
Encoding: 219 219 130
Width: 543
Flags: HMW
HStem: 0 139<161 275 268 275 275 295 268 335> 719 20G<92 168 168 182 376 452 452 465> 893 20G<260 285 285 292>
VStem: 51 158<180 200 200 698> 335 158<0 157 200 698>
LayerCount: 2
Fore
SplineSet
51 158 m 2
 51 698 l 2
 51 726 64 739 92 739 c 2
 168 739 l 2
 196 739 209 726 209 698 c 2
 209 200 l 2
 209 160 228 139 268 139 c 2
 275 139 l 2
 315 139 335 160 335 200 c 2
 335 698 l 2
 335 726 348 739 376 739 c 2
 452 739 l 2
 480 739 493 726 493 698 c 2
 493 157 l 2
 493 65 429 0 335 0 c 2
 208 0 l 2
 114 0 51 64 51 158 c 2
260 913 m 2
 285 913 l 2
 300 913 307 907 315 902 c 2
 412 840 l 2
 420 835 418 823 413 816 c 2
 390 780 l 2
 383 769 373 773 362 778 c 2
 271 820 l 1
 180 778 l 2
 171 774 160 769 153 780 c 2
 129 817 l 2
 125 824 123 835 131 840 c 2
 227 902 l 2
 232 905 245 913 260 913 c 2
EndSplineSet
Position2: "'cpsp' Capital Spacing in Latin lookup 0 subtable" dx=7 dy=0 dh=14 dv=0
EndChar

StartChar: Ubreve
Encoding: 364 364 131
Width: 543
Flags: HMW
HStem: 0 139<161 275 268 275 275 295 268 335> 719 20G<92 168 168 182 376 452 452 465> 768 79<257 286 257 315> 768 116<148 315>
VStem: 51 158<180 200 200 698> 335 158<0 157 200 698>
LayerCount: 2
Fore
SplineSet
51 158 m 2xdc
 51 698 l 2
 51 726 64 739 92 739 c 2
 168 739 l 2
 196 739 209 726 209 698 c 2
 209 200 l 2
 209 160 228 139 268 139 c 2
 275 139 l 2
 315 139 335 160 335 200 c 2
 335 698 l 2
 335 726 348 739 376 739 c 2
 452 739 l 2
 480 739 493 726 493 698 c 2
 493 157 l 2
 493 65 429 0 335 0 c 2
 208 0 l 2
 114 0 51 64 51 158 c 2xdc
148 884 m 2
 203 884 l 2xdc
 214 884 218 877 219 873 c 0
 224 856 241 847 271 847 c 0xec
 300 847 321 857 325 873 c 0
 326 877 331 884 340 884 c 2
 394 884 l 2
 404 884 410 878 410 867 c 0
 410 823 358 768 271 768 c 0
 188 768 133 822 133 866 c 0
 133 877 138 884 148 884 c 2
EndSplineSet
EndChar

StartChar: Uacute
Encoding: 218 218 132
Width: 543
Flags: HMW
HStem: 0 139<161 275 268 275 275 295 268 335> 719 20G<92 168 168 182 376 452 452 465>
VStem: 51 158<180 200 200 698> 335 158<0 157 200 698>
LayerCount: 2
Fore
SplineSet
51 158 m 2
 51 698 l 2
 51 726 64 739 92 739 c 2
 168 739 l 2
 196 739 209 726 209 698 c 2
 209 200 l 2
 209 160 228 139 268 139 c 2
 275 139 l 2
 315 139 335 160 335 200 c 2
 335 698 l 2
 335 726 348 739 376 739 c 2
 452 739 l 2
 480 739 493 726 493 698 c 2
 493 157 l 2
 493 65 429 0 335 0 c 2
 208 0 l 2
 114 0 51 64 51 158 c 2
223 835 m 2
 368 907 l 2
 382 914 391 911 396 898 c 2
 419 840 l 2
 424 827 418 817 403 812 c 2
 247 769 l 1
 234 764 224 768 220 781 c 1
 209 809 l 2
 205 818 211 828 223 835 c 2
EndSplineSet
Position2: "'cpsp' Capital Spacing in Latin lookup 0 subtable" dx=7 dy=0 dh=14 dv=0
EndChar

StartChar: utilde
Encoding: 361 361 133
Width: 479
Flags: HMW
HStem: -20 20G<289 391 289 289> -3 22G<117 148> 497 20G<92 168 168 182 311 387 387 401>
VStem: 51 158<155 164 164 476> 270 158<25 37 136 476>
LayerCount: 2
Fore
SplineSet
428 476 m 2x78
 428 37 l 2
 428 17 411 0 391 0 c 2
 289 0 l 1xb8
 270 25 l 1
 171 1 l 2
 162 -2 152 -3 143 -3 c 0
 91 -3 51 36 51 97 c 2
 51 476 l 2
 51 504 64 517 92 517 c 2
 168 517 l 2
 196 517 209 504 209 476 c 2
 209 164 l 2
 209 147 222 136 237 136 c 2
 270 136 l 1
 270 476 l 2
 270 504 283 517 311 517 c 2
 387 517 l 2
 415 517 428 504 428 476 c 2x78
68 616 m 2
 93 663 l 1
 118 704 195 726 262 676 c 1
 274 669 l 1
 289 658 300 658 305 669 c 1
 311 679 l 1
 320 692 326 695 338 695 c 2
 398 695 l 2
 413 695 420 683 412 668 c 2
 386 621 l 2
 361 577 283 557 217 606 c 1
 203 616 l 2
 190 625 179 625 174 614 c 1
 168 604 l 2
 160 591 153 588 141 588 c 2
 80 588 l 2
 67 588 60 601 68 616 c 2
EndSplineSet
EndChar

StartChar: uring
Encoding: 367 367 134
Width: 479
Flags: HMW
HStem: -20 20G<289 391 289 289> -3 22G<117 148> 497 20G<92 168 168 182 311 387 387 401> 582 60<229 250 229 266> 714 59<229 250>
VStem: 51 158<155 164 164 476> 143 66 270 65 270 158<25 37 136 476>
LayerCount: 2
Fore
SplineSet
428 476 m 2x7c80
 428 37 l 2
 428 17 411 0 391 0 c 2
 289 0 l 1xba80
 270 25 l 1
 171 1 l 2
 162 -2 152 -3 143 -3 c 0x7a80
 91 -3 51 36 51 97 c 2
 51 476 l 2
 51 504 64 517 92 517 c 2
 168 517 l 2
 196 517 209 504 209 476 c 2
 209 164 l 2
 209 147 222 136 237 136 c 2
 270 136 l 1
 270 476 l 2
 270 504 283 517 311 517 c 2
 387 517 l 2
 415 517 428 504 428 476 c 2x7c80
240 773 m 0
 293 773 335 731 335 678 c 0x7d
 335 625 293 582 240 582 c 0
 187 582 143 625 143 678 c 0
 143 731 187 773 240 773 c 0
240 714 m 0
 220 714 204 698 204 678 c 0
 204 658 220 642 240 642 c 0
 260 642 275 658 275 678 c 0
 275 698 260 714 240 714 c 0
EndSplineSet
EndChar

StartChar: uogonek
Encoding: 371 371 135
Width: 479
Flags: HMW
HStem: -222 74<272 391 341 391 391 392> -20 20G<289 289 375 375 375 391> 497 20G<92 168 168 182 311 387 387 401>
VStem: 51 158<155 164 164 476> 270 158<25 37 136 476>
LayerCount: 2
Fore
SplineSet
243 -108 m 2
 289 0 l 1
 270 25 l 1
 171 1 l 2
 162 -2 152 -3 143 -3 c 0
 91 -3 51 36 51 97 c 2
 51 476 l 2
 51 504 64 517 92 517 c 2
 168 517 l 2
 196 517 209 504 209 476 c 2
 209 164 l 2
 209 147 222 136 237 136 c 2
 270 136 l 1
 270 476 l 2
 270 504 283 517 311 517 c 2
 387 517 l 2
 415 517 428 504 428 476 c 2
 428 37 l 2
 428 17 411 0 391 0 c 2
 375 0 l 1
 324 -116 l 2
 316 -133 322 -148 341 -148 c 2
 391 -148 l 2
 406 -148 417 -155 417 -170 c 2
 417 -202 l 2
 417 -215 404 -222 392 -222 c 2
 298 -222 l 2
 246 -222 220 -158 243 -108 c 2
EndSplineSet
EndChar

StartChar: umacron
Encoding: 363 363 136
Width: 479
Flags: HMW
HStem: -20 20G<289 391 289 289> -3 22G<117 148> 497 20G<92 168 168 182 311 387 387 401> 588 103<127 338 141 338>
VStem: 51 158<155 164 164 476> 270 158<25 37 136 476>
LayerCount: 2
Fore
SplineSet
428 476 m 2x7c
 428 37 l 2
 428 17 411 0 391 0 c 2
 289 0 l 1xbc
 270 25 l 1
 171 1 l 2
 162 -2 152 -3 143 -3 c 0
 91 -3 51 36 51 97 c 2
 51 476 l 2
 51 504 64 517 92 517 c 2
 168 517 l 2
 196 517 209 504 209 476 c 2
 209 164 l 2
 209 147 222 136 237 136 c 2
 270 136 l 1
 270 476 l 2
 270 504 283 517 311 517 c 2
 387 517 l 2
 415 517 428 504 428 476 c 2x7c
100 629 m 2
 100 650 l 2
 100 678 113 691 141 691 c 2
 338 691 l 2
 366 691 379 678 379 650 c 2
 379 629 l 2
 379 601 366 588 338 588 c 2
 141 588 l 2
 113 588 100 601 100 629 c 2
EndSplineSet
EndChar

StartChar: uhungarumlaut
Encoding: 369 369 137
Width: 479
Flags: HMW
HStem: -20 20G<289 391 289 289> -3 22G<117 148> 497 20G<92 168 168 182 311 387 387 401>
VStem: 51 158<155 164 164 476> 270 158<25 37 136 476>
LayerCount: 2
Fore
SplineSet
428 476 m 2x78
 428 37 l 2
 428 17 411 0 391 0 c 2
 289 0 l 1xb8
 270 25 l 1
 171 1 l 2
 162 -2 152 -3 143 -3 c 0
 91 -3 51 36 51 97 c 2
 51 476 l 2
 51 504 64 517 92 517 c 2
 168 517 l 2
 196 517 209 504 209 476 c 2
 209 164 l 2
 209 147 222 136 237 136 c 2
 270 136 l 1
 270 476 l 2
 270 504 283 517 311 517 c 2
 387 517 l 2
 415 517 428 504 428 476 c 2x78
303 545 m 2
 268 567 l 2
 260 572 259 586 266 597 c 2
 353 737 l 2
 360 750 371 752 383 743 c 2
 441 698 l 2
 452 690 452 679 443 668 c 2
 332 548 l 2
 323 539 313 538 303 545 c 2
114 545 m 2
 79 567 l 2
 71 572 70 586 77 597 c 2
 164 737 l 2
 171 750 182 752 194 743 c 2
 252 698 l 2
 263 690 263 679 254 668 c 2
 142 548 l 2
 133 539 124 538 114 545 c 2
EndSplineSet
EndChar

StartChar: ugrave
Encoding: 249 249 138
Width: 479
Flags: HMW
HStem: -20 20G<289 391 289 289> -3 22G<117 148> 497 20G<92 168 168 182 311 387 387 401>
VStem: 51 158<155 164 164 476> 270 158<25 37 136 476>
LayerCount: 2
Fore
SplineSet
428 476 m 2x78
 428 37 l 2
 428 17 411 0 391 0 c 2
 289 0 l 1xb8
 270 25 l 1
 171 1 l 2
 162 -2 152 -3 143 -3 c 0
 91 -3 51 36 51 97 c 2
 51 476 l 2
 51 504 64 517 92 517 c 2
 168 517 l 2
 196 517 209 504 209 476 c 2
 209 164 l 2
 209 147 222 136 237 136 c 2
 270 136 l 1
 270 476 l 2
 270 504 283 517 311 517 c 2
 387 517 l 2
 415 517 428 504 428 476 c 2x78
137 698 m 2
 196 743 l 2
 208 752 218 750 225 737 c 2
 312 597 l 2
 319 586 318 574 310 567 c 1
 275 545 l 2
 264 538 255 539 247 548 c 2
 135 668 l 2
 125 679 126 689 137 698 c 2
EndSplineSet
EndChar

StartChar: udieresis
Encoding: 252 252 139
Width: 479
Flags: HMW
HStem: -20 20G<289 391 289 289> -3 22G<117 148> 497 20G<92 168 168 182 311 387 387 401> 588 126<79 162 91 162 322 392>
VStem: 51 158<155 164 164 476> 270 158<25 37 136 476> 285 143
LayerCount: 2
Fore
SplineSet
428 476 m 2x7c
 428 37 l 2
 428 17 411 0 391 0 c 2
 289 0 l 1xbc
 270 25 l 1
 171 1 l 2
 162 -2 152 -3 143 -3 c 0
 91 -3 51 36 51 97 c 2
 51 476 l 2
 51 504 64 517 92 517 c 2
 168 517 l 2
 196 517 209 504 209 476 c 2
 209 164 l 2
 209 147 222 136 237 136 c 2
 270 136 l 1
 270 476 l 2
 270 504 283 517 311 517 c 2
 387 517 l 2
 415 517 428 504 428 476 c 2x7c
285 625 m 2x7a
 285 679 l 2
 285 703 297 714 322 714 c 2
 392 714 l 2
 417 714 429 703 429 679 c 2
 429 625 l 2
 429 600 417 588 392 588 c 2
 322 588 l 2
 297 588 285 600 285 625 c 2x7a
54 625 m 2
 54 679 l 2
 54 703 66 714 91 714 c 2
 162 714 l 2
 187 714 199 703 199 679 c 2
 199 625 l 2
 199 600 187 588 162 588 c 2
 91 588 l 2
 66 588 54 600 54 625 c 2
EndSplineSet
EndChar

StartChar: ucircumflex
Encoding: 251 251 140
Width: 479
Flags: HMW
HStem: -20 20G<289 391 289 289> -3 22G<117 148> 497 20G<92 168 168 182 311 387 387 401> 721 20G<202 278 278 285>
VStem: 51 158<155 164 164 476> 270 158<25 37 136 476>
LayerCount: 2
Fore
SplineSet
428 476 m 2x7c
 428 37 l 2
 428 17 411 0 391 0 c 2
 289 0 l 1xbc
 270 25 l 1
 171 1 l 2
 162 -2 152 -3 143 -3 c 0
 91 -3 51 36 51 97 c 2
 51 476 l 2
 51 504 64 517 92 517 c 2
 168 517 l 2
 196 517 209 504 209 476 c 2
 209 164 l 2
 209 147 222 136 237 136 c 2
 270 136 l 1
 270 476 l 2
 270 504 283 517 311 517 c 2
 387 517 l 2
 415 517 428 504 428 476 c 2x7c
202 741 m 2
 278 741 l 2
 293 741 297 735 301 727 c 2
 361 606 l 2
 365 598 363 585 355 581 c 2
 321 562 l 1
 310 555 300 560 293 569 c 2
 240 645 l 1
 186 569 l 1
 179 561 170 557 159 562 c 2
 124 581 l 2
 117 585 114 598 118 606 c 2
 178 727 l 2
 181 734 187 741 202 741 c 2
EndSplineSet
EndChar

StartChar: ubreve
Encoding: 365 365 141
Width: 479
Flags: HMW
HStem: -20 20G<289 391 289 289> -3 22G<117 148> 497 20G<92 168 168 182 311 387 387 401> 582 79<225 254 225 283> 582 116<117 283>
VStem: 51 158<155 164 164 476> 270 158<25 37 136 476>
LayerCount: 2
Fore
SplineSet
428 476 m 2x76
 428 37 l 2
 428 17 411 0 391 0 c 2
 289 0 l 1xae
 270 25 l 1
 171 1 l 2
 162 -2 152 -3 143 -3 c 0
 91 -3 51 36 51 97 c 2
 51 476 l 2
 51 504 64 517 92 517 c 2
 168 517 l 2
 196 517 209 504 209 476 c 2
 209 164 l 2
 209 147 222 136 237 136 c 2
 270 136 l 1
 270 476 l 2
 270 504 283 517 311 517 c 2
 387 517 l 2
 415 517 428 504 428 476 c 2x76
117 697 m 2
 171 697 l 2x6e
 182 697 186 691 187 687 c 0
 192 670 210 660 240 660 c 0x76
 269 660 289 671 293 687 c 0
 294 691 299 697 308 697 c 2
 362 697 l 2
 372 697 378 692 378 681 c 0
 378 637 327 582 240 582 c 0
 157 582 101 636 101 680 c 0
 101 691 107 697 117 697 c 2
EndSplineSet
EndChar

StartChar: uacute
Encoding: 250 250 142
Width: 479
Flags: HMW
HStem: -20 20G<289 391 289 289> -3 22G<117 148> 497 20G<92 168 168 182 311 387 387 401>
VStem: 51 158<155 164 164 476> 270 158<25 37 136 476>
LayerCount: 2
Fore
SplineSet
428 476 m 2x78
 428 37 l 2
 428 17 411 0 391 0 c 2
 289 0 l 1xb8
 270 25 l 1
 171 1 l 2
 162 -2 152 -3 143 -3 c 0
 91 -3 51 36 51 97 c 2
 51 476 l 2
 51 504 64 517 92 517 c 2
 168 517 l 2
 196 517 209 504 209 476 c 2
 209 164 l 2
 209 147 222 136 237 136 c 2
 270 136 l 1
 270 476 l 2
 270 504 283 517 311 517 c 2
 387 517 l 2
 415 517 428 504 428 476 c 2x78
212 545 m 2
 177 567 l 2
 169 572 168 586 175 597 c 2
 262 737 l 2
 269 750 280 752 292 743 c 2
 350 698 l 2
 361 690 361 679 352 668 c 2
 241 548 l 2
 232 539 222 538 212 545 c 2
EndSplineSet
EndChar

StartChar: Tbar
Encoding: 358 358 143
Width: 490
Flags: HMW
HStem: 0 22G<193 207 207 283> 237 139<72 166 86 166 324 403> 600 139<38 438 52 166 324 324 324 438>
VStem: 166 158<41 237 376 600>
LayerCount: 2
Fore
SplineSet
45 278 m 2
 45 335 l 2
 45 363 58 376 86 376 c 2
 166 376 l 1
 166 600 l 1
 52 600 l 2
 24 600 11 613 11 641 c 2
 11 698 l 2
 11 726 24 739 52 739 c 2
 438 739 l 2
 466 739 479 726 479 698 c 2
 479 641 l 2
 479 613 466 600 438 600 c 2
 324 600 l 1
 324 376 l 1
 403 376 l 2
 431 376 444 363 444 335 c 2
 444 278 l 2
 444 250 431 237 403 237 c 2
 324 237 l 1
 324 41 l 2
 324 13 311 0 283 0 c 2
 207 0 l 2
 179 0 166 13 166 41 c 2
 166 237 l 1
 86 237 l 2
 58 237 45 250 45 278 c 2
EndSplineSet
EndChar

StartChar: Tcaron
Encoding: 356 356 144
Width: 490
Flags: HMW
HStem: 0 22G<193 207 207 283> 600 139<38 438 52 166 324 324 324 438> 739 29<226 233 233 258 226 438>
VStem: 166 158<41 600>
LayerCount: 2
Fore
SplineSet
166 41 m 2xd0
 166 600 l 1
 52 600 l 2
 24 600 11 613 11 641 c 2
 11 698 l 2
 11 726 24 739 52 739 c 2
 438 739 l 2
 466 739 479 726 479 698 c 2
 479 641 l 2
 479 613 466 600 438 600 c 2
 324 600 l 1
 324 41 l 2
 324 13 311 0 283 0 c 2
 207 0 l 2
 179 0 166 13 166 41 c 2xd0
103 865 m 2
 126 901 l 2
 133 912 145 907 154 903 c 2
 245 861 l 1
 336 903 l 2
 347 908 357 912 364 901 c 2
 386 865 l 2
 390 858 392 847 385 842 c 2
 289 779 l 2
 282 774 273 768 258 768 c 2
 233 768 l 2xb0
 218 768 206 776 201 779 c 2
 104 842 l 2
 101 845 99 848 99 852 c 0
 99 857 100 861 103 865 c 2
EndSplineSet
Position2: "'cpsp' Capital Spacing in Latin lookup 0 subtable" dx=7 dy=0 dh=14 dv=0
EndChar

StartChar: tbar
Encoding: 359 359 145
Width: 335
Flags: HMW
HStem: 0 139<161 284 279 284 279 284> 208 124<58 78 72 78 236 264> 378 139<58 78 72 78 236 264> 645 20G<119 195 195 208>
VStem: 78 158<168 182 182 208 168 208 332 378 517 625> 78 247<27 208 27 208>
LayerCount: 2
Fore
SplineSet
78 332 m 1xf8
 78 378 l 1
 72 378 l 2
 44 378 31 391 31 419 c 2
 31 476 l 2
 31 504 44 517 72 517 c 2
 78 517 l 1
 78 625 l 2
 78 653 91 666 119 666 c 2
 195 666 l 2
 223 666 236 653 236 625 c 2
 236 517 l 1
 264 517 l 2
 292 517 305 504 305 476 c 2
 305 419 l 2
 305 391 292 378 264 378 c 2
 236 378 l 1
 236 332 l 1
 264 332 l 2
 292 332 305 319 305 291 c 2
 305 249 l 2
 305 221 292 208 264 208 c 2
 236 208 l 1
 236 182 l 2xf8
 236 153 250 139 279 139 c 2
 284 139 l 2
 312 139 325 126 325 98 c 2
 325 41 l 2xf4
 325 13 312 0 284 0 c 2
 196 0 l 2
 126 0 78 45 78 123 c 2
 78 208 l 1
 72 208 l 2
 44 208 31 221 31 249 c 2
 31 291 l 2
 31 319 44 332 72 332 c 2
 78 332 l 1xf8
EndSplineSet
EndChar

StartChar: tcaron
Encoding: 357 357 146
Width: 381
Flags: HMW
HStem: 0 139<161 284 279 284 279 284> 378 139<58 78 72 78 236 264> 793 20G<268 335 335 345>
VStem: 78 247<27 378> 231 140<707 776 669 786>
LayerCount: 2
Fore
SplineSet
78 123 m 2xf0
 78 378 l 1
 72 378 l 2
 44 378 31 391 31 419 c 2
 31 476 l 2
 31 504 44 517 72 517 c 2
 78 517 l 1
 78 625 l 2
 78 653 91 666 119 666 c 2
 195 666 l 2
 223 666 236 653 236 625 c 2
 236 517 l 1
 264 517 l 2
 292 517 305 504 305 476 c 2
 305 419 l 2
 305 391 292 378 264 378 c 2
 236 378 l 1
 236 182 l 2
 236 153 250 139 279 139 c 2
 284 139 l 2
 312 139 325 126 325 98 c 2
 325 41 l 2
 325 13 312 0 284 0 c 2
 196 0 l 2
 126 0 78 45 78 123 c 2xf0
231 707 m 2xe8
 231 776 l 2
 231 796 249 813 268 813 c 2
 335 813 l 2
 354 813 372 796 372 776 c 2
 372 669 l 1
 345 592 l 2
 338 572 327 554 308 554 c 2
 265 554 l 1
 282 669 l 1
 268 669 l 2
 249 669 231 687 231 707 c 2xe8
EndSplineSet
EndChar

StartChar: Scircumflex
Encoding: 348 348 147
Width: 421
Flags: HMW
HStem: 0 139<66 176 80 176 176 199 80 245> 600 139<221 242 242 324> 893 20G<200 224 224 232>
VStem: 20 158<513 526 526 534 513 583 513 629> 244 158<206 213 213 227>
LayerCount: 2
Fore
SplineSet
216 270 m 2
 76 375 l 2
 42 400 20 434 20 486 c 2
 20 583 l 2
 20 676 85 739 177 739 c 2
 324 739 l 2
 352 739 365 726 365 698 c 2
 365 641 l 2
 365 613 352 600 324 600 c 2
 242 600 l 2
 200 600 178 578 178 534 c 2
 178 526 l 2
 178 498 189 481 206 469 c 2
 346 365 l 2
 380 340 401 305 401 253 c 2
 401 157 l 2
 401 65 338 0 245 0 c 2
 80 0 l 2
 52 0 39 13 39 41 c 2
 39 98 l 2
 39 126 52 139 80 139 c 2
 176 139 l 2
 221 139 244 162 244 206 c 2
 244 213 l 2
 244 241 233 258 216 270 c 2
200 913 m 2
 224 913 l 2
 239 913 247 907 255 902 c 2
 351 840 l 2
 359 835 357 823 352 816 c 2
 330 780 l 2
 323 769 313 773 302 778 c 2
 211 820 l 1
 120 778 l 2
 111 774 99 769 92 780 c 2
 69 817 l 2
 65 824 63 835 71 840 c 2
 167 902 l 2
 172 905 185 913 200 913 c 2
EndSplineSet
EndChar

StartChar: Scedilla
Encoding: 350 350 148
Width: 421
Flags: HMW
HStem: -222 66<137 141 141 211 211 218 137 250> -105 61<151 249 158 249> 0 139<66 176 80 148 80 221 80 245> 600 139<221 242 242 324>
VStem: 20 158<513 526 526 534 513 583 513 629> 232 71<-138 -123 -123 -117> 232 169
LayerCount: 2
Fore
SplineSet
136 -80 m 2xfc
 148 0 l 1
 80 0 l 2
 52 0 39 13 39 41 c 2
 39 98 l 2
 39 126 52 139 80 139 c 2
 176 139 l 2
 221 139 244 162 244 206 c 2
 244 213 l 2
 244 241 233 258 216 270 c 2
 76 375 l 2
 42 400 20 434 20 486 c 2
 20 583 l 2
 20 676 85 739 177 739 c 2
 324 739 l 2
 352 739 365 726 365 698 c 2
 365 641 l 2
 365 613 352 600 324 600 c 2
 242 600 l 2
 200 600 178 578 178 534 c 2
 178 526 l 2
 178 498 189 481 206 469 c 2
 346 365 l 2
 380 340 401 305 401 253 c 2
 401 157 l 2xfa
 401 65 338 0 245 0 c 2
 221 0 l 1
 214 -44 l 1
 249 -44 l 2
 282 -44 303 -66 303 -98 c 2
 303 -167 l 2
 303 -200 280 -222 250 -222 c 2
 141 -222 l 2
 129 -222 119 -215 119 -202 c 2
 119 -178 l 2
 119 -164 125 -157 137 -157 c 2
 211 -157 l 2
 225 -157 232 -150 232 -138 c 2
 232 -123 l 2
 232 -111 221 -105 208 -105 c 2
 158 -105 l 2
 145 -105 133 -95 136 -80 c 2xfc
EndSplineSet
Position2: "'cpsp' Capital Spacing in Latin lookup 0 subtable" dx=7 dy=0 dh=14 dv=0
EndChar

StartChar: Scaron
Encoding: 352 352 149
Width: 421
Flags: HMW
HStem: 0 139<66 176 80 176 176 199 80 245> 600 139<221 242 242 324> 739 29<193 201 201 225 193 324>
VStem: 20 158<513 526 526 534 513 583 513 629> 244 158<206 213 213 227>
LayerCount: 2
Fore
SplineSet
216 270 m 2xd8
 76 375 l 2
 42 400 20 434 20 486 c 2
 20 583 l 2
 20 676 85 739 177 739 c 2
 324 739 l 2
 352 739 365 726 365 698 c 2
 365 641 l 2
 365 613 352 600 324 600 c 2
 242 600 l 2
 200 600 178 578 178 534 c 2
 178 526 l 2
 178 498 189 481 206 469 c 2
 346 365 l 2
 380 340 401 305 401 253 c 2
 401 157 l 2
 401 65 338 0 245 0 c 2
 80 0 l 2
 52 0 39 13 39 41 c 2
 39 98 l 2
 39 126 52 139 80 139 c 2
 176 139 l 2
 221 139 244 162 244 206 c 2
 244 213 l 2
 244 241 233 258 216 270 c 2xd8
71 865 m 2
 93 901 l 2
 100 912 112 907 121 903 c 2
 212 861 l 1
 303 903 l 2
 314 908 324 912 331 901 c 2
 353 865 l 2
 357 858 359 847 352 842 c 2
 256 779 l 2
 249 774 240 768 225 768 c 2
 201 768 l 2xb8
 186 768 173 776 168 779 c 2
 72 842 l 2
 69 845 67 848 67 852 c 0
 67 857 68 861 71 865 c 2
EndSplineSet
Position2: "'cpsp' Capital Spacing in Latin lookup 0 subtable" dx=7 dy=0 dh=14 dv=0
EndChar

StartChar: Sacute
Encoding: 346 346 150
Width: 421
Flags: HMW
HStem: 0 139<66 176 80 176 176 199 80 245> 600 139<221 242 242 324>
VStem: 20 158<513 526 526 534 513 583 513 629> 244 158<206 213 213 227>
LayerCount: 2
Fore
SplineSet
216 270 m 2
 76 375 l 2
 42 400 20 434 20 486 c 2
 20 583 l 2
 20 676 85 739 177 739 c 2
 324 739 l 2
 352 739 365 726 365 698 c 2
 365 641 l 2
 365 613 352 600 324 600 c 2
 242 600 l 2
 200 600 178 578 178 534 c 2
 178 526 l 2
 178 498 189 481 206 469 c 2
 346 365 l 2
 380 340 401 305 401 253 c 2
 401 157 l 2
 401 65 338 0 245 0 c 2
 80 0 l 2
 52 0 39 13 39 41 c 2
 39 98 l 2
 39 126 52 139 80 139 c 2
 176 139 l 2
 221 139 244 162 244 206 c 2
 244 213 l 2
 244 241 233 258 216 270 c 2
141 835 m 2
 286 907 l 2
 300 914 309 911 314 898 c 2
 337 840 l 2
 342 827 337 817 322 812 c 2
 165 769 l 1
 152 764 142 768 138 781 c 1
 127 809 l 2
 123 818 129 828 141 835 c 2
EndSplineSet
Position2: "'cpsp' Capital Spacing in Latin lookup 0 subtable" dx=7 dy=0 dh=14 dv=0
EndChar

StartChar: scircumflex
Encoding: 349 349 151
Width: 382
Flags: HMW
HStem: 0 139<76 176 90 176 176 182 90 253> 378 139<201 207 207 293> 721 20G<154 229 229 237>
LayerCount: 2
Fore
SplineSet
185 174 m 2
 75 264 l 2
 47 288 31 307 31 343 c 2
 31 417 l 2
 31 478 70 517 131 517 c 2
 293 517 l 2
 321 517 334 504 334 476 c 2
 334 419 l 2
 334 391 321 378 293 378 c 2
 207 378 l 2
 196 378 188 368 188 360 c 2
 188 359 l 2
 188 350 193 348 198 344 c 2
 308 253 l 2
 337 229 352 210 352 174 c 2
 352 100 l 2
 352 39 313 0 253 0 c 2
 90 0 l 2
 62 0 49 13 49 41 c 2
 49 98 l 2
 49 126 62 139 90 139 c 2
 176 139 l 2
 187 139 195 149 195 158 c 2
 195 159 l 2
 195 164 191 169 185 174 c 2
154 741 m 2
 229 741 l 2
 244 741 249 735 253 727 c 2
 313 606 l 2
 317 598 315 585 307 581 c 2
 272 562 l 1
 261 555 252 560 245 569 c 2
 191 645 l 1
 138 569 l 1
 131 561 122 557 111 562 c 2
 76 581 l 2
 69 585 66 598 70 606 c 2
 130 727 l 2
 133 734 139 741 154 741 c 2
EndSplineSet
EndChar

StartChar: scedilla
Encoding: 351 351 152
Width: 382
Flags: HMW
HStem: -222 66<133 137 137 207 207 214 133 246> -105 61<147 245 154 245> 0 139<76 176 90 144 90 217 90 253> 378 139<201 207 207 293>
LayerCount: 2
Fore
SplineSet
132 -80 m 2
 144 0 l 1
 90 0 l 2
 62 0 49 13 49 41 c 2
 49 98 l 2
 49 126 62 139 90 139 c 2
 176 139 l 2
 187 139 195 149 195 158 c 2
 195 159 l 2
 195 164 191 169 185 174 c 2
 75 264 l 2
 47 288 31 307 31 343 c 2
 31 417 l 2
 31 478 70 517 131 517 c 2
 293 517 l 2
 321 517 334 504 334 476 c 2
 334 419 l 2
 334 391 321 378 293 378 c 2
 207 378 l 2
 196 378 188 368 188 360 c 2
 188 359 l 2
 188 350 193 348 198 344 c 2
 308 253 l 2
 337 229 352 210 352 174 c 2
 352 100 l 2
 352 39 313 0 253 0 c 2
 217 0 l 1
 210 -44 l 1
 245 -44 l 2
 278 -44 299 -66 299 -98 c 2
 299 -167 l 2
 299 -200 276 -222 246 -222 c 2
 137 -222 l 2
 125 -222 115 -215 115 -202 c 2
 115 -178 l 2
 115 -164 121 -157 133 -157 c 2
 207 -157 l 2
 221 -157 228 -150 228 -138 c 2
 228 -123 l 2
 228 -111 217 -105 204 -105 c 2
 154 -105 l 2
 141 -105 129 -95 132 -80 c 2
EndSplineSet
EndChar

StartChar: scaron
Encoding: 353 353 153
Width: 382
Flags: HMW
HStem: 0 139<76 176 90 176 176 182 90 253> 378 139<201 207 207 293> 517 40<140 147 147 223>
LayerCount: 2
Fore
SplineSet
185 174 m 2xc0
 75 264 l 2
 47 288 31 307 31 343 c 2
 31 417 l 2
 31 478 70 517 131 517 c 2
 293 517 l 2
 321 517 334 504 334 476 c 2
 334 419 l 2
 334 391 321 378 293 378 c 2
 207 378 l 2
 196 378 188 368 188 360 c 2
 188 359 l 2
 188 350 193 348 198 344 c 2
 308 253 l 2
 337 229 352 210 352 174 c 2
 352 100 l 2
 352 39 313 0 253 0 c 2
 90 0 l 2
 62 0 49 13 49 41 c 2
 49 98 l 2
 49 126 62 139 90 139 c 2
 176 139 l 2
 187 139 195 149 195 158 c 2
 195 159 l 2
 195 164 191 169 185 174 c 2xc0
70 718 m 2
 104 736 l 2
 115 741 127 737 132 729 c 2
 185 653 l 1
 239 729 l 2
 246 739 255 741 266 736 c 2
 301 718 l 2
 309 714 311 700 307 692 c 2
 247 571 l 2
 243 563 238 557 223 557 c 2
 147 557 l 2xa0
 132 557 127 564 124 571 c 2
 63 692 l 2
 59 700 62 714 70 718 c 2
EndSplineSet
EndChar

StartChar: sacute
Encoding: 347 347 154
Width: 382
Flags: HMW
HStem: 0 139<76 176 90 176 176 182 90 253> 378 139<201 207 207 293>
LayerCount: 2
Fore
SplineSet
185 174 m 2
 75 264 l 2
 47 288 31 307 31 343 c 2
 31 417 l 2
 31 478 70 517 131 517 c 2
 293 517 l 2
 321 517 334 504 334 476 c 2
 334 419 l 2
 334 391 321 378 293 378 c 2
 207 378 l 2
 196 378 188 368 188 360 c 2
 188 359 l 2
 188 350 193 348 198 344 c 2
 308 253 l 2
 337 229 352 210 352 174 c 2
 352 100 l 2
 352 39 313 0 253 0 c 2
 90 0 l 2
 62 0 49 13 49 41 c 2
 49 98 l 2
 49 126 62 139 90 139 c 2
 176 139 l 2
 187 139 195 149 195 158 c 2
 195 159 l 2
 195 164 191 169 185 174 c 2
162 545 m 2
 127 567 l 2
 119 572 118 586 125 597 c 2
 212 737 l 2
 219 750 230 752 242 743 c 2
 300 698 l 2
 311 690 311 679 302 668 c 2
 190 548 l 2
 181 539 172 538 162 545 c 2
EndSplineSet
EndChar

StartChar: Rcaron
Encoding: 344 344 155
Width: 519
Flags: HMW
HStem: 0 22G<79 93 93 168 355 368 368 447> 443 157<224 229 229 243 243 247 224 265> 600 139<224 229 229 247> 739 29<234 242 242 266 234 311>
VStem: 51 158<41 42 42 304 443 582> 310 158<511 534 534 556>
LayerCount: 2
Fore
SplineSet
91 739 m 2xac
 311 739 l 2
 404 739 468 675 468 584 c 2
 468 478 l 2
 468 429 442 375 384 347 c 1
 409 323 428 280 439 240 c 1
 487 46 l 1
 494 22 479 0 447 0 c 2
 368 0 l 2
 343 0 332 11 328 28 c 2
 272 273 l 2
 268 290 251 304 232 304 c 2
 209 304 l 1
 209 42 l 2
 209 14 196 0 168 0 c 2
 93 0 l 2
 65 0 51 13 51 41 c 2
 51 698 l 2
 51 726 64 739 91 739 c 2xac
112 865 m 2
 134 901 l 2
 141 912 153 907 162 903 c 2
 253 861 l 1
 344 903 l 2
 355 908 365 912 372 901 c 2
 394 865 l 2
 398 858 400 847 393 842 c 2
 297 779 l 2
 290 774 281 768 266 768 c 2
 242 768 l 2xdc
 227 768 214 776 209 779 c 2
 113 842 l 2
 110 845 108 848 108 852 c 0
 108 857 109 861 112 865 c 2
247 600 m 2
 229 600 l 2
 218 600 209 591 209 582 c 2
 209 443 l 1
 243 443 l 2
 288 443 310 466 310 511 c 2
 310 534 l 2
 310 578 289 600 247 600 c 2
EndSplineSet
Position2: "'cpsp' Capital Spacing in Latin lookup 0 subtable" dx=7 dy=0 dh=14 dv=0
EndChar

StartChar: Racute
Encoding: 340 340 156
Width: 519
Flags: HMW
HStem: 0 22G<79 93 93 168 355 368 368 447> 600 139<224 229 229 247>
VStem: 51 158<41 42 42 304 443 582> 310 158<511 534 534 556>
LayerCount: 2
Fore
SplineSet
91 739 m 2
 311 739 l 2
 404 739 468 675 468 584 c 2
 468 478 l 2
 468 429 442 375 384 347 c 1
 409 323 428 280 439 240 c 1
 487 46 l 1
 494 22 479 0 447 0 c 2
 368 0 l 2
 343 0 332 11 328 28 c 2
 272 273 l 2
 268 290 251 304 232 304 c 2
 209 304 l 1
 209 42 l 2
 209 14 196 0 168 0 c 2
 93 0 l 2
 65 0 51 13 51 41 c 2
 51 698 l 2
 51 726 64 739 91 739 c 2
194 835 m 2
 338 907 l 2
 352 914 362 911 367 898 c 2
 389 840 l 2
 394 827 389 817 374 812 c 2
 217 769 l 1
 204 764 194 768 190 781 c 1
 179 809 l 2
 175 818 182 828 194 835 c 2
247 600 m 2
 229 600 l 2
 218 600 209 591 209 582 c 2
 209 443 l 1
 243 443 l 2
 288 443 310 466 310 511 c 2
 310 534 l 2
 310 578 289 600 247 600 c 2
EndSplineSet
Position2: "'cpsp' Capital Spacing in Latin lookup 0 subtable" dx=7 dy=0 dh=14 dv=0
EndChar

StartChar: rcaron
Encoding: 345 345 157
Width: 331
Flags: HMW
HStem: 0 22G<78 92 92 168> 517 40<138 145 145 189 189 189>
VStem: 51 158<41 362>
LayerCount: 2
Fore
SplineSet
284 362 m 2
 209 362 l 1
 209 41 l 2
 209 13 196 0 168 0 c 2
 92 0 l 2
 64 0 51 13 51 41 c 2
 51 476 l 2
 51 504 64 517 92 517 c 2
 189 517 l 1
 209 474 l 1
 261 513 l 2
 280 526 321 519 321 483 c 2
 321 399 l 2
 321 377 306 362 284 362 c 2
68 718 m 2
 102 736 l 2
 113 741 125 737 130 729 c 2
 183 653 l 1
 237 729 l 2
 244 739 253 741 264 736 c 2
 299 718 l 2
 307 714 309 700 305 692 c 2
 245 571 l 2
 241 563 236 557 221 557 c 2
 145 557 l 2
 130 557 125 564 122 571 c 2
 61 692 l 2
 57 700 60 714 68 718 c 2
EndSplineSet
EndChar

StartChar: racute
Encoding: 341 341 158
Width: 331
Flags: HMW
HStem: 0 22G<78 92 92 168> 497 20G<92 189 189 189>
VStem: 51 158<41 362>
LayerCount: 2
Fore
SplineSet
284 362 m 2
 209 362 l 1
 209 41 l 2
 209 13 196 0 168 0 c 2
 92 0 l 2
 64 0 51 13 51 41 c 2
 51 476 l 2
 51 504 64 517 92 517 c 2
 189 517 l 1
 209 474 l 1
 261 513 l 2
 280 526 321 519 321 483 c 2
 321 399 l 2
 321 377 306 362 284 362 c 2
145 545 m 2
 111 567 l 2
 103 572 102 586 109 597 c 2
 196 737 l 2
 203 750 213 752 225 743 c 2
 284 698 l 2
 295 690 295 679 286 668 c 2
 174 548 l 2
 165 539 155 538 145 545 c 2
EndSplineSet
EndChar

StartChar: Otilde
Encoding: 213 213 159
Width: 523
Flags: HMW
HStem: 0 139<151 265 258 265 265 285 258 325> 600 139<238 257 257 265>
VStem: 41 158<180 200 200 540> 325 158<0 157 200 540 540 560>
LayerCount: 2
Fore
SplineSet
482 583 m 2
 482 157 l 2
 482 65 419 0 325 0 c 2
 198 0 l 2
 104 0 41 64 41 158 c 2
 41 583 l 2
 41 676 106 739 199 739 c 2
 326 739 l 2
 419 739 482 676 482 583 c 2
325 200 m 2
 325 540 l 2
 325 580 305 600 265 600 c 2
 257 600 l 2
 218 600 199 580 199 540 c 2
 199 200 l 2
 199 160 218 139 258 139 c 2
 265 139 l 2
 305 139 325 160 325 200 c 2
89 816 m 2
 115 858 l 2
 141 900 210 909 284 872 c 2
 296 866 l 2
 312 858 319 855 327 866 c 2
 333 874 l 2
 342 887 347 891 359 891 c 2
 420 891 l 2
 435 891 442 878 433 863 c 2
 408 820 l 2
 382 776 313 771 239 807 c 2
 224 814 l 2
 209 821 203 823 196 812 c 1
 189 804 l 2
 180 792 175 787 163 787 c 2
 101 787 l 2
 88 787 81 801 89 816 c 2
EndSplineSet
Position2: "'cpsp' Capital Spacing in Latin lookup 0 subtable" dx=7 dy=0 dh=14 dv=0
EndChar

StartChar: Omacron
Encoding: 332 332 160
Width: 523
Flags: HMW
HStem: 0 139<151 265 258 265 265 285 258 325> 600 139<238 257 257 265> 799 103<136 373 150 373>
VStem: 41 158<180 200 200 540> 325 158<0 157 200 540 540 560>
LayerCount: 2
Fore
SplineSet
482 583 m 2
 482 157 l 2
 482 65 419 0 325 0 c 2
 198 0 l 2
 104 0 41 64 41 158 c 2
 41 583 l 2
 41 676 106 739 199 739 c 2
 326 739 l 2
 419 739 482 676 482 583 c 2
325 200 m 2
 325 540 l 2
 325 580 305 600 265 600 c 2
 257 600 l 2
 218 600 199 580 199 540 c 2
 199 200 l 2
 199 160 218 139 258 139 c 2
 265 139 l 2
 305 139 325 160 325 200 c 2
109 840 m 2
 109 861 l 2
 109 889 122 902 150 902 c 2
 373 902 l 2
 401 902 414 889 414 861 c 2
 414 840 l 2
 414 812 401 799 373 799 c 2
 150 799 l 2
 122 799 109 812 109 840 c 2
EndSplineSet
Position2: "'cpsp' Capital Spacing in Latin lookup 0 subtable" dx=7 dy=0 dh=14 dv=0
EndChar

StartChar: Ohungarumlaut
Encoding: 336 336 161
Width: 523
Flags: HMW
HStem: 0 139<151 265 258 265 265 285 258 325> 600 139<238 257 257 265>
VStem: 41 158<180 200 200 540> 325 158<0 157 200 540 540 560>
LayerCount: 2
Fore
SplineSet
482 583 m 2
 482 157 l 2
 482 65 419 0 325 0 c 2
 198 0 l 2
 104 0 41 64 41 158 c 2
 41 583 l 2
 41 676 106 739 199 739 c 2
 326 739 l 2
 419 739 482 676 482 583 c 2
325 200 m 2
 325 540 l 2
 325 580 305 600 265 600 c 2
 257 600 l 2
 218 600 199 580 199 540 c 2
 199 200 l 2
 199 160 218 139 258 139 c 2
 265 139 l 2
 305 139 325 160 325 200 c 2
68 781 m 2
 56 809 l 2
 53 818 59 830 71 835 c 2
 215 907 l 2
 229 914 239 911 244 898 c 2
 266 840 l 1
 270 826 265 816 251 812 c 2
 94 769 l 2
 81 766 73 768 68 781 c 2
314 781 m 2
 303 809 l 2
 300 818 305 830 317 835 c 2
 462 907 l 2
 476 914 485 911 490 898 c 2
 513 840 l 1
 517 826 512 816 498 812 c 2
 341 769 l 2
 328 766 319 768 314 781 c 2
EndSplineSet
Position2: "'cpsp' Capital Spacing in Latin lookup 0 subtable" dx=7 dy=0 dh=14 dv=0
EndChar

StartChar: Ograve
Encoding: 210 210 162
Width: 523
Flags: HMW
HStem: 0 139<151 265 258 265 265 285 258 325> 600 139<238 257 257 265>
VStem: 41 158<180 200 200 540> 325 158<0 157 200 540 540 560>
LayerCount: 2
Fore
SplineSet
482 583 m 2
 482 157 l 2
 482 65 419 0 325 0 c 2
 198 0 l 2
 104 0 41 64 41 158 c 2
 41 583 l 2
 41 676 106 739 199 739 c 2
 326 739 l 2
 419 739 482 676 482 583 c 2
325 200 m 2
 325 540 l 2
 325 580 305 600 265 600 c 2
 257 600 l 2
 218 600 199 580 199 540 c 2
 199 200 l 2
 199 160 218 139 258 139 c 2
 265 139 l 2
 305 139 325 160 325 200 c 2
155 840 m 2
 177 898 l 2
 182 911 193 914 206 907 c 2
 350 835 l 2
 358 831 368 819 364 808 c 2
 353 781 l 2
 348 769 340 765 327 769 c 2
 170 812 l 2
 155 817 150 827 155 840 c 2
EndSplineSet
Position2: "'cpsp' Capital Spacing in Latin lookup 0 subtable" dx=7 dy=0 dh=14 dv=0
EndChar

StartChar: Odieresis
Encoding: 214 214 163
Width: 523
Flags: HMW
HStem: 0 139<151 265 258 265 265 285 258 325> 600 139<238 257 257 265> 777 126<98 181 111 181 341 412>
VStem: 41 158<180 200 200 540> 74 144<814 868 802 880> 304 144<814 868 802 880> 325 158<0 157 200 540 540 560>
LayerCount: 2
Fore
SplineSet
482 583 m 2xf2
 482 157 l 2
 482 65 419 0 325 0 c 2
 198 0 l 2
 104 0 41 64 41 158 c 2
 41 583 l 2
 41 676 106 739 199 739 c 2
 326 739 l 2
 419 739 482 676 482 583 c 2xf2
325 200 m 2
 325 540 l 2
 325 580 305 600 265 600 c 2
 257 600 l 2
 218 600 199 580 199 540 c 2
 199 200 l 2
 199 160 218 139 258 139 c 2
 265 139 l 2
 305 139 325 160 325 200 c 2
74 814 m 2xec
 74 868 l 2
 74 892 86 903 111 903 c 2
 181 903 l 2
 206 903 218 892 218 868 c 2
 218 814 l 2
 218 789 206 777 181 777 c 2
 111 777 l 2
 86 777 74 789 74 814 c 2xec
304 814 m 2
 304 868 l 2
 304 892 316 903 341 903 c 2
 412 903 l 2
 437 903 449 892 449 868 c 2
 449 814 l 2
 449 789 437 777 412 777 c 2
 341 777 l 2
 316 777 304 789 304 814 c 2
EndSplineSet
Position2: "'cpsp' Capital Spacing in Latin lookup 0 subtable" dx=7 dy=0 dh=14 dv=0
EndChar

StartChar: Ocircumflex
Encoding: 212 212 164
Width: 523
Flags: HMW
HStem: 0 139<151 265 258 265 265 285 258 325> 600 139<238 257 257 265> 893 20G<250 274 274 282>
VStem: 41 158<180 200 200 540> 325 158<0 157 200 540 540 560>
LayerCount: 2
Fore
SplineSet
482 583 m 2
 482 157 l 2
 482 65 419 0 325 0 c 2
 198 0 l 2
 104 0 41 64 41 158 c 2
 41 583 l 2
 41 676 106 739 199 739 c 2
 326 739 l 2
 419 739 482 676 482 583 c 2
325 200 m 2
 325 540 l 2
 325 580 305 600 265 600 c 2
 257 600 l 2
 218 600 199 580 199 540 c 2
 199 200 l 2
 199 160 218 139 258 139 c 2
 265 139 l 2
 305 139 325 160 325 200 c 2
250 913 m 2
 274 913 l 2
 289 913 297 907 305 902 c 2
 401 840 l 2
 409 835 407 823 402 816 c 2
 380 780 l 2
 373 769 363 773 352 778 c 2
 261 820 l 1
 170 778 l 2
 161 774 149 769 142 780 c 2
 119 817 l 2
 115 824 113 835 121 840 c 2
 217 902 l 2
 222 905 235 913 250 913 c 2
EndSplineSet
Position2: "'cpsp' Capital Spacing in Latin lookup 0 subtable" dx=7 dy=0 dh=14 dv=0
EndChar

StartChar: Obreve
Encoding: 334 334 165
Width: 523
Flags: HMW
HStem: 0 139<151 265 258 265 265 285 258 325> 600 139<238 257 257 265> 768 79<246 275 246 305> 768 116<138 305>
VStem: 41 158<180 200 200 540> 325 158<0 157 200 540 540 560>
LayerCount: 2
Fore
SplineSet
482 583 m 2xdc
 482 157 l 2
 482 65 419 0 325 0 c 2
 198 0 l 2
 104 0 41 64 41 158 c 2
 41 583 l 2
 41 676 106 739 199 739 c 2
 326 739 l 2
 419 739 482 676 482 583 c 2xdc
325 200 m 2
 325 540 l 2
 325 580 305 600 265 600 c 2
 257 600 l 2
 218 600 199 580 199 540 c 2
 199 200 l 2
 199 160 218 139 258 139 c 2
 265 139 l 2
 305 139 325 160 325 200 c 2
138 884 m 2
 193 884 l 2xdc
 204 884 208 877 209 873 c 0
 214 856 231 847 261 847 c 0xec
 290 847 310 857 314 873 c 0
 315 877 321 884 330 884 c 2
 384 884 l 2
 394 884 399 878 399 867 c 0
 399 823 348 768 261 768 c 0
 178 768 123 822 123 866 c 0
 123 877 128 884 138 884 c 2
EndSplineSet
EndChar

StartChar: Oacute
Encoding: 211 211 166
Width: 523
Flags: HMW
HStem: 0 139<151 265 258 265 265 285 258 325> 600 139<238 257 257 265>
VStem: 41 158<180 200 200 540> 325 158<0 157 200 540 540 560>
LayerCount: 2
Fore
SplineSet
482 583 m 2
 482 157 l 2
 482 65 419 0 325 0 c 2
 198 0 l 2
 104 0 41 64 41 158 c 2
 41 583 l 2
 41 676 106 739 199 739 c 2
 326 739 l 2
 419 739 482 676 482 583 c 2
325 200 m 2
 325 540 l 2
 325 580 305 600 265 600 c 2
 257 600 l 2
 218 600 199 580 199 540 c 2
 199 200 l 2
 199 160 218 139 258 139 c 2
 265 139 l 2
 305 139 325 160 325 200 c 2
186 835 m 2
 331 907 l 2
 345 914 354 911 359 898 c 2
 382 840 l 2
 387 827 382 817 367 812 c 2
 210 769 l 1
 197 764 187 768 183 781 c 1
 172 809 l 2
 168 818 174 828 186 835 c 2
EndSplineSet
Position2: "'cpsp' Capital Spacing in Latin lookup 0 subtable" dx=7 dy=0 dh=14 dv=0
EndChar

StartChar: otilde
Encoding: 245 245 167
Width: 496
Flags: HMW
HStem: 0 22G<121 152 152 345> 497 20G<152 345 345 376>
VStem: 51 158<168 182 182 335 168 417> 288 158<182 335 335 349>
LayerCount: 2
Fore
SplineSet
345 0 m 2
 152 0 l 2
 91 0 51 39 51 100 c 2
 51 417 l 2
 51 478 91 517 152 517 c 2
 345 517 l 2
 406 517 445 478 445 417 c 2
 445 100 l 2
 445 39 406 0 345 0 c 2
76 616 m 2
 101 663 l 1
 126 704 203 726 270 676 c 1
 283 669 l 1
 298 658 308 658 313 669 c 1
 319 679 l 1
 328 692 334 695 346 695 c 2
 407 695 l 2
 422 695 428 683 420 668 c 2
 394 621 l 2
 369 577 291 557 225 606 c 1
 211 616 l 2
 198 625 187 625 182 614 c 1
 176 604 l 2
 168 591 162 588 150 588 c 2
 88 588 l 2
 75 588 68 601 76 616 c 2
288 182 m 2
 288 335 l 2
 288 363 270 378 250 378 c 2
 246 378 l 2
 226 378 209 363 209 335 c 2
 209 182 l 2
 209 154 226 139 246 139 c 2
 250 139 l 2
 270 139 288 154 288 182 c 2
EndSplineSet
EndChar

StartChar: omacron
Encoding: 333 333 168
Width: 496
Flags: HMW
HStem: 0 22G<121 152 152 345> 497 20G<152 345 345 376> 588 103<136 346 150 346>
VStem: 51 158<168 182 182 335 168 417> 288 158<182 335 335 349>
LayerCount: 2
Fore
SplineSet
345 0 m 2
 152 0 l 2
 91 0 51 39 51 100 c 2
 51 417 l 2
 51 478 91 517 152 517 c 2
 345 517 l 2
 406 517 445 478 445 417 c 2
 445 100 l 2
 445 39 406 0 345 0 c 2
109 629 m 2
 109 650 l 2
 109 678 122 691 150 691 c 2
 346 691 l 2
 374 691 387 678 387 650 c 2
 387 629 l 2
 387 601 374 588 346 588 c 2
 150 588 l 2
 122 588 109 601 109 629 c 2
288 182 m 2
 288 335 l 2
 288 363 270 378 250 378 c 2
 246 378 l 2
 226 378 209 363 209 335 c 2
 209 182 l 2
 209 154 226 139 246 139 c 2
 250 139 l 2
 270 139 288 154 288 182 c 2
EndSplineSet
EndChar

StartChar: ohungarumlaut
Encoding: 337 337 169
Width: 496
Flags: HMW
HStem: 0 22G<121 152 152 345> 497 20G<152 345 345 376>
VStem: 51 158<168 182 182 335 168 417> 288 158<182 335 335 349>
LayerCount: 2
Fore
SplineSet
345 0 m 2
 152 0 l 2
 91 0 51 39 51 100 c 2
 51 417 l 2
 51 478 91 517 152 517 c 2
 345 517 l 2
 406 517 445 478 445 417 c 2
 445 100 l 2
 445 39 406 0 345 0 c 2
312 545 m 2
 278 567 l 2
 270 572 268 586 275 597 c 2
 362 737 l 2
 369 750 380 752 392 743 c 2
 451 698 l 2
 462 690 462 679 453 668 c 2
 341 548 l 2
 332 539 322 538 312 545 c 2
123 545 m 2
 88 567 l 2
 80 572 79 586 86 597 c 2
 173 737 l 2
 180 750 191 752 203 743 c 2
 261 698 l 2
 272 690 272 679 263 668 c 2
 152 548 l 2
 143 539 133 538 123 545 c 2
288 182 m 2
 288 335 l 2
 288 363 270 378 250 378 c 2
 246 378 l 2
 226 378 209 363 209 335 c 2
 209 182 l 2
 209 154 226 139 246 139 c 2
 250 139 l 2
 270 139 288 154 288 182 c 2
EndSplineSet
EndChar

StartChar: ograve
Encoding: 242 242 170
Width: 496
Flags: HMW
HStem: 0 22G<121 152 152 345> 497 20G<152 345 345 376>
VStem: 51 158<168 182 182 335 168 417> 288 158<182 335 335 349>
LayerCount: 2
Fore
SplineSet
345 0 m 2
 152 0 l 2
 91 0 51 39 51 100 c 2
 51 417 l 2
 51 478 91 517 152 517 c 2
 345 517 l 2
 406 517 445 478 445 417 c 2
 445 100 l 2
 445 39 406 0 345 0 c 2
161 698 m 2
 219 743 l 2
 231 752 242 750 249 737 c 2
 336 597 l 2
 343 586 342 574 334 567 c 1
 299 545 l 2
 288 538 278 539 270 548 c 2
 159 668 l 2
 149 679 150 689 161 698 c 2
288 182 m 2
 288 335 l 2
 288 363 270 378 250 378 c 2
 246 378 l 2
 226 378 209 363 209 335 c 2
 209 182 l 2
 209 154 226 139 246 139 c 2
 250 139 l 2
 270 139 288 154 288 182 c 2
EndSplineSet
EndChar

StartChar: odieresis
Encoding: 246 246 171
Width: 496
Flags: HMW
HStem: 0 22G<121 152 152 345> 497 20G<152 345 345 376> 588 126<84 167 96 167 327 397>
VStem: 51 158<168 182 182 335 168 417> 288 158<182 335 335 349>
LayerCount: 2
Fore
SplineSet
345 0 m 2
 152 0 l 2
 91 0 51 39 51 100 c 2
 51 417 l 2
 51 478 91 517 152 517 c 2
 345 517 l 2
 406 517 445 478 445 417 c 2
 445 100 l 2
 445 39 406 0 345 0 c 2
288 182 m 2
 288 335 l 2
 288 363 270 378 250 378 c 2
 246 378 l 2
 226 378 209 363 209 335 c 2
 209 182 l 2
 209 154 226 139 246 139 c 2
 250 139 l 2
 270 139 288 154 288 182 c 2
59 625 m 2
 59 679 l 2
 59 703 71 714 96 714 c 2
 167 714 l 2
 192 714 204 703 204 679 c 2
 204 625 l 2
 204 600 192 588 167 588 c 2
 96 588 l 2
 71 588 59 600 59 625 c 2
290 625 m 2
 290 679 l 2
 290 703 302 714 327 714 c 2
 397 714 l 2
 422 714 434 703 434 679 c 2
 434 625 l 2
 434 600 422 588 397 588 c 2
 327 588 l 2
 302 588 290 600 290 625 c 2
EndSplineSet
EndChar

StartChar: ocircumflex
Encoding: 244 244 172
Width: 496
Flags: HMW
HStem: 0 22G<121 152 152 345> 497 20G<152 345 345 376> 721 20G<210 286 286 293>
VStem: 51 158<168 182 182 335 168 417> 288 158<182 335 335 349>
LayerCount: 2
Fore
SplineSet
345 0 m 2
 152 0 l 2
 91 0 51 39 51 100 c 2
 51 417 l 2
 51 478 91 517 152 517 c 2
 345 517 l 2
 406 517 445 478 445 417 c 2
 445 100 l 2
 445 39 406 0 345 0 c 2
210 741 m 2
 286 741 l 2
 301 741 305 735 309 727 c 2
 370 606 l 2
 374 598 372 585 364 581 c 2
 329 562 l 1
 318 555 308 560 301 569 c 2
 248 645 l 1
 195 569 l 1
 188 561 178 557 167 562 c 2
 132 581 l 2
 125 585 122 598 126 606 c 2
 186 727 l 2
 189 734 195 741 210 741 c 2
288 182 m 2
 288 335 l 2
 288 363 270 378 250 378 c 2
 246 378 l 2
 226 378 209 363 209 335 c 2
 209 182 l 2
 209 154 226 139 246 139 c 2
 250 139 l 2
 270 139 288 154 288 182 c 2
EndSplineSet
EndChar

StartChar: obreve
Encoding: 335 335 173
Width: 496
Flags: HMW
HStem: 0 22G<121 152 152 345> 497 20G<152 345 345 376> 582 79<233 262 233 291> 582 116<125 291>
VStem: 51 158<168 182 182 335 168 417> 288 158<182 335 335 349>
LayerCount: 2
Fore
SplineSet
345 0 m 2xdc
 152 0 l 2
 91 0 51 39 51 100 c 2
 51 417 l 2
 51 478 91 517 152 517 c 2
 345 517 l 2
 406 517 445 478 445 417 c 2
 445 100 l 2
 445 39 406 0 345 0 c 2xdc
125 697 m 2
 179 697 l 2xdc
 190 697 195 691 196 687 c 0
 201 670 218 660 248 660 c 0xec
 277 660 297 671 301 687 c 0
 302 691 307 697 316 697 c 2
 371 697 l 2
 381 697 386 692 386 681 c 0
 386 637 335 582 248 582 c 0
 165 582 110 636 110 680 c 0
 110 691 115 697 125 697 c 2
288 182 m 2
 288 335 l 2
 288 363 270 378 250 378 c 2
 246 378 l 2
 226 378 209 363 209 335 c 2
 209 182 l 2
 209 154 226 139 246 139 c 2
 250 139 l 2
 270 139 288 154 288 182 c 2
EndSplineSet
EndChar

StartChar: oacute
Encoding: 243 243 174
Width: 496
Flags: HMW
HStem: 0 22G<121 152 152 345> 497 20G<152 345 345 376>
VStem: 51 158<168 182 182 335 168 417> 288 158<182 335 335 349>
LayerCount: 2
Fore
SplineSet
345 0 m 2
 152 0 l 2
 91 0 51 39 51 100 c 2
 51 417 l 2
 51 478 91 517 152 517 c 2
 345 517 l 2
 406 517 445 478 445 417 c 2
 445 100 l 2
 445 39 406 0 345 0 c 2
220 545 m 2
 185 567 l 2
 177 572 176 586 183 597 c 2
 270 737 l 2
 277 750 288 752 300 743 c 2
 358 698 l 2
 369 690 369 679 360 668 c 2
 249 548 l 2
 240 539 230 538 220 545 c 2
288 182 m 2
 288 335 l 2
 288 363 270 378 250 378 c 2
 246 378 l 2
 226 378 209 363 209 335 c 2
 209 182 l 2
 209 154 226 139 246 139 c 2
 250 139 l 2
 270 139 288 154 288 182 c 2
EndSplineSet
EndChar

StartChar: Ntilde
Encoding: 209 209 175
Width: 561
Flags: HMW
HStem: 0 22G<78 92 92 152 330 344 344 469> 719 20G<92 218 218 231 410 469 469 483>
VStem: 51 141<41 517> 369 141<222 698>
LayerCount: 2
Fore
SplineSet
260 709 m 2
 369 222 l 1
 369 698 l 2
 369 726 382 739 410 739 c 2
 469 739 l 2
 497 739 510 726 510 698 c 2
 510 41 l 2
 510 13 497 0 469 0 c 2
 344 0 l 2
 316 0 305 15 301 31 c 2
 193 517 l 1
 193 41 l 2
 193 13 180 0 152 0 c 2
 92 0 l 2
 64 0 51 13 51 41 c 2
 51 698 l 2
 51 726 64 739 92 739 c 2
 218 739 l 2
 244 739 256 725 260 709 c 2
124 816 m 2
 150 858 l 2
 176 900 244 909 318 872 c 2
 331 866 l 2
 347 858 353 855 361 866 c 2
 368 874 l 2
 377 887 382 891 394 891 c 2
 455 891 l 2
 470 891 477 878 468 863 c 2
 442 820 l 2
 416 776 347 771 273 807 c 2
 259 814 l 2
 244 821 237 823 230 812 c 1
 224 804 l 2
 215 792 210 787 198 787 c 2
 136 787 l 2
 123 787 116 801 124 816 c 2
EndSplineSet
Position2: "'cpsp' Capital Spacing in Latin lookup 0 subtable" dx=7 dy=0 dh=14 dv=0
EndChar

StartChar: Eng
Encoding: 330 330 176
Width: 561
Flags: HMW
HStem: -186 22G<364 407 364 364> -20 20G<78 92 92 152 330 344 344 420 510 510> 719 20G<92 218 218 231 410 469 469 483>
VStem: 51 141<41 517> 369 141<222 698 0 712>
LayerCount: 2
Fore
SplineSet
260 709 m 2
 369 222 l 1
 369 698 l 2
 369 726 382 739 410 739 c 2
 469 739 l 2
 497 739 510 726 510 698 c 2
 510 0 l 1
 443 -148 l 2
 434 -167 426 -186 407 -186 c 2
 364 -186 l 1
 420 0 l 1
 344 0 l 2
 316 0 305 15 301 31 c 2
 193 517 l 1
 193 41 l 2
 193 13 180 0 152 0 c 2
 92 0 l 2
 64 0 51 13 51 41 c 2
 51 698 l 2
 51 726 64 739 92 739 c 2
 218 739 l 2
 244 739 256 725 260 709 c 2
EndSplineSet
EndChar

StartChar: Ncaron
Encoding: 327 327 177
Width: 561
Flags: HMW
HStem: 0 22G<78 92 92 152 330 344 344 469> 719 20G<92 218 218 231 410 469 469 483>
VStem: 51 141<41 517> 369 141<222 698>
LayerCount: 2
Fore
SplineSet
260 709 m 2
 369 222 l 1
 369 698 l 2
 369 726 382 739 410 739 c 2
 469 739 l 2
 497 739 510 726 510 698 c 2
 510 41 l 2
 510 13 497 0 469 0 c 2
 344 0 l 2
 316 0 305 15 301 31 c 2
 193 517 l 1
 193 41 l 2
 193 13 180 0 152 0 c 2
 92 0 l 2
 64 0 51 13 51 41 c 2
 51 698 l 2
 51 726 64 739 92 739 c 2
 218 739 l 2
 244 739 256 725 260 709 c 2
158 865 m 2
 180 901 l 2
 187 912 199 907 208 903 c 2
 299 861 l 1
 390 903 l 2
 401 908 411 912 418 901 c 2
 440 865 l 2
 444 858 446 847 439 842 c 2
 343 779 l 2
 336 774 327 768 312 768 c 2
 288 768 l 2
 273 768 260 776 255 779 c 2
 159 842 l 2
 156 845 154 848 154 852 c 0
 154 857 155 861 158 865 c 2
EndSplineSet
Position2: "'cpsp' Capital Spacing in Latin lookup 0 subtable" dx=7 dy=0 dh=14 dv=0
EndChar

StartChar: Nacute
Encoding: 323 323 178
Width: 561
Flags: HMW
HStem: 0 22G<78 92 92 152 330 344 344 469> 719 20G<92 218 218 231 410 469 469 483>
VStem: 51 141<41 517> 369 141<222 698>
LayerCount: 2
Fore
SplineSet
260 709 m 2
 369 222 l 1
 369 698 l 2
 369 726 382 739 410 739 c 2
 469 739 l 2
 497 739 510 726 510 698 c 2
 510 41 l 2
 510 13 497 0 469 0 c 2
 344 0 l 2
 316 0 305 15 301 31 c 2
 193 517 l 1
 193 41 l 2
 193 13 180 0 152 0 c 2
 92 0 l 2
 64 0 51 13 51 41 c 2
 51 698 l 2
 51 726 64 739 92 739 c 2
 218 739 l 2
 244 739 256 725 260 709 c 2
215 835 m 2
 359 907 l 2
 373 914 383 911 388 898 c 2
 411 840 l 2
 416 827 410 817 395 812 c 2
 239 769 l 1
 226 764 216 768 212 781 c 1
 201 809 l 2
 197 818 203 828 215 835 c 2
EndSplineSet
Position2: "'cpsp' Capital Spacing in Latin lookup 0 subtable" dx=7 dy=0 dh=14 dv=0
EndChar

StartChar: ntilde
Encoding: 241 241 179
Width: 479
Flags: HMW
HStem: 0 22G<78 92 92 168 297 311 311 387> 497 20G<88 190 190 190>
VStem: 51 158<41 381> 270 158<41 353 353 362>
LayerCount: 2
Fore
SplineSet
51 41 m 2
 51 480 l 2
 51 500 68 517 88 517 c 2
 190 517 l 1
 209 493 l 1
 308 516 l 2
 317 519 327 520 336 520 c 0
 388 520 428 481 428 420 c 2
 428 41 l 2
 428 13 415 0 387 0 c 2
 311 0 l 2
 283 0 270 13 270 41 c 2
 270 353 l 2
 270 370 258 381 242 381 c 2
 209 381 l 1
 209 41 l 2
 209 13 196 0 168 0 c 2
 92 0 l 2
 64 0 51 13 51 41 c 2
72 616 m 2
 97 663 l 1
 122 704 199 726 266 676 c 1
 279 669 l 1
 294 658 304 658 309 669 c 1
 315 679 l 1
 324 692 330 695 342 695 c 2
 402 695 l 2
 417 695 424 683 416 668 c 2
 390 621 l 2
 365 577 287 557 221 606 c 1
 207 616 l 2
 194 625 183 625 178 614 c 1
 172 604 l 2
 164 591 157 588 145 588 c 2
 84 588 l 2
 71 588 64 601 72 616 c 2
EndSplineSet
EndChar

StartChar: eng
Encoding: 331 331 180
Width: 479
Flags: HMW
HStem: -186 22G<282 325 282 282> -20 20G<78 92 92 168 297 311 311 338 428 428> 497 20G<88 190 190 190> 500 20G<331 362>
VStem: 51 158<41 381> 270 158<41 353 353 362>
LayerCount: 2
Fore
SplineSet
51 41 m 2xdc
 51 480 l 2
 51 500 68 517 88 517 c 2
 190 517 l 1xec
 209 493 l 1
 308 516 l 2
 317 519 327 520 336 520 c 0
 388 520 428 481 428 420 c 2
 428 0 l 1
 361 -148 l 2
 352 -167 344 -186 325 -186 c 2
 282 -186 l 1
 338 0 l 1
 311 0 l 2
 283 0 270 13 270 41 c 2
 270 353 l 2
 270 370 258 381 242 381 c 2
 209 381 l 1
 209 41 l 2
 209 13 196 0 168 0 c 2
 92 0 l 2
 64 0 51 13 51 41 c 2xdc
EndSplineSet
EndChar

StartChar: napostrophe
Encoding: 329 329 181
Width: 479
Flags: HMW
HStem: 0 22G<78 92 92 168 297 311 311 387> 497 20G<88 190 190 190> 793 20G<88 155 155 164>
VStem: 51 140<707 776 669 786> 51 158<41 381> 270 158<41 353 353 362>
LayerCount: 2
Fore
SplineSet
51 41 m 2xec
 51 480 l 2
 51 500 68 517 88 517 c 2
 190 517 l 1
 209 493 l 1
 308 516 l 2
 317 519 327 520 336 520 c 0
 388 520 428 481 428 420 c 2
 428 41 l 2
 428 13 415 0 387 0 c 2
 311 0 l 2
 283 0 270 13 270 41 c 2
 270 353 l 2
 270 370 258 381 242 381 c 2
 209 381 l 1
 209 41 l 2
 209 13 196 0 168 0 c 2
 92 0 l 2
 64 0 51 13 51 41 c 2xec
51 707 m 2
 51 776 l 2
 51 796 69 813 88 813 c 2
 155 813 l 2
 174 813 191 796 191 776 c 2
 191 669 l 1xf4
 165 592 l 2
 158 572 147 554 128 554 c 2
 85 554 l 1
 101 669 l 1
 88 669 l 2
 69 669 51 687 51 707 c 2
EndSplineSet
EndChar

StartChar: ncaron
Encoding: 328 328 182
Width: 479
Flags: HMW
HStem: 0 22G<78 92 92 168 297 311 311 387> 497 20G<88 190 190 190> 520 37
VStem: 51 158<41 381> 270 158<41 353 353 362>
LayerCount: 2
Fore
SplineSet
51 41 m 2
 51 480 l 2
 51 500 68 517 88 517 c 2
 190 517 l 1
 209 493 l 1
 308 516 l 2
 317 519 327 520 336 520 c 0
 388 520 428 481 428 420 c 2
 428 41 l 2
 428 13 415 0 387 0 c 2
 311 0 l 2
 283 0 270 13 270 41 c 2
 270 353 l 2
 270 370 258 381 242 381 c 2
 209 381 l 1
 209 41 l 2
 209 13 196 0 168 0 c 2
 92 0 l 2
 64 0 51 13 51 41 c 2
120 718 m 2
 155 736 l 2
 166 741 177 737 182 729 c 2
 236 653 l 1
 289 729 l 2
 296 739 305 741 316 736 c 2
 351 718 l 2
 359 714 361 700 357 692 c 2
 297 571 l 2
 293 563 288 557 273 557 c 2
 198 557 l 2
 183 557 177 564 174 571 c 2
 114 692 l 2
 110 700 112 714 120 718 c 2
EndSplineSet
EndChar

StartChar: nacute
Encoding: 324 324 183
Width: 479
Flags: HMW
HStem: 0 22G<78 92 92 168 297 311 311 387> 497 20G<88 190 190 190>
VStem: 51 158<41 381> 270 158<41 353 353 362>
LayerCount: 2
Fore
SplineSet
51 41 m 2
 51 480 l 2
 51 500 68 517 88 517 c 2
 190 517 l 1
 209 493 l 1
 308 516 l 2
 317 519 327 520 336 520 c 0
 388 520 428 481 428 420 c 2
 428 41 l 2
 428 13 415 0 387 0 c 2
 311 0 l 2
 283 0 270 13 270 41 c 2
 270 353 l 2
 270 370 258 381 242 381 c 2
 209 381 l 1
 209 41 l 2
 209 13 196 0 168 0 c 2
 92 0 l 2
 64 0 51 13 51 41 c 2
220 545 m 2
 185 567 l 2
 177 572 176 586 183 597 c 2
 270 737 l 2
 277 750 288 752 300 743 c 2
 358 698 l 2
 369 690 369 679 360 668 c 2
 249 548 l 2
 240 539 230 538 220 545 c 2
EndSplineSet
EndChar

StartChar: Ldot
Encoding: 319 319 184
Width: 583
Flags: HMW
HStem: 0 139<78 367 228 367 228 367> 332 144<436 537 445 537> 719 20G<92 168 168 182>
VStem: 51 158<153 159 159 698> 409 165<370 439 359 450>
LayerCount: 2
Fore
SplineSet
209 698 m 2
 209 159 l 2
 209 148 217 139 228 139 c 2
 367 139 l 2
 395 139 408 126 408 98 c 2
 408 41 l 2
 408 13 395 0 367 0 c 2
 92 0 l 2
 64 0 51 13 51 41 c 2
 51 698 l 2
 51 726 64 739 92 739 c 2
 168 739 l 2
 196 739 209 726 209 698 c 2
409 370 m 2
 409 439 l 2
 409 459 426 476 445 476 c 2
 537 476 l 2
 556 476 573 459 573 439 c 2
 573 370 l 2
 573 350 556 332 537 332 c 2
 445 332 l 2
 426 332 409 350 409 370 c 2
EndSplineSet
EndChar

StartChar: Lcaron
Encoding: 317 317 185
Width: 418
Flags: HMW
HStem: 0 139<78 367 228 367 228 367> 719 20G<92 168 168 182> 793 20G<283 349 349 359>
VStem: 51 158<153 159 159 698> 246 140<707 776 669 786>
LayerCount: 2
Fore
SplineSet
209 698 m 2
 209 159 l 2
 209 148 217 139 228 139 c 2
 367 139 l 2
 395 139 408 126 408 98 c 2
 408 41 l 2
 408 13 395 0 367 0 c 2
 92 0 l 2
 64 0 51 13 51 41 c 2
 51 698 l 2
 51 726 64 739 92 739 c 2
 168 739 l 2
 196 739 209 726 209 698 c 2
246 707 m 2
 246 776 l 2
 246 796 264 813 283 813 c 2
 349 813 l 2
 368 813 386 796 386 776 c 2
 386 669 l 1
 359 592 l 2
 352 572 342 554 323 554 c 2
 280 554 l 1
 296 669 l 1
 283 669 l 2
 264 669 246 687 246 707 c 2
EndSplineSet
Position2: "'cpsp' Capital Spacing in Latin lookup 0 subtable" dx=7 dy=0 dh=14 dv=0
EndChar

StartChar: Lacute
Encoding: 313 313 186
Width: 418
Flags: HMW
HStem: 0 139<78 367 228 367 228 367> 719 20G<92 168 168 182>
VStem: 51 158<153 159 159 698>
LayerCount: 2
Fore
SplineSet
209 698 m 2
 209 159 l 2
 209 148 217 139 228 139 c 2
 367 139 l 2
 395 139 408 126 408 98 c 2
 408 41 l 2
 408 13 395 0 367 0 c 2
 92 0 l 2
 64 0 51 13 51 41 c 2
 51 698 l 2
 51 726 64 739 92 739 c 2
 168 739 l 2
 196 739 209 726 209 698 c 2
124 835 m 2
 268 907 l 2
 282 914 292 911 297 898 c 2
 319 840 l 2
 324 827 319 817 304 812 c 2
 147 769 l 1
 134 764 125 768 121 781 c 1
 110 809 l 2
 106 818 112 828 124 835 c 2
EndSplineSet
Position2: "'cpsp' Capital Spacing in Latin lookup 0 subtable" dx=7 dy=0 dh=14 dv=0
EndChar

StartChar: ldot
Encoding: 320 320 187
Width: 438
Flags: HMW
HStem: 0 22G<78 92 92 168> 333 144<291 392 301 392> 793 20G<92 168 168 182>
VStem: 51 158<41 772> 264 165<371 440 360 451>
LayerCount: 2
Fore
SplineSet
92 813 m 2
 168 813 l 2
 196 813 209 800 209 772 c 2
 209 41 l 2
 209 13 196 0 168 0 c 2
 92 0 l 2
 64 0 51 13 51 41 c 2
 51 772 l 2
 51 800 64 813 92 813 c 2
264 371 m 2
 264 440 l 2
 264 460 282 477 301 477 c 2
 392 477 l 2
 411 477 429 460 429 440 c 2
 429 371 l 2
 429 351 411 333 392 333 c 2
 301 333 l 2
 282 333 264 351 264 371 c 2
EndSplineSet
EndChar

StartChar: lcaron
Encoding: 318 318 188
Width: 385
Flags: HMW
HStem: 0 22G<78 92 92 168> 793 20G<92 168 168 182 271 338 338 348>
VStem: 51 158<41 772> 234 140<707 776 669 786>
LayerCount: 2
Fore
SplineSet
92 813 m 2
 168 813 l 2
 196 813 209 800 209 772 c 2
 209 41 l 2
 209 13 196 0 168 0 c 2
 92 0 l 2
 64 0 51 13 51 41 c 2
 51 772 l 2
 51 800 64 813 92 813 c 2
234 707 m 2
 234 776 l 2
 234 796 252 813 271 813 c 2
 338 813 l 2
 357 813 375 796 375 776 c 2
 375 669 l 1
 348 592 l 2
 341 572 330 554 311 554 c 2
 268 554 l 1
 285 669 l 1
 271 669 l 2
 252 669 234 687 234 707 c 2
EndSplineSet
EndChar

StartChar: lacute
Encoding: 314 314 189
Width: 260
Flags: HMW
HStem: 0 22G<78 92 92 168>
VStem: 51 158<41 772>
LayerCount: 2
Fore
SplineSet
92 813 m 2
 168 813 l 2
 196 813 209 800 209 772 c 2
 209 41 l 2
 209 13 196 0 168 0 c 2
 92 0 l 2
 64 0 51 13 51 41 c 2
 51 772 l 2
 51 800 64 813 92 813 c 2
73 910 m 2
 217 983 l 2
 231 990 241 987 246 974 c 2
 268 915 l 2
 273 902 268 893 253 888 c 2
 96 845 l 1
 83 840 74 844 70 857 c 1
 58 885 l 2
 54 894 61 903 73 910 c 2
EndSplineSet
EndChar

StartChar: Jcircumflex
Encoding: 308 308 190
Width: 363
Flags: HMW
HStem: 0 139<38 101 52 101 101 119 52 194> 719 20G<196 271 271 285> 893 20G<219 244 244 251>
VStem: 155 158<193 698>
LayerCount: 2
Fore
SplineSet
155 193 m 2
 155 698 l 2
 155 726 168 739 196 739 c 2
 271 739 l 2
 299 739 312 726 312 698 c 2
 312 119 l 2
 312 48 265 0 194 0 c 2
 52 0 l 2
 24 0 11 13 11 41 c 2
 11 98 l 2
 11 126 24 139 52 139 c 2
 101 139 l 2
 137 139 155 157 155 193 c 2
219 913 m 2
 244 913 l 2
 259 913 266 907 274 902 c 2
 371 840 l 2
 379 835 377 823 372 816 c 2
 349 780 l 2
 342 769 333 773 322 778 c 2
 230 820 l 1
 139 778 l 2
 130 774 119 769 112 780 c 2
 88 817 l 2
 84 824 82 835 90 840 c 2
 186 902 l 2
 191 905 204 913 219 913 c 2
EndSplineSet
EndChar

StartChar: jcircumflex
Encoding: 309 309 191
Width: 260
Flags: HMW
HStem: -222 22G<7 20 20 82> 497 20G<95 171 171 185> 721 20G<92 168 168 176>
VStem: -20 232<-138 -124 -124 -110> 54 158<-46 476>
LayerCount: 2
Fore
SplineSet
54 -46 m 2xe8
 54 476 l 2xe8
 54 504 67 517 95 517 c 2
 171 517 l 2
 199 517 212 504 212 476 c 2
 212 -102 l 2
 212 -173 154 -222 82 -222 c 2
 20 -222 l 2
 -8 -222 -20 -209 -20 -181 c 2
 -20 -124 l 2xf0
 -20 -96 -8 -83 16 -83 c 2
 18 -83 l 2
 37 -83 54 -66 54 -46 c 2xe8
92 741 m 2
 168 741 l 2
 183 741 187 735 191 727 c 2
 252 606 l 2
 256 598 254 585 246 581 c 2
 211 562 l 1
 200 555 190 560 183 569 c 2
 130 645 l 1
 77 569 l 1
 70 561 60 557 49 562 c 2
 14 581 l 2
 7 585 4 598 8 606 c 2
 69 727 l 2
 72 734 77 741 92 741 c 2
EndSplineSet
EndChar

StartChar: dollar
Encoding: 36 36 192
Width: 470
Flags: HMW
HStem: -111 250<188 202 202 207 111 265> 0 139<97 185 111 161> 600 139<263 341 306 341 306 341> 600 250<263 265 265 279 202 285 202 341>
VStem: 51 163<501 515 515 540 501 603 501 644> 161 145<-70 0 0 0 739 809> 256 163<201 225 225 239>
LayerCount: 2
Fore
SplineSet
202 850 m 2x94
 265 850 l 2x9a
 293 850 306 837 306 809 c 2
 306 739 l 1xa4
 341 739 l 2
 369 739 382 726 382 698 c 2
 382 641 l 2
 382 613 369 600 341 600 c 2
 285 600 l 2
 241 600 214 584 214 540 c 2
 214 515 l 2
 214 487 226 467 242 458 c 2
 364 388 l 2
 400 369 419 328 419 276 c 2
 419 137 l 2xaa
 419 57 364 11 314 3 c 0
 311 3 307 2 306 2 c 1
 306 -70 l 2
 306 -98 293 -111 265 -111 c 2
 202 -111 l 2xa4
 174 -111 161 -98 161 -70 c 2
 161 0 l 1
 111 0 l 2x64
 83 0 70 13 70 41 c 2
 70 98 l 2
 70 126 83 139 111 139 c 2
 185 139 l 2
 229 139 256 157 256 201 c 2
 256 225 l 2
 256 253 243 274 228 283 c 2
 106 352 l 2
 72 371 51 412 51 464 c 2
 51 603 l 2xaa
 51 684 105 723 147 734 c 0
 151 735 156 737 161 737 c 1
 161 809 l 2
 161 837 174 850 202 850 c 2x94
EndSplineSet
EndChar

StartChar: percent
Encoding: 37 37 193
Width: 612
Flags: HMW
HStem: 0 22G<62 76 76 152 378 397 397 513> 719 20G<99 215 215 233 461 536 536 549>
VStem: 40 96<524 534 534 626 524 679> 179 96<534 626 626 634> 336 96<103 112 112 208> 475 96<112 208 208 216>
LayerCount: 2
Fore
SplineSet
47 41 m 2
 409 698 l 2
 422 723 433 739 461 739 c 2
 536 739 l 2
 564 739 578 723 565 698 c 2
 205 41 l 2
 192 16 180 0 152 0 c 2
 76 0 l 2
 48 0 34 16 47 41 c 2
99 739 m 2
 215 739 l 2
 252 739 275 715 275 679 c 2
 275 522 l 2
 275 466 222 419 168 419 c 2
 99 419 l 2
 63 419 40 442 40 478 c 2
 40 679 l 2
 40 715 63 739 99 739 c 2
443 321 m 2
 512 321 l 2
 548 321 571 297 571 261 c 2
 571 60 l 2
 571 24 549 0 513 0 c 2
 397 0 l 2
 359 0 336 23 336 60 c 2
 336 217 l 2
 336 273 389 321 443 321 c 2
457 230 m 2
 452 230 l 2
 435 230 432 224 432 208 c 2
 432 112 l 2
 432 95 435 89 452 89 c 2
 457 89 l 2
 472 89 475 95 475 112 c 2
 475 208 l 2
 475 224 472 230 457 230 c 2
159 650 m 2
 158 650 l 2
 139 650 136 643 136 626 c 2
 136 534 l 2
 136 515 139 509 158 509 c 2
 159 509 l 2
 175 509 179 515 179 534 c 2
 179 626 l 2
 179 643 175 650 159 650 c 2
EndSplineSet
Ligature2: "Ligature Substitution lookup 5 subtable" zero fraction zero
Ligature2: "Ligature Substitution lookup 5 subtable" zero slash zero
EndChar

StartChar: ampersand
Encoding: 38 38 194
Width: 559
Flags: HMW
HStem: 0 139<150 291 247 291 247 408> 304 139<245 291 267 291 449 477> 601 138<232 249 249 348>
VStem: 41 158<172 186 186 200 200 238 172 241 550 551> 291 158<139 304 443 494>
LayerCount: 2
Fore
SplineSet
449 304 m 1
 449 41 l 2
 449 13 436 0 408 0 c 2
 195 0 l 2
 105 0 41 65 41 155 c 2
 41 200 l 2
 41 283 85 345 151 375 c 1
 85 404 41 465 41 550 c 2
 41 584 l 2
 41 675 106 739 198 739 c 2
 348 739 l 2
 376 739 389 726 389 698 c 2
 389 642 l 2
 389 614 376 601 348 601 c 2
 249 601 l 2
 215 601 199 585 199 551 c 2
 199 512 l 2
 199 470 223 443 267 443 c 2
 291 443 l 1
 291 494 l 2
 291 522 304 535 332 535 c 2
 408 535 l 2
 436 535 449 522 449 494 c 2
 449 443 l 1
 477 443 l 2
 505 443 518 430 518 402 c 2
 518 345 l 2
 518 317 505 304 477 304 c 2
 449 304 l 1
291 304 m 1
 267 304 l 2
 223 304 199 279 199 238 c 2
 199 186 l 2
 199 157 217 139 247 139 c 2
 291 139 l 1
 291 304 l 1
EndSplineSet
EndChar

StartChar: quotesingle
Encoding: 39 39 195
Width: 262
Flags: HMW
HStem: 502 238<94 108 108 155>
LayerCount: 2
Fore
SplineSet
155 502 m 2
 108 502 l 2
 80 502 70 515 67 543 c 2
 51 698 l 2
 48 726 64 739 92 739 c 2
 170 739 l 2
 198 739 214 726 211 698 c 2
 196 543 l 2
 193 515 183 502 155 502 c 2
EndSplineSet
EndChar

StartChar: parenleft
Encoding: 40 40 196
Width: 328
Flags: HMW
HStem: -148 139<158 268 252 267> 706 139<238 252 252 267>
VStem: 51 158<19 34 34 663>
LayerCount: 2
Fore
SplineSet
198 845 m 2
 267 845 l 2
 295 845 308 832 308 804 c 2
 308 746 l 2
 308 718 295 706 267 706 c 2
 252 706 l 2
 223 706 209 692 209 663 c 2
 209 34 l 2
 209 5 223 -9 252 -9 c 2
 268 -9 l 2
 295 -9 308 -22 308 -50 c 2
 308 -108 l 2
 308 -136 295 -148 267 -148 c 2
 199 -148 l 2
 118 -148 51 -84 51 -1 c 2
 51 697 l 2
 51 780 116 845 198 845 c 2
EndSplineSet
EndChar

StartChar: parenright
Encoding: 41 41 197
Width: 318
Flags: HMW
HStem: -148 139<60 61 61 77 77 91 60 130> 706 139<48 131 61 77>
VStem: 120 158<34 663 663 677>
LayerCount: 2
Fore
SplineSet
61 845 m 2
 131 845 l 2
 213 845 278 780 278 697 c 2
 278 -1 l 2
 278 -84 213 -148 130 -148 c 2
 61 -148 l 2
 33 -148 20 -136 20 -108 c 2
 20 -50 l 2
 20 -22 33 -9 60 -9 c 2
 77 -9 l 2
 106 -9 120 5 120 34 c 2
 120 663 l 2
 120 692 106 706 77 706 c 2
 61 706 l 2
 33 706 20 718 20 746 c 2
 20 804 l 2
 20 832 33 845 61 845 c 2
EndSplineSet
EndChar

StartChar: asterisk
Encoding: 42 42 198
Width: 485
Flags: HMW
HStem: 719 20G<201 286 286 295>
LayerCount: 2
Fore
SplineSet
201 739 m 2
 286 739 l 2
 305 739 314 725 310 706 c 2
 286 602 l 1
 379 657 l 2
 391 665 411 660 416 645 c 2
 443 565 l 2
 448 550 439 531 422 528 c 1
 310 520 l 1
 395 451 l 2
 410 439 408 421 392 409 c 2
 331 361 l 2
 318 350 293 354 286 373 c 1
 243 473 l 1
 200 373 l 1
 192 357 170 348 155 360 c 2
 94 410 l 2
 79 422 78 440 91 451 c 2
 172 521 l 1
 66 531 l 1
 47 534 36 548 43 565 c 2
 71 644 l 2
 78 664 96 663 111 655 c 2
 200 601 l 1
 176 708 l 2
 172 727 185 739 201 739 c 2
EndSplineSet
EndChar

StartChar: plus
Encoding: 43 43 199
Width: 467
Flags: HMW
HStem: 55 22G<192 206 206 263> 189 139<58 165 72 165 304 396> 436 20G<206 263 263 277>
VStem: 165 139<96 189 82 189 329 416>
LayerCount: 2
Fore
SplineSet
206 457 m 2
 263 457 l 2
 291 457 304 444 304 416 c 2
 304 329 l 1
 396 329 l 2
 424 329 437 315 437 287 c 2
 437 230 l 2
 437 202 424 189 396 189 c 2
 304 189 l 1
 304 96 l 2
 304 68 291 55 263 55 c 2
 206 55 l 2
 178 55 165 68 165 96 c 2
 165 189 l 1
 72 189 l 2
 44 189 31 202 31 230 c 2
 31 288 l 2
 31 316 44 329 72 329 c 2
 165 329 l 1
 165 416 l 2
 165 444 178 457 206 457 c 2
EndSplineSet
EndChar

StartChar: comma
Encoding: 44 44 200
Width: 216
Flags: HMW
HStem: -186 22G<39 82 39 39> 0 144<48 148 57 95 57 185>
VStem: 20 165<38 108 0 118>
LayerCount: 2
Fore
SplineSet
20 38 m 2
 20 108 l 2
 20 128 38 144 57 144 c 2
 148 144 l 2
 167 144 185 128 185 108 c 2
 185 0 l 1
 119 -148 l 2
 110 -167 101 -186 82 -186 c 2
 39 -186 l 1
 95 0 l 1
 57 0 l 2
 38 0 20 18 20 38 c 2
EndSplineSet
EndChar

StartChar: hyphen
Encoding: 45 45 201
AltUni2: 0000ad.ffffffff.0
Width: 284
Flags: HMW
HStem: 206 139<48 223 61 223>
VStem: 20 244<247 304 233 318>
LayerCount: 2
Fore
SplineSet
20 247 m 2
 20 304 l 2
 20 332 33 345 61 345 c 2
 223 345 l 2
 251 345 264 332 264 304 c 2
 264 247 l 2
 264 219 251 206 223 206 c 2
 61 206 l 2
 33 206 20 219 20 247 c 2
EndSplineSet
EndChar

StartChar: period
Encoding: 46 46 202
Width: 226
Flags: HMW
HStem: 0 144<58 159 68 159>
VStem: 31 165<38 108 28 118>
LayerCount: 2
Fore
SplineSet
31 38 m 2
 31 108 l 2
 31 128 49 144 68 144 c 2
 159 144 l 2
 178 144 196 128 196 108 c 2
 196 38 l 2
 196 18 178 0 159 0 c 2
 68 0 l 2
 49 0 31 18 31 38 c 2
EndSplineSet
EndChar

StartChar: slash
Encoding: 47 47 203
Width: 400
Flags: HMW
HStem: -148 22G<-3 11 11 74> 793 20G<294 356 356 370>
LayerCount: 2
Fore
SplineSet
-17 -108 m 2
 242 772 l 2
 250 800 267 813 294 813 c 2
 356 813 l 2
 384 813 394 800 386 772 c 2
 127 -108 l 2
 119 -136 102 -148 74 -148 c 2
 11 -148 l 2
 -17 -148 -25 -136 -17 -108 c 2
EndSplineSet
EndChar

StartChar: zero
Encoding: 48 48 204
Width: 494
Flags: HMW
HStem: 0 139<110 250 247 250 250 264 247 353> 600 139<231 247 247 249>
VStem: 41 158<173 187 187 552> 296 158<187 552 552 567>
LayerCount: 2
Fore
SplineSet
140 739 m 2
 353 739 l 2
 414 739 454 700 454 639 c 2
 454 100 l 2
 454 39 415 0 353 0 c 2
 140 0 l 2
 79 0 41 39 41 100 c 2
 41 639 l 2
 41 700 79 739 140 739 c 2
249 600 m 2
 247 600 l 2
 215 600 199 582 199 552 c 2
 199 187 l 2
 199 157 215 139 247 139 c 2
 250 139 l 2
 279 139 296 157 296 187 c 2
 296 552 l 2
 296 582 279 600 249 600 c 2
EndSplineSet
EndChar

StartChar: one
Encoding: 49 49 205
Width: 494
Flags: HMW
HStem: 0 22G<274 288 288 364> 475 139<126 127 127 247> 719 20G<288 364 364 377>
VStem: 247 158<41 475 475 475 614 698>
LayerCount: 2
Fore
SplineSet
288 739 m 2
 364 739 l 2
 392 739 404 726 404 698 c 2
 404 41 l 2
 404 13 392 0 364 0 c 2
 288 0 l 2
 260 0 247 13 247 41 c 2
 247 475 l 1
 127 475 l 2
 99 475 85 488 85 516 c 2
 85 573 l 2
 85 601 98 614 126 614 c 2
 247 614 l 1
 247 698 l 2
 247 726 260 739 288 739 c 2
EndSplineSet
EndChar

StartChar: two
Encoding: 50 50 206
Width: 494
Flags: HMW
HStem: 0 139<87 379 199 379 199 379> 600 139<108 300 122 210>
VStem: 281 158<504 529 529 551>
LayerCount: 2
Fore
SplineSet
122 739 m 2
 300 739 l 2
 382 739 438 683 438 602 c 2
 438 469 l 2
 438 433 430 413 406 385 c 2
 199 139 l 1
 379 139 l 2
 407 139 420 126 420 98 c 2
 420 41 l 2
 420 13 407 0 379 0 c 2
 101 0 l 2
 72 0 58 14 58 43 c 2
 58 181 l 2
 58 189 62 198 67 205 c 2
 264 461 l 2
 275 476 281 485 281 504 c 2
 281 529 l 2
 281 573 254 600 210 600 c 2
 122 600 l 2
 94 600 81 613 81 641 c 2
 81 698 l 2
 81 726 94 739 122 739 c 2
EndSplineSet
EndChar

StartChar: three
Encoding: 51 51 207
Width: 494
Flags: HMW
HStem: 0 139<88 203 101 203 203 218 101 252> 304 139<124 182 138 182> 600 139<88 252 101 201>
VStem: 251 158<186 198 111 238 111 258 508 550 550 551 551 567>
LayerCount: 2
Fore
SplineSet
101 739 m 2
 252 739 l 2
 345 739 409 675 409 584 c 2
 409 551 l 2
 409 465 365 404 299 375 c 1
 365 345 409 284 409 198 c 2
 409 157 l 2
 409 65 345 0 252 0 c 2
 101 0 l 2
 73 0 60 13 60 40 c 2
 60 99 l 2
 60 126 73 139 101 139 c 2
 203 139 l 2
 233 139 251 157 251 186 c 2
 251 238 l 2
 251 278 226 304 182 304 c 2
 138 304 l 2
 110 304 97 318 97 346 c 2
 97 402 l 2
 97 430 110 443 138 443 c 2
 182 443 l 2
 226 443 251 464 251 506 c 2
 251 550 l 2
 251 584 235 600 201 600 c 2
 101 600 l 2
 73 600 60 613 60 641 c 2
 60 698 l 2
 60 726 73 739 101 739 c 2
EndSplineSet
EndChar

StartChar: four
Encoding: 52 52 208
Width: 494
Flags: HMW
HStem: 0 22G<286 300 300 358> 146 139<51 259 164 259 164 259 399 436> 719 20G<181 358 358 372>
VStem: 259 140<41 146 27 146 286 605 605 605>
LayerCount: 2
Fore
SplineSet
181 739 m 2
 358 739 l 2
 386 739 399 726 399 698 c 2
 399 286 l 1
 436 286 l 2
 464 286 477 269 477 249 c 2
 477 187 l 2
 477 159 464 146 436 146 c 2
 399 146 l 1
 399 41 l 2
 399 13 386 0 358 0 c 2
 300 0 l 2
 272 0 259 13 259 41 c 2
 259 146 l 1
 65 146 l 2
 37 146 24 159 24 187 c 2
 24 279 l 2
 24 291 26 303 29 314 c 2
 143 709 l 2
 148 728 157 739 181 739 c 2
259 286 m 1
 259 605 l 1
 164 286 l 1
 259 286 l 1
EndSplineSet
EndChar

StartChar: five
Encoding: 53 53 209
Width: 494
Flags: HMW
HStem: 0 139<102 202 116 202 202 220 116 302> 324 139<102 285 116 285> 600 139<247 255 255 381 381 382>
VStem: 75 158<463 578 463 698 463 712> 264 158<202 253 253 275>
LayerCount: 2
Fore
SplineSet
116 739 m 2
 381 739 l 2
 409 739 422 726 422 698 c 2
 422 641 l 2
 422 613 409 600 382 600 c 2
 255 600 l 2
 240 600 232 593 232 578 c 2
 232 463 l 1
 285 463 l 2
 367 463 422 408 422 326 c 2
 422 120 l 2
 422 54 369 0 302 0 c 2
 116 0 l 2
 88 0 75 13 75 41 c 2
 75 98 l 2
 75 126 88 139 116 139 c 2
 202 139 l 2
 238 139 264 168 264 202 c 2
 264 253 l 2
 264 297 237 324 193 324 c 2
 116 324 l 2
 88 324 75 338 75 366 c 2
 75 698 l 2
 75 726 88 739 116 739 c 2
EndSplineSet
EndChar

StartChar: six
Encoding: 54 54 210
Width: 494
Flags: HMW
HStem: 0 139<121 259 244 259 259 269 244 347> 600 139<232 244 244 370>
VStem: 52 158<162 174 174 318 430 565> 290 158<172 287 287 297>
LayerCount: 2
Fore
SplineSet
152 739 m 2
 370 739 l 2
 398 739 411 726 411 698 c 2
 411 640 l 2
 411 613 398 600 370 600 c 2
 244 600 l 2
 221 600 210 589 210 565 c 2
 210 430 l 1
 304 450 l 2
 316 453 339 458 348 458 c 0
 408 458 447 417 447 356 c 2
 447 100 l 2
 447 39 409 0 347 0 c 2
 152 0 l 2
 91 0 52 39 52 100 c 2
 52 639 l 2
 52 700 91 739 152 739 c 2
258 318 m 2
 210 318 l 1
 210 174 l 2
 210 150 221 139 244 139 c 2
 259 139 l 2
 278 139 290 150 290 172 c 2
 290 287 l 2
 290 309 280 318 258 318 c 2
EndSplineSet
EndChar

StartChar: seven
Encoding: 55 55 211
Width: 494
Flags: HMW
HStem: 0 22G<136 153 153 218> 582 158<81 408 95 294>
LayerCount: 2
Fore
SplineSet
95 739 m 2
 408 739 l 2
 436 739 449 725 449 697 c 2
 449 606 l 2
 449 590 447 576 442 561 c 2
 259 28 l 2
 254 12 243 0 218 0 c 2
 153 0 l 2
 120 0 104 25 112 49 c 2
 294 582 l 1
 95 582 l 2
 67 582 54 596 54 624 c 2
 54 698 l 2
 54 726 67 739 95 739 c 2
EndSplineSet
EndChar

StartChar: eight
Encoding: 56 56 212
Width: 494
Flags: HMW
HStem: 0 139<144 255 240 255 255 270 240 304> 304 139<233 248 246 248> 600 139<225 242 242 253>
VStem: 34 158<172 186 186 198 198 238 172 241> 303 158<186 198 111 238 111 258 511 550 550 551 551 567>
LayerCount: 2
Fore
SplineSet
190 739 m 2
 304 739 l 2
 397 739 461 675 461 584 c 2
 461 551 l 2
 461 465 417 404 351 375 c 1
 417 345 461 284 461 198 c 2
 461 157 l 2
 461 65 397 0 304 0 c 2
 190 0 l 2
 97 0 34 65 34 157 c 2
 34 198 l 2
 34 284 77 345 143 375 c 1
 77 404 34 465 34 551 c 2
 34 584 l 2
 34 675 98 739 190 739 c 2
247 304 m 2
 246 304 l 2
 220 304 191 278 191 238 c 2
 191 186 l 2
 191 157 210 139 240 139 c 2
 255 139 l 2
 285 139 303 157 303 186 c 2
 303 238 l 2
 303 278 275 304 247 304 c 2
253 600 m 2
 242 600 l 2
 208 600 191 584 191 550 c 2
 191 511 l 2
 191 469 219 443 247 443 c 2
 248 443 l 2
 276 443 303 469 303 511 c 2
 303 550 l 2
 303 584 287 600 253 600 c 2
EndSplineSet
EndChar

StartChar: nine
Encoding: 57 57 213
Width: 494
Flags: HMW
HStem: 0 139<111 251 125 251 251 262 125 343> 600 139<226 236 236 251>
VStem: 47 158<414 425 425 567 414 639> 285 158<174 282 282 282 393 565 565 577>
LayerCount: 2
Fore
SplineSet
343 0 m 2
 125 0 l 2
 97 0 84 13 84 41 c 2
 84 99 l 2
 84 126 97 139 125 139 c 2
 251 139 l 2
 274 139 285 150 285 174 c 2
 285 282 l 1
 190 262 l 2
 178 259 155 254 146 254 c 0
 86 254 47 294 47 355 c 2
 47 639 l 2
 47 700 85 739 147 739 c 2
 343 739 l 2
 404 739 442 700 442 639 c 2
 442 100 l 2
 442 39 404 0 343 0 c 2
237 393 m 2
 285 393 l 1
 285 565 l 2
 285 589 274 600 251 600 c 2
 236 600 l 2
 217 600 205 589 205 567 c 2
 205 425 l 2
 205 403 215 393 237 393 c 2
EndSplineSet
EndChar

StartChar: colon
Encoding: 58 58 214
Width: 226
Flags: HMW
HStem: 0 144<58 159 68 159> 373 144<58 159 68 159>
VStem: 31 165<38 108 28 118 411 480>
LayerCount: 2
Fore
SplineSet
68 517 m 2
 159 517 l 2
 178 517 196 500 196 480 c 2
 196 411 l 2
 196 391 178 373 159 373 c 2
 68 373 l 2
 49 373 31 391 31 411 c 2
 31 480 l 2
 31 500 49 517 68 517 c 2
68 144 m 2
 159 144 l 2
 178 144 196 128 196 108 c 2
 196 38 l 2
 196 18 178 0 159 0 c 2
 68 0 l 2
 49 0 31 18 31 38 c 2
 31 108 l 2
 31 128 49 144 68 144 c 2
EndSplineSet
EndChar

StartChar: semicolon
Encoding: 59 59 215
Width: 216
Flags: HMW
HStem: -186 22G<39 82 39 39> 0 144<48 148 57 95 57 185> 373 144<48 148 57 148>
VStem: 20 165<38 108 0 118 411 480>
LayerCount: 2
Fore
SplineSet
20 38 m 2
 20 108 l 2
 20 128 38 144 57 144 c 2
 148 144 l 2
 167 144 185 128 185 108 c 2
 185 0 l 1
 119 -148 l 2
 110 -167 101 -186 82 -186 c 2
 39 -186 l 1
 95 0 l 1
 57 0 l 2
 38 0 20 18 20 38 c 2
57 517 m 2
 148 517 l 2
 167 517 185 500 185 480 c 2
 185 411 l 2
 185 391 167 373 148 373 c 2
 57 373 l 2
 38 373 20 391 20 411 c 2
 20 480 l 2
 20 500 38 517 57 517 c 2
EndSplineSet
EndChar

StartChar: less
Encoding: 60 60 216
Width: 395
Flags: W
LayerCount: 2
Fore
SplineSet
261 22 m 2
 49 190 l 2
 37 200 31 212 31 223 c 2
 31 289 l 2
 31 301 40 312 49 319 c 2
 261 494 l 2
 283 511 301 509 318 487 c 2
 353 445 l 2
 370 423 369 405 347 388 c 2
 181 257 l 1
 347 127 l 2
 369 110 370 92 353 70 c 2
 318 28 l 2
 301 6 283 5 261 22 c 2
EndSplineSet
EndChar

StartChar: equal
Encoding: 61 61 217
Width: 467
Flags: HMW
HStem: 75 139<58 396 72 396> 304 139<58 396 72 396>
LayerCount: 2
Fore
SplineSet
72 443 m 2
 396 443 l 2
 424 443 437 430 437 402 c 2
 437 345 l 2
 437 317 424 304 396 304 c 2
 72 304 l 2
 44 304 31 317 31 345 c 2
 31 402 l 2
 31 430 44 443 72 443 c 2
72 214 m 2
 396 214 l 2
 424 214 437 201 437 173 c 2
 437 116 l 2
 437 88 424 75 396 75 c 2
 72 75 l 2
 44 75 31 88 31 116 c 2
 31 173 l 2
 31 201 44 214 72 214 c 2
EndSplineSet
EndChar

StartChar: greater
Encoding: 62 62 218
Width: 395
Flags: W
LayerCount: 2
Fore
SplineSet
42 445 m 2
 77 487 l 2
 94 509 112 511 134 494 c 2
 346 319 l 2
 355 311 365 301 365 289 c 2
 365 223 l 2
 365 212 358 200 346 190 c 2
 134 22 l 2
 112 5 94 6 77 28 c 2
 42 70 l 2
 25 92 26 110 48 127 c 2
 214 257 l 1
 48 388 l 2
 26 404 25 423 42 445 c 2
EndSplineSet
EndChar

StartChar: question
Encoding: 63 63 219
Width: 458
Flags: HMW
HStem: 0 134<137 232 151 232> 600 139<78 271 93 179>
VStem: 113 158<284 287 270 327 270 353> 250 158<532 540 540 561>
LayerCount: 2
Fore
SplineSet
93 739 m 2xd0
 271 739 l 2
 353 739 408 684 408 602 c 2
 408 493 l 2xd0
 408 441 386 405 352 381 c 2
 298 344 l 1
 280 333 270 314 270 287 c 2
 270 284 l 2
 270 256 257 243 230 243 c 2
 154 243 l 2
 126 243 113 256 113 284 c 2
 113 327 l 2xe0
 113 379 135 414 168 438 c 1
 222 475 l 2
 240 487 250 506 250 532 c 2
 250 540 l 2
 250 582 223 600 179 600 c 2
 91 600 l 2
 64 600 51 613 51 641 c 2
 51 698 l 2
 51 726 65 739 93 739 c 2xd0
151 134 m 2
 232 134 l 2
 260 134 273 121 273 93 c 2
 273 40 l 2
 273 13 260 0 232 0 c 2
 151 0 l 2
 123 0 110 13 110 40 c 2
 110 93 l 2
 110 121 123 134 151 134 c 2
EndSplineSet
EndChar

StartChar: Omega
Encoding: 937 937 220
AltUni2: 002126.ffffffff.0
Width: 740
Flags: HMW
HStem: 0 139<81 83 83 160 160 167 81 298 583 659> 600 139<243 261 261 480>
VStem: 41 158<464 486 486 537 464 618 464 653> 181 158<162 276 276 276> 403 158<154 161 161 276 154 373> 542 158<486 537 537 554>
LayerCount: 2
Fore
SplineSet
161 739 m 2xe8
 580 739 l 2
 647 739 699 686 699 620 c 2
 699 413 l 2xe4
 699 330 642 276 563 276 c 2
 561 276 l 1
 561 161 l 2xe8
 561 147 569 139 583 139 c 2
 659 139 l 2
 686 139 699 126 699 98 c 2
 699 41 l 2xe4
 699 13 686 0 659 0 c 2
 444 0 l 2
 416 0 403 13 403 41 c 2
 403 373 l 2xe8
 403 402 416 416 444 416 c 2
 470 416 l 2
 514 416 542 442 542 486 c 2
 542 537 l 2
 542 573 516 600 480 600 c 2
 261 600 l 2
 225 600 199 573 199 537 c 2
 199 486 l 2xe4
 199 442 226 416 270 416 c 2
 299 416 l 2
 326 416 339 402 339 373 c 2
 339 41 l 2xd8
 339 13 326 0 298 0 c 2
 83 0 l 2
 55 0 41 13 41 40 c 2
 41 98 l 2xe8
 41 123 55 139 81 139 c 2
 160 139 l 2
 174 139 181 147 181 162 c 2
 181 276 l 1xd8
 178 276 l 2
 96 276 41 332 41 414 c 2
 41 618 l 2
 41 687 94 739 161 739 c 2xe8
EndSplineSet
EndChar

StartChar: ae
Encoding: 230 230 221
Width: 669
Flags: HMW
HStem: 0 118<117 246 224 246 246 253 224 290> 0 139<387 551 463 551 463 551> 378 139<98 290 112 218>
VStem: 51 146<134 141 141 181 134 232 134 263> 261 158<163 177 177 185 163 213 163 213 305 336 336 352> 482 146<317 357 357 364>
CounterMasks: 1 1c
LayerCount: 2
Fore
SplineSet
112 517 m 2xbc
 290 517 l 2
 314 517 329 512 344 504 c 1
 359 513 376 517 398 517 c 2
 528 517 l 2
 589 517 629 478 629 417 c 2
 629 286 l 2
 629 224 589 185 528 185 c 2
 419 185 l 1
 419 177 l 2
 419 149 434 139 463 139 c 2
 551 139 l 2x7c
 579 139 592 126 592 98 c 2
 592 41 l 2
 592 13 579 0 551 0 c 2
 398 0 l 2
 375 0 357 4 344 13 c 1
 330 4 312 0 290 0 c 2
 143 0 l 2
 91 0 51 39 51 100 c 2
 51 232 l 2
 51 293 91 333 143 333 c 0
 151 333 157 333 172 329 c 2
 261 305 l 1
 261 336 l 2
 261 368 248 378 218 378 c 2
 112 378 l 2
 84 378 71 391 71 419 c 2
 71 476 l 2
 71 504 84 517 112 517 c 2xbc
261 213 m 1
 229 213 l 2
 207 213 198 203 198 181 c 2
 198 141 l 2
 198 126 207 118 224 118 c 2
 246 118 l 2xbc
 261 118 261 122 261 141 c 2
 261 213 l 1
459 383 m 2
 445 383 l 2
 432 383 419 372 419 357 c 2
 419 278 l 1
 465 292 l 2
 477 296 482 306 482 317 c 2
 482 357 l 2
 482 370 470 383 459 383 c 2
EndSplineSet
EndChar

StartChar: oslash
Encoding: 248 248 222
Width: 501
Flags: HMW
HStem: -147 22G<67 80 80 153> -20 20G<230 346 230 230> 497 20G<153 270 270 270> 644 20G<346 421 421 434>
VStem: 52 158<168 182 182 335 168 417> 289 158<182 335 335 349>
LayerCount: 2
Fore
SplineSet
346 665 m 2
 421 665 l 2
 448 665 455 652 446 624 c 2
 404 502 l 1
 439 475 446 454 446 400 c 2
 446 99 l 2
 446 38 407 0 346 0 c 2
 230 0 l 1
 189 -119 l 2
 181 -143 170 -147 153 -147 c 2
 80 -147 l 2
 53 -147 45 -134 54 -106 c 2
 96 14 l 1
 66 33 52 62 52 100 c 2
 52 417 l 2
 52 478 92 517 153 517 c 2
 270 517 l 1
 312 639 l 2
 319 658 329 665 346 665 c 2
210 335 m 2
 210 182 l 2
 210 154 227 139 247 139 c 2
 251 139 l 2
 271 139 289 154 289 182 c 2
 289 335 l 2
 289 363 271 378 251 378 c 2
 247 378 l 2
 227 378 210 363 210 335 c 2
EndSplineSet
EndChar

StartChar: questiondown
Encoding: 191 191 223
Width: 458
Flags: HMW
HStem: -222 139<146 368 280 366> 383 134<212 308 226 308>
VStem: 51 158<-44 -23 -23 -15 -44 25 -44 51> 188 158<230 233 164 247>
LayerCount: 2
Fore
SplineSet
366 -222 m 2xe0
 187 -222 l 2
 105 -222 51 -167 51 -85 c 2
 51 25 l 2xe0
 51 77 72 112 106 136 c 2
 161 173 l 1
 179 184 188 203 188 230 c 2
 188 233 l 2
 188 261 201 274 228 274 c 2
 305 274 l 2
 333 274 346 261 346 233 c 2
 346 190 l 2xd0
 346 138 324 103 291 79 c 1
 237 42 l 2
 219 30 209 11 209 -15 c 2
 209 -23 l 2
 209 -65 236 -83 280 -83 c 2
 368 -83 l 2
 395 -83 408 -96 408 -124 c 2
 408 -181 l 2
 408 -209 394 -222 366 -222 c 2xe0
308 383 m 2
 226 383 l 2
 198 383 185 396 185 424 c 2
 185 477 l 2
 185 504 198 517 226 517 c 2
 308 517 l 2
 336 517 349 504 349 477 c 2
 349 424 l 2
 349 396 336 383 308 383 c 2
EndSplineSet
EndChar

StartChar: exclamdown
Encoding: 161 161 224
Width: 348
Flags: HMW
HStem: -222 22G<122 136 136 212> 383 134<119 215 133 215>
VStem: 95 158<-181 233>
LayerCount: 2
Fore
SplineSet
95 -181 m 2
 95 233 l 2
 95 261 108 274 136 274 c 2
 212 274 l 2
 240 274 253 261 253 233 c 2
 253 -181 l 2
 253 -209 240 -222 212 -222 c 2
 136 -222 l 2
 108 -222 95 -209 95 -181 c 2
92 424 m 2
 92 476 l 2
 92 504 105 517 133 517 c 2
 215 517 l 2
 243 517 256 504 256 476 c 2
 256 424 l 2
 256 396 243 383 215 383 c 2
 133 383 l 2
 105 383 92 396 92 424 c 2
EndSplineSet
EndChar

StartChar: logicalnot
Encoding: 172 172 225
Width: 478
Flags: HMW
HStem: 55 22G<335 349 349 407> 184 139<58 407 72 308>
VStem: 308 139<96 184 184 184>
LayerCount: 2
Fore
SplineSet
72 324 m 2
 407 324 l 2
 435 324 447 311 447 283 c 2
 447 96 l 2
 447 68 435 55 407 55 c 2
 349 55 l 2
 321 55 308 68 308 96 c 2
 308 184 l 1
 72 184 l 2
 44 184 31 197 31 225 c 2
 31 283 l 2
 31 311 44 324 72 324 c 2
EndSplineSet
EndChar

StartChar: radical
Encoding: 8730 8730 226
Width: 513
Flags: HMW
HStem: 0 22G<150 160 160 355> 378 139<-29 167 -15 71> 719 20G<384 457 457 466>
LayerCount: 2
Fore
SplineSet
-15 517 m 2
 167 517 l 2
 186 517 203 507 208 485 c 1
 261 129 l 1
 348 709 l 1
 352 726 368 739 384 739 c 2
 457 739 l 2
 476 739 497 722 493 697 c 2
 390 31 l 2
 387 11 374 0 355 0 c 2
 160 0 l 2
 141 0 127 14 124 31 c 2
 71 378 l 1
 -15 378 l 2
 -43 378 -56 391 -56 418 c 2
 -56 476 l 2
 -56 504 -43 517 -15 517 c 2
EndSplineSet
EndChar

StartChar: florin
Encoding: 402 402 227
Width: 376
Flags: HMW
HStem: -222 139<48 68 61 68 68 81 61 151> 288 139<65 110 79 110 267 298> 674 139<296 310 310 315>
VStem: 20 247<-138 -124 -124 -110> 110 158<-40 288 427 631> 110 247<427 715 701 715 715 729>
LayerCount: 2
Fore
SplineSet
227 813 m 2xe8
 315 813 l 2
 343 813 356 800 356 772 c 2
 356 715 l 2xe4
 356 687 343 674 315 674 c 2
 310 674 l 2
 281 674 267 660 267 631 c 2
 267 427 l 1
 298 427 l 2
 326 427 339 414 339 386 c 2
 339 329 l 2
 339 301 326 288 298 288 c 2
 267 288 l 1
 267 -99 l 2
 267 -177 218 -222 151 -222 c 2
 61 -222 l 2
 33 -222 20 -209 20 -181 c 2
 20 -124 l 2xf0
 20 -96 33 -83 61 -83 c 2
 68 -83 l 2
 96 -83 110 -72 110 -40 c 2
 110 288 l 1
 79 288 l 2
 51 288 38 301 38 329 c 2
 38 386 l 2
 38 414 51 427 79 427 c 2
 110 427 l 1
 110 690 l 2
 110 768 157 813 227 813 c 2xe8
EndSplineSet
EndChar

StartChar: approxequal
Encoding: 8776 8776 228
Width: 570
Flags: W
LayerCount: 2
Fore
SplineSet
46 334 m 2
 82 398 l 2
 115 457 226 487 317 418 c 1
 333 407 l 2
 355 392 369 392 377 407 c 2
 385 421 l 2
 397 440 406 443 421 443 c 2
 506 443 l 2
 525 443 535 426 524 406 c 2
 488 340 l 2
 455 281 344 252 253 321 c 1
 233 335 l 2
 216 348 203 347 194 332 c 2
 185 317 l 2
 174 298 165 295 150 295 c 2
 63 295 l 2
 44 295 35 315 46 334 c 2
46 114 m 2
 82 178 l 2
 115 237 226 267 317 198 c 1
 333 186 l 2
 355 171 369 171 377 186 c 2
 385 201 l 2
 397 220 406 223 421 223 c 2
 506 223 l 2
 525 223 535 205 524 185 c 2
 488 120 l 2
 455 61 344 31 253 100 c 1
 233 115 l 2
 216 128 203 127 194 112 c 2
 185 97 l 2
 174 78 165 75 150 75 c 2
 63 75 l 2
 44 75 35 95 46 114 c 2
EndSplineSet
EndChar

StartChar: Delta
Encoding: 916 916 229
AltUni2: 002206.ffffffff.0
Width: 543
Flags: HMW
HStem: 0 139<48 352 184 352 184 488> 719 20G<175 370 370 379>
LayerCount: 2
Fore
SplineSet
175 739 m 2
 370 739 l 2
 389 739 403 726 406 709 c 2
 523 44 l 2
 527 20 507 0 488 0 c 2
 58 0 l 2
 38 0 18 16 22 41 c 2
 139 709 l 2
 142 725 156 739 175 739 c 2
352 139 m 1
 268 610 l 1
 184 139 l 1
 352 139 l 1
EndSplineSet
EndChar

StartChar: guillemotleft
Encoding: 171 171 230
Width: 590
Flags: W
LayerCount: 2
Fore
SplineSet
515 598 m 2
 549 563 l 2
 568 544 562 525 543 506 c 2
 400 370 l 1
 542 233 l 2
 561 214 568 196 548 176 c 2
 515 142 l 2
 496 123 477 117 458 136 c 2
 291 303 l 2
 280 314 272 325 272 336 c 2
 272 401 l 2
 272 413 282 423 291 432 c 2
 458 604 l 2
 477 623 496 617 515 598 c 2
273 598 m 1
 307 563 l 2
 326 544 320 523 301 506 c 2
 159 370 l 1
 300 233 l 2
 319 216 326 196 306 176 c 2
 275 144 l 2
 256 125 235 117 216 136 c 2
 49 303 l 2
 38 314 31 325 31 336 c 2
 31 401 l 2
 31 413 40 423 49 432 c 2
 216 604 l 2
 235 623 256 617 273 598 c 1
EndSplineSet
EndChar

StartChar: guillemotright
Encoding: 187 187 231
Width: 590
Flags: W
LayerCount: 2
Fore
SplineSet
51 563 m 2
 85 598 l 2
 104 617 123 623 142 604 c 2
 309 432 l 2
 318 423 328 413 328 401 c 2
 328 336 l 2
 328 325 320 314 309 303 c 2
 142 136 l 2
 123 117 104 123 85 142 c 2
 52 176 l 2
 32 196 39 214 58 233 c 2
 200 370 l 1
 57 506 l 2
 38 525 32 544 51 563 c 2
293 563 m 2
 327 598 l 1
 344 617 365 623 384 604 c 2
 551 432 l 2
 560 423 569 413 569 401 c 2
 569 336 l 2
 569 325 562 314 551 303 c 2
 384 136 l 2
 365 117 344 125 325 144 c 2
 294 176 l 2
 274 196 281 216 300 233 c 2
 441 370 l 1
 299 506 l 2
 280 523 274 544 293 563 c 2
EndSplineSet
EndChar

StartChar: ellipsis
Encoding: 8230 8230 232
Width: 865
Flags: HMW
HStem: 0 144<58 159 68 159 387 478 707 798>
VStem: 31 165<38 108 28 118> 350 165<38 108 28 118> 670 165<38 108 28 118>
CounterMasks: 1 70
LayerCount: 2
Fore
SplineSet
31 38 m 2
 31 108 l 2
 31 128 49 144 68 144 c 2
 159 144 l 2
 178 144 196 128 196 108 c 2
 196 38 l 2
 196 18 178 0 159 0 c 2
 68 0 l 2
 49 0 31 18 31 38 c 2
670 38 m 2
 670 108 l 2
 670 128 688 144 707 144 c 2
 798 144 l 2
 817 144 835 128 835 108 c 2
 835 38 l 2
 835 18 817 0 798 0 c 2
 707 0 l 2
 688 0 670 18 670 38 c 2
350 38 m 2
 350 108 l 2
 350 128 368 144 387 144 c 2
 478 144 l 2
 497 144 515 128 515 108 c 2
 515 38 l 2
 515 18 497 0 478 0 c 2
 387 0 l 2
 368 0 350 18 350 38 c 2
EndSplineSet
EndChar

StartChar: OE
Encoding: 338 338 233
Width: 701
Flags: HMW
HStem: 0 139<151 325 258 325 501 640> 304 139<482 595 482 595> 600 139<238 257 257 325 495 502 502 640>
VStem: 41 158<180 200 200 540> 325 158<152 158 158 304 443 581>
LayerCount: 2
Fore
SplineSet
199 739 m 2
 640 739 l 2
 668 739 681 726 681 698 c 2
 681 641 l 2
 681 613 668 600 640 600 c 2
 502 600 l 2
 489 600 482 594 482 581 c 2
 482 443 l 1
 595 443 l 2
 622 443 635 430 635 402 c 2
 635 345 l 2
 635 317 622 304 595 304 c 2
 482 304 l 1
 482 158 l 2
 482 147 490 139 501 139 c 2
 640 139 l 2
 668 139 681 126 681 98 c 2
 681 41 l 2
 681 13 668 0 640 0 c 2
 198 0 l 2
 104 0 41 64 41 158 c 2
 41 583 l 2
 41 676 106 739 199 739 c 2
325 600 m 1
 257 600 l 2
 218 600 199 580 199 540 c 2
 199 200 l 2
 199 160 218 139 258 139 c 2
 325 139 l 1
 325 600 l 1
EndSplineSet
Position2: "'cpsp' Capital Spacing in Latin lookup 0 subtable" dx=7 dy=0 dh=14 dv=0
EndChar

StartChar: oe
Encoding: 339 339 234
Width: 696
Flags: HMW
HStem: 0 139<121 250 246 250 250 260 246 307 489 578> 378 139<236 246 246 250>
VStem: 51 158<168 182 182 335 168 417> 288 158<182 185 163 278 278 335 335 349> 509 146<317 357 357 364>
LayerCount: 2
Fore
SplineSet
152 517 m 2
 307 517 l 2
 331 517 357 512 372 504 c 1
 387 513 404 517 426 517 c 2
 555 517 l 2
 616 517 655 479 655 417 c 2
 655 286 l 2
 655 224 616 185 555 185 c 2
 445 185 l 1
 445 177 l 2
 445 149 460 139 489 139 c 2
 578 139 l 2
 606 139 618 126 618 98 c 2
 618 41 l 2
 618 13 606 0 578 0 c 2
 426 0 l 2
 403 0 385 4 372 13 c 1
 359 5 331 0 307 0 c 2
 152 0 l 2
 91 0 51 39 51 100 c 2
 51 417 l 2
 51 478 91 517 152 517 c 2
250 378 m 2
 246 378 l 2
 226 378 209 363 209 335 c 2
 209 182 l 2
 209 154 226 139 246 139 c 2
 250 139 l 2
 270 139 288 154 288 182 c 2
 288 335 l 2
 288 363 270 378 250 378 c 2
485 383 m 2
 472 383 l 2
 459 383 445 372 445 357 c 2
 445 278 l 1
 492 292 l 2
 504 296 509 306 509 317 c 2
 509 357 l 2
 509 370 496 383 485 383 c 2
EndSplineSet
EndChar

StartChar: endash
Encoding: 8211 8211 235
Width: 440
Flags: HMW
HStem: 206 139<48 379 61 379>
LayerCount: 2
Fore
SplineSet
20 247 m 2
 20 304 l 2
 20 332 33 345 61 345 c 2
 379 345 l 2
 407 345 420 332 420 304 c 2
 420 247 l 2
 420 219 407 206 379 206 c 2
 61 206 l 2
 33 206 20 219 20 247 c 2
EndSplineSet
EndChar

StartChar: emdash
Encoding: 8212 8212 236
Width: 586
Flags: HMW
HStem: 206 139<48 525 61 525>
LayerCount: 2
Fore
SplineSet
20 247 m 2
 20 304 l 2
 20 332 33 345 61 345 c 2
 525 345 l 2
 553 345 566 332 566 304 c 2
 566 247 l 2
 566 219 553 206 525 206 c 2
 61 206 l 2
 33 206 20 219 20 247 c 2
EndSplineSet
EndChar

StartChar: quotedblleft
Encoding: 8220 8220 237
Width: 423
Flags: HMW
HStem: 540 144<31 68 121 159 31 159 329 367> 850 20G<134 177 177 177 342 385 385 385>
VStem: 31 165<577 646 566 684 566 684> 239 165<577 646 566 684 566 684>
LayerCount: 2
Fore
SplineSet
367 540 m 2
 275 540 l 2
 256 540 239 557 239 577 c 2
 239 684 l 1
 305 833 l 2
 314 855 323 870 342 870 c 2
 385 870 l 1
 329 684 l 1
 367 684 l 2
 386 684 403 666 403 646 c 2
 403 577 l 2
 403 557 386 540 367 540 c 2
159 540 m 2
 68 540 l 2
 49 540 31 557 31 577 c 2
 31 684 l 1
 97 833 l 2
 105 852 115 870 134 870 c 2
 177 870 l 1
 121 684 l 1
 159 684 l 2
 178 684 196 666 196 646 c 2
 196 577 l 2
 196 557 178 540 159 540 c 2
EndSplineSet
EndChar

StartChar: quotedblright
Encoding: 8221 8221 238
Width: 423
Flags: HMW
HStem: 482 22G<39 82 39 39 247 247 247 290> 669 144<48 148 57 95 57 185 57 265 265 303>
VStem: 20 165<707 776 669 786> 228 165<707 776 669 786>
LayerCount: 2
Fore
SplineSet
57 813 m 2
 148 813 l 2
 167 813 185 796 185 776 c 2
 185 669 l 1
 119 520 l 2
 110 498 101 482 82 482 c 2
 39 482 l 1
 95 669 l 1
 57 669 l 2
 38 669 20 687 20 707 c 2
 20 776 l 2
 20 796 38 813 57 813 c 2
265 813 m 2
 356 813 l 2
 375 813 393 796 393 776 c 2
 393 669 l 1
 327 520 l 2
 319 501 309 482 290 482 c 2
 247 482 l 1
 303 669 l 1
 265 669 l 2
 246 669 228 687 228 707 c 2
 228 776 l 2
 228 796 246 813 265 813 c 2
EndSplineSet
EndChar

StartChar: quoteleft
Encoding: 8216 8216 239
Width: 216
Flags: HMW
HStem: 540 144<31 68 121 159 31 159> 850 20G<134 177 177 177>
VStem: 31 165<577 646 566 684 566 684>
LayerCount: 2
Fore
SplineSet
196 646 m 2
 196 577 l 2
 196 557 178 540 159 540 c 2
 68 540 l 2
 49 540 31 557 31 577 c 2
 31 684 l 1
 97 833 l 2
 106 852 115 870 134 870 c 2
 177 870 l 1
 121 684 l 1
 159 684 l 2
 178 684 196 666 196 646 c 2
EndSplineSet
EndChar

StartChar: quoteright
Encoding: 8217 8217 240
Width: 216
Flags: HMW
HStem: 482 22G<39 82 39 39> 669 144<48 148 57 95 57 185>
VStem: 20 165<707 776 669 786>
LayerCount: 2
Fore
SplineSet
20 707 m 2
 20 776 l 2
 20 796 38 813 57 813 c 2
 148 813 l 2
 167 813 185 796 185 776 c 2
 185 669 l 1
 119 520 l 2
 110 501 101 482 82 482 c 2
 39 482 l 1
 95 669 l 1
 57 669 l 2
 38 669 20 687 20 707 c 2
EndSplineSet
EndChar

StartChar: divide
Encoding: 247 247 241
Width: 467
Flags: HMW
HStem: 0 144<182 283 191 283> 189 139<58 396 72 396> 373 144<182 283 191 283>
VStem: 155 165<38 108 28 118 411 480>
LayerCount: 2
Fore
SplineSet
72 329 m 2
 396 329 l 2
 424 329 437 315 437 287 c 2
 437 230 l 2
 437 202 424 189 396 189 c 2
 72 189 l 2
 44 189 31 202 31 230 c 2
 31 288 l 2
 31 316 44 329 72 329 c 2
191 144 m 2
 283 144 l 2
 302 144 319 128 319 108 c 2
 319 38 l 2
 319 18 302 0 283 0 c 2
 191 0 l 2
 172 0 155 18 155 38 c 2
 155 108 l 2
 155 128 172 144 191 144 c 2
191 517 m 2
 283 517 l 2
 302 517 319 500 319 480 c 2
 319 411 l 2
 319 391 302 373 283 373 c 2
 191 373 l 2
 172 373 155 391 155 411 c 2
 155 480 l 2
 155 500 172 517 191 517 c 2
EndSplineSet
EndChar

StartChar: lozenge
Encoding: 9674 9674 242
Width: 521
Flags: HMW
HStem: -222 22G<154 163 163 357> 719 20G<163 357 357 367>
LayerCount: 2
Fore
SplineSet
163 739 m 2
 357 739 l 2
 376 739 388 723 393 699 c 2
 473 317 l 2
 481 277 484 244 473 198 c 1
 393 -182 l 2
 388 -206 376 -222 357 -222 c 2
 163 -222 l 2
 146 -222 132 -206 127 -182 c 2
 48 198 l 2
 39 244 38 269 46 309 c 2
 127 699 l 2
 132 723 146 739 163 739 c 2
332 259 m 1
 256 602 l 1
 182 260 l 1
 256 -85 l 1
 332 259 l 1
EndSplineSet
EndChar

StartChar: fraction
Encoding: 8260 8260 243
Width: 550
Flags: HMW
HStem: 0 22G<31 45 45 121> 719 20G<430 505 505 519>
LayerCount: 2
Fore
SplineSet
16 41 m 2
 378 698 l 2
 391 723 402 739 430 739 c 2
 505 739 l 2
 533 739 548 723 535 698 c 2
 174 41 l 2
 161 16 149 0 121 0 c 2
 45 0 l 2
 17 0 3 16 16 41 c 2
EndSplineSet
EndChar

StartChar: currency
Encoding: 164 164 244
Width: 534
Flags: W
LayerCount: 2
Fore
SplineSet
81 143 m 2
 46 178 l 1
 37 189 39 203 50 214 c 2
 111 274 l 1
 109 275 l 1
 60 324 59 392 109 441 c 2
 111 443 l 1
 51 503 l 2
 40 514 37 529 48 540 c 2
 83 574 l 2
 94 585 111 586 120 577 c 2
 181 515 l 1
 182 517 l 1
 234 567 299 566 348 517 c 2
 350 515 l 1
 412 574 l 1
 421 585 435 590 446 579 c 2
 481 543 l 2
 493 532 493 517 484 506 c 1
 422 443 l 1
 422 442 l 1
 472 393 474 328 425 278 c 2
 422 274 l 1
 484 211 l 2
 493 202 493 186 482 174 c 2
 447 139 l 2
 436 128 423 131 412 142 c 2
 350 204 l 1
 349 202 l 1
 308 159 233 151 184 202 c 1
 181 204 l 1
 118 141 l 2
 111 134 96 128 81 143 c 2
198 330 m 2
 237 291 l 2
 246 282 255 278 265 278 c 0
 276 278 287 283 296 292 c 2
 333 328 l 2
 343 338 348 348 348 359 c 0
 348 370 344 380 335 389 c 2
 295 429 l 2
 287 437 276 441 265 441 c 0
 254 441 243 436 234 426 c 2
 200 391 l 2
 181 372 178 349 198 330 c 2
EndSplineSet
EndChar

StartChar: guilsinglleft
Encoding: 8249 8249 245
Width: 349
Flags: W
LayerCount: 2
Fore
SplineSet
273 598 m 1
 306 564 l 2
 325 545 319 526 300 507 c 2
 158 370 l 1
 300 233 l 2
 319 214 326 196 306 176 c 2
 273 142 l 1
 256 123 235 117 216 136 c 2
 49 303 l 2
 38 314 31 325 31 336 c 2
 31 401 l 2
 31 413 40 423 49 432 c 2
 216 604 l 2
 235 623 256 617 273 598 c 1
EndSplineSet
EndChar

StartChar: guilsinglright
Encoding: 8250 8250 246
Width: 349
Flags: W
LayerCount: 2
Fore
SplineSet
52 564 m 2
 85 598 l 1
 102 617 123 623 142 604 c 2
 309 432 l 2
 318 423 328 413 328 401 c 2
 328 336 l 2
 328 325 320 314 309 303 c 2
 142 136 l 2
 123 117 102 123 85 142 c 1
 52 176 l 2
 32 196 39 214 58 233 c 2
 201 370 l 1
 58 507 l 2
 39 526 33 545 52 564 c 2
EndSplineSet
EndChar

StartChar: fi
Encoding: 64257 64257 247
Width: 546
Flags: HMW
HStem: 0 22G<132 145 145 221 371 385 385 461> 378 139<58 104 72 104 262 344> 674 139<291 305 305 454>
VStem: 104 158<41 378 517 631> 344 158<41 378 378 378>
LayerCount: 2
Fore
SplineSet
232 813 m 2
 454 813 l 2
 482 813 495 800 495 772 c 2
 495 715 l 2
 495 687 482 674 454 674 c 2
 305 674 l 2
 276 674 262 660 262 631 c 2
 262 517 l 1
 461 517 l 2
 489 517 502 504 502 476 c 2
 502 41 l 2
 502 13 489 0 461 0 c 2
 385 0 l 2
 357 0 344 13 344 41 c 2
 344 378 l 1
 262 378 l 1
 262 41 l 2
 262 13 249 0 221 0 c 2
 145 0 l 2
 117 0 104 13 104 41 c 2
 104 378 l 1
 72 378 l 2
 44 378 31 391 31 418 c 2
 31 477 l 2
 31 504 44 517 72 517 c 2
 104 517 l 1
 104 690 l 2
 104 768 163 813 232 813 c 2
EndSplineSet
Ligature2: "'liga' Standard Ligatures in Latin lookup 1 subtable" f i
EndChar

StartChar: fl
Encoding: 64258 64258 248
Width: 532
Flags: HMW
HStem: 0 22G<132 145 145 221 371 385 385 461> 378 139<58 104 72 104 262 267> 674 139<291 305 305 344>
VStem: 104 158<41 378 517 631> 344 158<41 674 674 674>
LayerCount: 2
Fore
SplineSet
267 378 m 2
 262 378 l 1
 262 41 l 2
 262 13 249 0 221 0 c 2
 145 0 l 2
 117 0 104 13 104 41 c 2
 104 378 l 1
 72 378 l 2
 44 378 31 391 31 418 c 2
 31 477 l 2
 31 504 44 517 72 517 c 2
 104 517 l 1
 104 690 l 2
 104 768 163 813 232 813 c 2
 464 813 l 2
 490 813 502 800 502 772 c 2
 502 41 l 2
 502 13 489 0 461 0 c 2
 385 0 l 2
 357 0 344 13 344 41 c 2
 344 674 l 1
 305 674 l 2
 276 674 262 660 262 631 c 2
 262 517 l 1
 267 517 l 2
 295 517 308 504 308 476 c 2
 308 419 l 2
 308 391 295 378 267 378 c 2
EndSplineSet
Ligature2: "'liga' Standard Ligatures in Latin lookup 2 subtable" f l
EndChar

StartChar: daggerdbl
Encoding: 8225 8225 249
Width: 490
Flags: HMW
HStem: -222 22G<203 217 217 272> 36 139<38 176 52 176 313 438 52 313> 447 139<38 176 52 176 52 176 313 437 52 313> 824 20G<217 273 273 287>
VStem: 176 137<-181 36 175 447 587 803>
LayerCount: 2
Fore
SplineSet
217 845 m 2
 273 845 l 2
 300 845 313 831 313 803 c 2
 313 587 l 1
 438 587 l 2
 466 587 479 574 479 546 c 2
 479 488 l 2
 479 460 465 447 437 447 c 2
 313 447 l 1
 313 175 l 1
 438 175 l 2
 466 175 479 161 479 133 c 2
 479 77 l 2
 479 49 466 36 438 36 c 2
 313 36 l 1
 313 -181 l 2
 313 -209 300 -222 272 -222 c 2
 217 -222 l 2
 189 -222 176 -209 176 -181 c 2
 176 36 l 1
 52 36 l 2
 24 36 11 49 11 76 c 2
 11 134 l 2
 11 162 24 175 52 175 c 2
 176 175 l 1
 176 447 l 1
 51 447 l 2
 24 447 11 460 11 487 c 2
 11 546 l 2
 11 574 24 587 52 587 c 2
 176 587 l 1
 176 804 l 2
 176 832 189 845 217 845 c 2
EndSplineSet
EndChar

StartChar: periodcentered
Encoding: 183 183 250
Width: 226
Flags: HMW
HStem: 283 144<58 159 68 159>
VStem: 31 165<321 390 310 400>
LayerCount: 2
Fore
SplineSet
31 321 m 2
 31 390 l 2
 31 410 49 427 68 427 c 2
 159 427 l 2
 178 427 196 410 196 390 c 2
 196 321 l 2
 196 301 178 283 159 283 c 2
 68 283 l 2
 49 283 31 301 31 321 c 2
EndSplineSet
EndChar

StartChar: quotesinglbase
Encoding: 8218 8218 251
Width: 216
Flags: HMW
HStem: -186 22G<39 82 39 39> 0 144<48 148 57 95 57 185>
VStem: 20 165<38 108 0 118>
LayerCount: 2
Fore
SplineSet
20 38 m 2
 20 108 l 2
 20 128 38 144 57 144 c 2
 148 144 l 2
 167 144 185 128 185 108 c 2
 185 0 l 1
 119 -148 l 2
 110 -167 101 -186 82 -186 c 2
 39 -186 l 1
 95 0 l 1
 57 0 l 2
 38 0 20 18 20 38 c 2
EndSplineSet
EndChar

StartChar: quotedblbase
Encoding: 8222 8222 252
Width: 413
Flags: HMW
HStem: -186 22G<39 82 39 39 247 247 247 290> 0 144<48 148 57 95 57 185 57 265 265 303>
VStem: 20 165<38 108 0 118> 228 165<38 108 0 118>
LayerCount: 2
Fore
SplineSet
57 144 m 2
 148 144 l 2
 167 144 185 128 185 108 c 2
 185 0 l 1
 119 -148 l 2
 110 -170 101 -186 82 -186 c 2
 39 -186 l 1
 95 0 l 1
 57 0 l 2
 38 0 20 18 20 38 c 2
 20 108 l 2
 20 128 38 144 57 144 c 2
265 144 m 2
 356 144 l 2
 375 144 393 128 393 108 c 2
 393 0 l 1
 327 -148 l 2
 319 -167 309 -186 290 -186 c 2
 247 -186 l 1
 303 0 l 1
 265 0 l 2
 246 0 228 18 228 38 c 2
 228 108 l 2
 228 128 246 144 265 144 c 2
EndSplineSet
EndChar

StartChar: perthousand
Encoding: 8240 8240 253
Width: 881
Flags: HMW
HStem: 0 89<378 457 452 457 457 464 452 513 718 723 723 731> 230 90<443 452 452 457 709 718 718 723> 719 20G<99 215 215 233 461 536 536 549>
VStem: 40 96<524 534 534 626 524 679> 179 96<534 626 626 634> 336 96<103 112 112 208> 475 96<112 208 208 216> 602 96<103 112 112 208> 741 96<112 208 208 216>
LayerCount: 2
Fore
SplineSet
47 41 m 2
 409 698 l 2
 422 723 433 739 461 739 c 2
 536 739 l 2
 564 739 578 723 565 698 c 2
 205 41 l 2
 192 16 180 0 152 0 c 2
 76 0 l 2
 48 0 34 16 47 41 c 2
660 321 m 2
 778 321 l 2
 814 321 838 297 838 261 c 2
 838 60 l 2
 838 24 815 0 779 0 c 2
 664 0 l 2
 626 0 602 23 602 60 c 2
 602 260 l 2
 602 294 624 321 660 321 c 2
99 739 m 2
 215 739 l 2
 252 739 275 715 275 679 c 2
 275 522 l 2
 275 466 222 419 168 419 c 2
 99 419 l 2
 63 419 40 442 40 478 c 2
 40 679 l 2
 40 715 63 739 99 739 c 2
443 321 m 2
 512 321 l 2
 548 321 571 297 571 261 c 2
 571 60 l 2
 571 24 549 0 513 0 c 2
 397 0 l 2
 359 0 336 23 336 60 c 2
 336 217 l 2
 336 273 389 321 443 321 c 2
457 230 m 2
 452 230 l 2
 435 230 432 224 432 208 c 2
 432 112 l 2
 432 95 435 89 452 89 c 2
 457 89 l 2
 472 89 475 95 475 112 c 2
 475 208 l 2
 475 224 472 230 457 230 c 2
723 230 m 2
 718 230 l 2
 701 230 698 224 698 208 c 2
 698 112 l 2
 698 95 701 89 718 89 c 2
 723 89 l 2
 738 89 741 95 741 112 c 2
 741 208 l 2
 741 224 738 230 723 230 c 2
159 650 m 2
 158 650 l 2
 139 650 136 643 136 626 c 2
 136 534 l 2
 136 515 139 509 158 509 c 2
 159 509 l 2
 175 509 179 515 179 534 c 2
 179 626 l 2
 179 643 175 650 159 650 c 2
EndSplineSet
Ligature2: "Ligature Substitution lookup 4 subtable" zero fraction zero zero
Ligature2: "Ligature Substitution lookup 4 subtable" zero slash zero zero
EndChar

StartChar: numbersign
Encoding: 35 35 254
Width: 650
Flags: HMW
HStem: 0 22G<26 40 40 102 315 329 329 391> 157 139<-2 86 30 45 230 334 30 189 519 537> 443 139<82 171 114 130 114 274 315 419 603 621> 719 20G<257 319 319 333 546 608 608 622>
LayerCount: 2
Fore
SplineSet
257 739 m 2
 319 739 l 2
 347 739 357 726 349 698 c 2
 315 583 l 1
 460 583 l 1
 494 698 l 1
 503 726 520 739 546 739 c 2
 608 739 l 2
 636 739 646 726 638 698 c 2
 603 583 l 1
 638 583 l 2
 666 583 687 568 679 542 c 2
 662 484 l 2
 654 458 649 443 621 443 c 2
 562 443 l 1
 519 296 l 1
 553 296 l 2
 581 296 601 281 594 255 c 2
 578 198 l 2
 571 172 565 157 537 157 c 2
 478 157 l 1
 444 41 l 2
 437 13 419 0 391 0 c 2
 329 0 l 2
 301 0 292 13 300 41 c 2
 334 157 l 1
 189 157 l 1
 156 41 l 2
 148 13 130 0 102 0 c 2
 40 0 l 2
 12 0 3 13 11 41 c 2
 45 157 l 1
 12 157 l 2
 -16 157 -37 172 -29 198 c 2
 -11 255 l 2
 -3 281 2 296 30 296 c 2
 86 296 l 1
 130 443 l 1
 96 443 l 2
 68 443 47 458 55 484 c 2
 73 542 l 2
 81 568 86 583 114 583 c 2
 171 583 l 1
 205 698 l 2
 212 726 229 739 257 739 c 2
419 443 m 1
 274 443 l 1
 230 296 l 1
 375 296 l 1
 419 443 l 1
EndSplineSet
EndChar

StartChar: Zdotaccent
Encoding: 379 379 255
Width: 429
Flags: HMW
HStem: 0 139<48 368 161 368 161 368> 600 139<48 368 61 267> 776 126<167 250 179 250>
VStem: 142 144<813 867 801 879>
LayerCount: 2
Fore
SplineSet
61 739 m 2
 368 739 l 2
 396 739 409 726 409 698 c 2
 409 557 l 2
 409 550 406 542 401 535 c 2
 161 139 l 1
 368 139 l 2
 396 139 409 126 409 98 c 2
 409 41 l 2
 409 13 396 0 368 0 c 2
 61 0 l 2
 33 0 20 13 20 41 c 2
 20 181 l 2
 20 186 23 196 26 201 c 2
 267 600 l 1
 61 600 l 2
 33 600 20 613 20 641 c 2
 20 698 l 2
 20 726 33 739 61 739 c 2
142 813 m 2
 142 867 l 2
 142 891 154 902 179 902 c 2
 250 902 l 2
 275 902 287 891 287 867 c 2
 287 813 l 2
 287 788 275 776 250 776 c 2
 179 776 l 2
 154 776 142 788 142 813 c 2
EndSplineSet
Position2: "'cpsp' Capital Spacing in Latin lookup 0 subtable" dx=7 dy=0 dh=14 dv=0
EndChar

StartChar: Itilde
Encoding: 296 296 256
Width: 260
Flags: HMW
HStem: 0 22G<78 92 92 168> 719 20G<92 168 168 182>
VStem: 51 158<41 698>
LayerCount: 2
Fore
SplineSet
51 41 m 2
 51 698 l 2
 51 726 64 739 92 739 c 2
 168 739 l 2
 196 739 209 726 209 698 c 2
 209 41 l 2
 209 13 196 0 168 0 c 2
 92 0 l 2
 64 0 51 13 51 41 c 2
-42 816 m 2
 -16 858 l 2
 10 900 79 909 153 872 c 2
 165 866 l 2
 181 858 188 855 196 866 c 2
 202 874 l 2
 211 887 216 891 228 891 c 2
 289 891 l 2
 304 891 311 878 302 863 c 2
 276 820 l 2
 250 776 182 771 108 807 c 2
 93 814 l 2
 78 821 72 823 65 812 c 1
 58 804 l 2
 49 792 44 787 32 787 c 2
 -30 787 l 2
 -43 787 -50 801 -42 816 c 2
EndSplineSet
EndChar

StartChar: Iogonek
Encoding: 302 302 257
Width: 260
Flags: HMW
HStem: -222 74<68 187 137 187 187 188> 719 20G<92 168 168 182>
VStem: 51 158<41 698>
LayerCount: 2
Fore
SplineSet
39 -108 m 2
 85 0 l 1
 62 2 51 15 51 41 c 2
 51 698 l 2
 51 726 64 739 92 739 c 2
 168 739 l 2
 196 739 209 726 209 698 c 2
 209 41 l 2
 209 15 197 1 171 0 c 1
 120 -116 l 2
 112 -133 118 -148 137 -148 c 2
 187 -148 l 2
 202 -148 213 -155 213 -170 c 2
 213 -202 l 2
 213 -215 200 -222 188 -222 c 2
 94 -222 l 2
 42 -222 16 -158 39 -108 c 2
EndSplineSet
Position2: "'cpsp' Capital Spacing in Latin lookup 0 subtable" dx=7 dy=0 dh=14 dv=0
EndChar

StartChar: Imacron
Encoding: 298 298 258
Width: 260
Flags: HMW
HStem: 0 22G<78 92 92 168> 719 20G<92 168 168 182> 799 103<5 242 18 242>
VStem: 51 158<41 698>
LayerCount: 2
Fore
SplineSet
51 41 m 2
 51 698 l 2
 51 726 64 739 92 739 c 2
 168 739 l 2
 196 739 209 726 209 698 c 2
 209 41 l 2
 209 13 196 0 168 0 c 2
 92 0 l 2
 64 0 51 13 51 41 c 2
-23 840 m 2
 -23 861 l 2
 -23 889 -10 902 18 902 c 2
 242 902 l 2
 270 902 283 889 283 861 c 2
 283 840 l 2
 283 812 270 799 242 799 c 2
 18 799 l 2
 -10 799 -23 812 -23 840 c 2
EndSplineSet
Position2: "'cpsp' Capital Spacing in Latin lookup 0 subtable" dx=7 dy=0 dh=14 dv=0
EndChar

StartChar: IJ
Encoding: 306 306 259
Width: 598
Flags: HMW
HStem: 0 139<92 330 267 330 281 330 330 348 281 422> 719 20G<92 168 168 182 424 500 500 514>
VStem: 51 158<41 698> 383 158<193 698>
LayerCount: 2
Fore
SplineSet
383 193 m 2
 383 698 l 2
 383 726 396 739 424 739 c 2
 500 739 l 2
 528 739 541 726 541 698 c 2
 541 119 l 2
 541 48 493 0 422 0 c 2
 281 0 l 2
 253 0 240 13 240 41 c 2
 240 98 l 2
 240 126 253 139 281 139 c 2
 330 139 l 2
 366 139 383 157 383 193 c 2
51 41 m 2
 51 698 l 2
 51 726 64 739 92 739 c 2
 168 739 l 2
 196 739 209 726 209 698 c 2
 209 41 l 2
 209 13 196 0 168 0 c 2
 92 0 l 2
 64 0 51 13 51 41 c 2
EndSplineSet
EndChar

StartChar: Igrave
Encoding: 204 204 260
Width: 260
Flags: HMW
HStem: 0 22G<78 92 92 168> 719 20G<92 168 168 182>
VStem: 51 158<41 698>
LayerCount: 2
Fore
SplineSet
51 41 m 2
 51 698 l 2
 51 726 64 739 92 739 c 2
 168 739 l 2
 196 739 209 726 209 698 c 2
 209 41 l 2
 209 13 196 0 168 0 c 2
 92 0 l 2
 64 0 51 13 51 41 c 2
-3 840 m 2
 19 898 l 2
 24 911 35 914 48 907 c 2
 193 835 l 2
 201 831 210 819 206 808 c 2
 196 781 l 2
 191 769 182 765 169 769 c 2
 12 812 l 2
 -3 817 -8 827 -3 840 c 2
EndSplineSet
Position2: "'cpsp' Capital Spacing in Latin lookup 0 subtable" dx=7 dy=0 dh=14 dv=0
EndChar

StartChar: Idotaccent
Encoding: 304 304 261
Width: 260
Flags: HMW
HStem: 0 22G<78 92 92 168> 719 20G<92 168 168 182> 776 126<83 166 95 166>
VStem: 51 158<41 698>
LayerCount: 2
Fore
SplineSet
51 41 m 2
 51 698 l 2
 51 726 64 739 92 739 c 2
 168 739 l 2
 196 739 209 726 209 698 c 2
 209 41 l 2
 209 13 196 0 168 0 c 2
 92 0 l 2
 64 0 51 13 51 41 c 2
58 813 m 2
 58 867 l 2
 58 891 70 902 95 902 c 2
 166 902 l 2
 191 902 203 891 203 867 c 2
 203 813 l 2
 203 788 191 776 166 776 c 2
 95 776 l 2
 70 776 58 788 58 813 c 2
EndSplineSet
EndChar

StartChar: Idieresis
Encoding: 207 207 262
Width: 260
Flags: HMW
HStem: 0 22G<78 92 92 168> 719 20G<92 168 168 182> 777 126<-33 50 -20 50 210 281>
VStem: -57 144<814 868 802 880> 51 158<41 698> 173 144<814 868 802 880>
LayerCount: 2
Fore
SplineSet
51 41 m 2xe8
 51 698 l 2
 51 726 64 739 92 739 c 2
 168 739 l 2
 196 739 209 726 209 698 c 2
 209 41 l 2
 209 13 196 0 168 0 c 2
 92 0 l 2
 64 0 51 13 51 41 c 2xe8
173 814 m 2xf4
 173 868 l 2
 173 892 185 903 210 903 c 2
 281 903 l 2
 306 903 317 892 317 868 c 2
 317 814 l 2
 317 789 306 777 281 777 c 2
 210 777 l 2
 185 777 173 789 173 814 c 2xf4
-57 814 m 2
 -57 868 l 2
 -57 892 -45 903 -20 903 c 2
 50 903 l 2
 75 903 87 892 87 868 c 2
 87 814 l 2
 87 789 75 777 50 777 c 2
 -20 777 l 2
 -45 777 -57 789 -57 814 c 2
EndSplineSet
Position2: "'cpsp' Capital Spacing in Latin lookup 0 subtable" dx=7 dy=0 dh=14 dv=0
EndChar

StartChar: Icircumflex
Encoding: 206 206 263
Width: 260
Flags: HMW
HStem: 0 22G<78 92 92 168> 719 20G<92 168 168 182> 893 20G<119 143 143 151>
VStem: 51 158<41 698>
LayerCount: 2
Fore
SplineSet
51 41 m 2
 51 698 l 2
 51 726 64 739 92 739 c 2
 168 739 l 2
 196 739 209 726 209 698 c 2
 209 41 l 2
 209 13 196 0 168 0 c 2
 92 0 l 2
 64 0 51 13 51 41 c 2
119 913 m 2
 143 913 l 2
 158 913 166 907 174 902 c 2
 270 840 l 2
 278 835 276 823 271 816 c 2
 249 780 l 2
 242 769 232 773 221 778 c 2
 130 820 l 1
 39 778 l 2
 30 774 18 769 11 780 c 2
 -12 817 l 2
 -16 824 -18 835 -10 840 c 2
 86 902 l 2
 91 905 104 913 119 913 c 2
EndSplineSet
Position2: "'cpsp' Capital Spacing in Latin lookup 0 subtable" dx=7 dy=0 dh=14 dv=0
EndChar

StartChar: Ibreve
Encoding: 300 300 264
Width: 260
Flags: HMW
HStem: 0 22G<78 92 92 168> 719 20G<92 168 168 182> 768 79<115 144 115 174> 768 116<7 174>
VStem: 51 158<41 698>
LayerCount: 2
Fore
SplineSet
51 41 m 2xd8
 51 698 l 2
 51 726 64 739 92 739 c 2
 168 739 l 2
 196 739 209 726 209 698 c 2
 209 41 l 2
 209 13 196 0 168 0 c 2
 92 0 l 2
 64 0 51 13 51 41 c 2xd8
7 884 m 2
 61 884 l 2xd8
 72 884 77 877 78 873 c 0
 83 856 100 847 130 847 c 0xe8
 159 847 179 857 183 873 c 0
 184 877 190 884 199 884 c 2
 253 884 l 2
 263 884 268 878 268 867 c 0
 268 823 217 768 130 768 c 0
 47 768 -8 822 -8 866 c 0
 -8 877 -3 884 7 884 c 2
EndSplineSet
EndChar

StartChar: Iacute
Encoding: 205 205 265
Width: 260
Flags: HMW
HStem: 0 22G<78 92 92 168> 719 20G<92 168 168 182>
VStem: 51 158<41 698>
LayerCount: 2
Fore
SplineSet
51 41 m 2
 51 698 l 2
 51 726 64 739 92 739 c 2
 168 739 l 2
 196 739 209 726 209 698 c 2
 209 41 l 2
 209 13 196 0 168 0 c 2
 92 0 l 2
 64 0 51 13 51 41 c 2
67 835 m 2
 211 907 l 2
 225 914 235 911 240 898 c 2
 262 840 l 2
 267 827 262 817 247 812 c 2
 90 769 l 1
 77 764 67 768 63 781 c 1
 52 809 l 2
 48 818 55 828 67 835 c 2
EndSplineSet
Position2: "'cpsp' Capital Spacing in Latin lookup 0 subtable" dx=7 dy=0 dh=14 dv=0
EndChar

StartChar: iogonek
Encoding: 303 303 266
Width: 253
Flags: HMW
HStem: -222 74<66 185 135 185 185 186> 497 20G<89 165 165 179> 615 144<72 168 86 168>
VStem: 48 158<41 476>
LayerCount: 2
Fore
SplineSet
37 -108 m 2
 83 0 l 1
 59 2 48 15 48 41 c 2
 48 476 l 2
 48 504 61 517 89 517 c 2
 165 517 l 2
 193 517 206 504 206 476 c 2
 206 41 l 2
 206 15 194 1 169 0 c 1
 118 -116 l 2
 110 -133 116 -148 135 -148 c 2
 185 -148 l 2
 200 -148 211 -155 211 -170 c 2
 211 -202 l 2
 211 -215 198 -222 186 -222 c 2
 92 -222 l 2
 40 -222 14 -158 37 -108 c 2
45 656 m 2
 45 719 l 2
 45 747 58 760 86 760 c 2
 168 760 l 2
 196 760 209 747 209 719 c 2
 209 656 l 2
 209 628 196 615 168 615 c 2
 86 615 l 2
 58 615 45 628 45 656 c 2
EndSplineSet
EndChar

StartChar: ij
Encoding: 307 307 267
Width: 487
Flags: HMW
HStem: -222 22G<236 250 250 311> -20 20G<75 89 89 165> 497 20G<89 165 165 179 325 400 400 414> 615 144<72 168 86 168 86 322 322 403>
VStem: 48 158<41 476> 209 232<-138 -124 -124 -110> 284 158<-46 476>
LayerCount: 2
Fore
SplineSet
284 -46 m 2xfa
 284 476 l 2xfa
 284 504 297 517 325 517 c 2
 400 517 l 2
 428 517 441 504 441 476 c 2
 441 -102 l 2
 441 -173 383 -222 311 -222 c 2
 250 -222 l 2
 222 -222 209 -209 209 -181 c 2
 209 -124 l 2xfc
 209 -96 222 -83 246 -83 c 2
 248 -83 l 2
 267 -83 284 -66 284 -46 c 2xfa
48 41 m 2
 48 476 l 2
 48 504 61 517 89 517 c 2
 165 517 l 2
 193 517 206 504 206 476 c 2
 206 41 l 2
 206 13 193 0 165 0 c 2
 89 0 l 2
 61 0 48 13 48 41 c 2
281 656 m 2
 281 719 l 2
 281 747 294 760 322 760 c 2
 403 760 l 2
 431 760 444 747 444 719 c 2
 444 656 l 2
 444 628 431 615 403 615 c 2
 322 615 l 2
 294 615 281 628 281 656 c 2
45 656 m 2
 45 719 l 2
 45 747 58 760 86 760 c 2
 168 760 l 2
 196 760 209 747 209 719 c 2
 209 656 l 2xfc
 209 628 196 615 168 615 c 2
 86 615 l 2
 58 615 45 628 45 656 c 2
EndSplineSet
EndChar

StartChar: Hbar
Encoding: 294 294 268
Width: 562
Flags: HMW
HStem: 0 22G<78 92 92 168 380 394 394 470> 304 139<209 353 209 353> 538 103<38 51 209 353 511 525> 719 20G<92 168 168 182 394 470 470 484>
VStem: 51 158<41 304 443 538 641 698> 353 158<41 304 304 304 443 538 641 698>
LayerCount: 2
Fore
SplineSet
353 304 m 1
 209 304 l 1
 209 41 l 2
 209 13 196 0 168 0 c 2
 92 0 l 2
 64 0 51 13 51 41 c 2
 51 538 l 1
 24 538 11 551 11 579 c 2
 11 600 l 2
 11 627 24 640 51 641 c 1
 51 698 l 2
 51 726 64 739 92 739 c 2
 168 739 l 2
 196 739 209 726 209 698 c 2
 209 641 l 1
 353 641 l 1
 353 698 l 2
 353 726 366 739 394 739 c 2
 470 739 l 2
 498 739 511 726 511 698 c 2
 511 641 l 1
 539 641 552 628 552 600 c 2
 552 579 l 2
 552 551 539 538 511 538 c 1
 511 41 l 2
 511 13 498 0 470 0 c 2
 394 0 l 2
 366 0 353 13 353 41 c 2
 353 304 l 1
209 538 m 1
 209 443 l 1
 353 443 l 1
 353 538 l 1
 209 538 l 1
EndSplineSet
EndChar

